<svg width="120" height="118" viewBox="0 0 120 118" fill="none" xmlns="http://www.w3.org/2000/svg">
<g clip-path="url(#clip0_2_946)">
<path d="M72.5163 117.855L32.5304 117.669C30.221 117.658 28.0102 116.731 26.3844 115.091C24.7585 113.451 23.8507 111.232 23.8606 108.922L24.2845 8.67713C24.2893 7.53299 24.5196 6.40102 24.962 5.34588C25.4045 4.29074 26.0505 3.33312 26.8631 2.52771C27.6758 1.7223 28.6391 1.0849 29.6982 0.651915C30.7573 0.218931 31.8912 -0.00114818 33.0354 0.00424724L73.0212 0.189221C75.3306 0.20007 77.5412 1.12755 79.167 2.76777C80.7928 4.40799 81.7007 6.62668 81.6911 8.93609L81.2671 109.182C81.2622 110.326 81.0319 111.458 80.5894 112.513C80.1469 113.568 79.5009 114.526 78.6882 115.331C77.8756 116.137 76.9123 116.774 75.8533 117.207C74.7943 117.64 73.6604 117.86 72.5163 117.855Z" fill="#263238"/>
<path d="M72.9642 3.64983L65.2112 3.61383C64.7007 3.62329 64.2148 3.835 63.8603 4.20246C63.5058 4.56991 63.3116 5.06306 63.3204 5.57358L63.3144 6.9794C63.3233 7.48982 63.1291 7.98286 62.7745 8.35015C62.42 8.71745 61.9341 8.92894 61.4237 8.93814L46.3126 8.86815C45.802 8.85428 45.3178 8.63831 44.9662 8.26768C44.6147 7.89704 44.4247 7.40205 44.4379 6.8914L44.4439 5.48559C44.457 4.97494 44.267 4.47995 43.9155 4.10932C43.564 3.73868 43.0797 3.52272 42.5691 3.50884L39.8425 3.49685L33.0573 3.46485C32.256 3.46104 31.4618 3.61515 30.7201 3.91839C29.9784 4.22163 29.3037 4.66806 28.7346 5.23216C28.1655 5.79625 27.7131 6.46696 27.4033 7.20596C27.0935 7.94496 26.9324 8.73777 26.9291 9.53907L26.5162 107.386C26.5126 108.187 26.6669 108.981 26.9701 109.723C27.2733 110.464 27.7196 111.138 28.2835 111.707C28.8474 112.276 29.5177 112.728 30.2564 113.038C30.995 113.348 31.7874 113.509 32.5884 113.513L72.4942 113.697C73.2955 113.7 74.0897 113.546 74.8315 113.243C75.5732 112.94 76.2479 112.493 76.817 111.929C77.3861 111.365 77.8384 110.695 78.1482 109.956C78.458 109.217 78.6192 108.424 78.6225 107.622L79.0364 9.77503C79.0433 8.15759 78.4075 6.60363 77.2687 5.45496C76.13 4.30629 74.5816 3.65697 72.9642 3.64983Z" fill="#FAFAFA"/>
<path d="M50.3793 104.328C50.404 104.496 50.3766 104.668 50.3008 104.82C50.225 104.972 50.1045 105.098 49.9553 105.179C49.8062 105.261 49.6356 105.295 49.4665 105.277C49.2974 105.259 49.1379 105.19 49.0094 105.078C48.8809 104.967 48.7896 104.819 48.7478 104.654C48.7059 104.489 48.7155 104.315 48.7753 104.156C48.8351 103.997 48.9421 103.86 49.0821 103.763C49.2221 103.667 49.3883 103.615 49.5583 103.616C49.7614 103.602 49.9616 103.67 50.1153 103.803C50.2691 103.936 50.364 104.125 50.3793 104.328Z" fill="#455A64"/>
<path d="M52.931 104.34C52.9557 104.508 52.9283 104.68 52.8524 104.832C52.7766 104.985 52.6559 105.11 52.5067 105.192C52.3575 105.273 52.1869 105.307 52.0177 105.289C51.8486 105.271 51.6891 105.201 51.5607 105.09C51.4322 104.978 51.341 104.83 51.2993 104.665C51.2575 104.5 51.2673 104.327 51.3272 104.167C51.3871 104.008 51.4944 103.871 51.6345 103.775C51.7746 103.678 51.9409 103.627 52.111 103.628C52.3139 103.615 52.5138 103.682 52.6673 103.815C52.8209 103.949 52.9156 104.137 52.931 104.34Z" fill="#455A64"/>
<path d="M55.4817 104.352C55.5066 104.52 55.4794 104.692 55.4037 104.844C55.3281 104.997 55.2076 105.122 55.0585 105.204C54.9094 105.286 54.7388 105.32 54.5696 105.302C54.4005 105.284 54.2409 105.215 54.1123 105.104C53.9837 104.992 53.8923 104.844 53.8504 104.679C53.8084 104.514 53.8179 104.341 53.8777 104.181C53.9374 104.022 54.0444 103.885 54.1844 103.788C54.3244 103.692 54.4906 103.64 54.6607 103.641C54.8636 103.627 55.0636 103.694 55.2173 103.828C55.3711 103.961 55.466 104.149 55.4817 104.352Z" fill="#455A64"/>
<path d="M116.651 21.0436H38.6026C37.793 21.0436 37.0166 21.3652 36.4441 21.9377C35.8716 22.5101 35.55 23.2866 35.55 24.0962V48.3061C35.55 49.1157 35.8716 49.8921 36.4441 50.4646C37.0166 51.0371 37.793 51.3587 38.6026 51.3587H44.4168C44.8848 53.8863 45.4337 57.0769 45.4337 57.0769L50.697 51.3587H116.652C117.461 51.3584 118.237 51.0367 118.809 50.4642C119.382 49.8918 119.703 49.1155 119.703 48.3061V24.0962C119.703 23.2866 119.382 22.5101 118.809 21.9377C118.237 21.3652 117.46 21.0436 116.651 21.0436Z" fill="#F47D31"/>
<path d="M84.4487 34.1759C84.4487 34.2259 75.1599 34.2659 63.7034 34.2659C52.2469 34.2659 42.9561 34.2259 42.9561 34.1759C42.9561 34.1259 52.2439 34.0859 63.7034 34.0859C75.1629 34.0859 84.4487 34.1259 84.4487 34.1759Z" fill="#F5F5F5" stroke="white" stroke-width="0.499935"/>
<path d="M84.4487 30.4544C84.4487 30.5044 75.1599 30.5444 63.7034 30.5444C52.2469 30.5444 42.9561 30.5034 42.9561 30.4544C42.9561 30.4054 52.2439 30.3644 63.7034 30.3644C75.1629 30.3644 84.4487 30.4044 84.4487 30.4544Z" fill="#F5F5F5" stroke="white" stroke-width="0.499935"/>
<path d="M84.4487 37.8564C84.4487 37.9064 75.1599 37.9464 63.7034 37.9464C52.2469 37.9464 42.9561 37.9054 42.9561 37.8564C42.9561 37.8074 52.2439 37.7664 63.7034 37.7664C75.1629 37.7664 84.4487 37.8064 84.4487 37.8564Z" fill="#F5F5F5" stroke="white" stroke-width="0.499935"/>
<path d="M70.1345 41.6709C70.1345 41.7209 64.0503 41.7609 56.5463 41.7609C49.0423 41.7609 42.9561 41.7209 42.9561 41.6709C42.9561 41.6209 49.0393 41.5809 56.5463 41.5809C64.0533 41.5809 70.1345 41.6199 70.1345 41.6709Z" fill="#F5F5F5" stroke="white" stroke-width="0.499935"/>
<path d="M81.3871 64.569H2.69725C2.13082 64.569 1.58759 64.794 1.18706 65.1945C0.786535 65.595 0.561523 66.1383 0.561523 66.7047V92.3184C0.561523 92.5988 0.616762 92.8766 0.724092 93.1357C0.831423 93.3948 0.98874 93.6302 1.18706 93.8286C1.38538 94.0269 1.62082 94.1842 1.87994 94.2915C2.13906 94.3989 2.41678 94.4541 2.69725 94.4541H59.8469L65.0462 100.106C65.0462 100.106 65.5921 96.9298 66.0511 94.4541H81.3821C81.6626 94.4541 81.9403 94.3989 82.1994 94.2915C82.4585 94.1842 82.694 94.0269 82.8923 93.8286C83.0906 93.6302 83.2479 93.3948 83.3553 93.1357C83.4626 92.8766 83.5178 92.5988 83.5178 92.3184V66.7047C83.5178 66.1391 83.2935 65.5967 82.8941 65.1963C82.4946 64.7959 81.9527 64.5703 81.3871 64.569Z" fill="#504C99"/>
<path d="M78.2995 77.7793C78.2995 77.8292 69.0097 77.8693 57.5541 77.8693C46.0986 77.8693 36.8068 77.8292 36.8068 77.7793C36.8068 77.7293 46.0936 77.6893 57.5541 77.6893C69.0147 77.6893 78.2995 77.7273 78.2995 77.7793Z" fill="#F5F5F5" stroke="white" stroke-width="0.499935"/>
<path d="M78.2995 74.0557C78.2995 74.1047 69.0097 74.1457 57.5541 74.1457C46.0986 74.1457 36.8068 74.1047 36.8068 74.0557C36.8068 74.0068 46.0936 73.9658 57.5541 73.9658C69.0147 73.9658 78.2995 74.0078 78.2995 74.0557Z" fill="#F5F5F5" stroke="white" stroke-width="0.499935"/>
<path d="M78.2995 81.4578C78.2995 81.5078 69.0097 81.5478 57.5541 81.5478C46.0986 81.5478 36.8068 81.5078 36.8068 81.4578C36.8068 81.4078 46.0936 81.3678 57.5541 81.3678C69.0147 81.3678 78.2995 81.4078 78.2995 81.4578Z" fill="#F5F5F5" stroke="white" stroke-width="0.499935"/>
<path d="M63.9853 85.2703C63.9853 85.3203 57.9001 85.3603 50.3971 85.3603C42.894 85.3603 36.8068 85.3193 36.8068 85.2703C36.8068 85.2213 42.89 85.1803 50.3971 85.1803C57.9041 85.1803 63.9853 85.2213 63.9853 85.2703Z" fill="#F5F5F5" stroke="white" stroke-width="0.499935"/>
<mask id="mask0_2_946" style="mask-type:luminance" maskUnits="userSpaceOnUse" x="5" y="66" width="27" height="26">
<path d="M25.2556 89.7819C31.2717 85.915 33.1372 78.0948 29.4223 72.3151C25.7074 66.5354 17.8188 64.9848 11.8026 68.8517C5.78648 72.7186 3.92097 80.5387 7.63589 86.3184C11.3508 92.0981 19.2394 93.6488 25.2556 89.7819Z" fill="white"/>
</mask>
<g mask="url(#mask0_2_946)">
<g style="mix-blend-mode:multiply">
<path d="M20.0529 91.585C26.8978 90.7238 31.74 84.4098 30.8685 77.4822C29.9969 70.5547 23.7415 65.6369 16.8966 66.4981C10.0518 67.3592 5.2095 73.6733 6.08109 80.6009C6.95268 87.5284 13.2081 92.4462 20.0529 91.585Z" fill="#C2D4EA"/>
</g>
<path fill-rule="evenodd" clip-rule="evenodd" d="M17.3849 82.1095L21.588 82.1651L21.6079 82.4534L19.5116 85.54L17.3473 82.3657L17.3849 82.1095Z" fill="#A2A7AF"/>
<path fill-rule="evenodd" clip-rule="evenodd" d="M17.4171 81.3307L17.3613 83.0852L14.3598 84.675L14.2805 90.6485L19.2981 90.7186L24.3157 90.7886L24.3952 84.816L21.6439 83.0477L21.5169 81.2938L17.4171 81.3307Z" fill="#FCAA83"/>
<path fill-rule="evenodd" clip-rule="evenodd" d="M16.1117 76.1883C16.0844 76.1333 16.0464 76.0845 15.9998 76.0446C15.9532 76.0047 15.899 75.9746 15.8405 75.9561C15.782 75.9377 15.7204 75.9312 15.6594 75.9371C15.5983 75.943 15.5391 75.9612 15.4852 75.9905C15.0238 76.1705 15.4785 78.0316 15.6509 78.2927C15.8232 78.5538 16.1085 78.3932 16.2108 78.3833C16.341 79.4922 16.3444 80.2545 16.78 80.7274C17.3485 81.3447 17.9724 81.9087 18.6439 82.4121C18.9184 82.4787 19.1978 82.524 19.4794 82.5474C19.7619 82.5307 20.0428 82.492 20.3193 82.4316C21.0035 81.947 21.642 81.4008 22.2267 80.7998C22.6762 80.3395 22.7 79.5794 22.8595 78.4733C22.9621 78.4856 23.2392 78.6545 23.421 78.3963C23.6028 78.1381 24.1034 76.2906 23.6468 76.0978C23.5938 76.0669 23.535 76.047 23.474 76.0394C23.413 76.0318 23.3511 76.0365 23.2921 76.0534C23.233 76.0703 23.1779 76.099 23.1302 76.1376C23.0825 76.1763 23.0431 76.2243 23.0143 76.2786C23.2789 75.3085 23.1665 74.2743 22.6996 73.3837C22.3591 72.8853 21.8989 72.4803 21.3612 72.2059C20.8234 71.9316 20.2255 71.7966 19.622 71.8135C19.0191 71.7808 18.4176 71.9001 17.8727 72.1603C17.3279 72.4205 16.857 72.8134 16.5035 73.3029C16.0135 74.1803 15.8737 75.2107 16.1123 76.187L16.1117 76.1883Z" fill="#FFBA99"/>
<path fill-rule="evenodd" clip-rule="evenodd" d="M15.8943 83.5819L16.6119 83.3105L17.1938 82.8014L19.2032 84.3683L19.7089 84.375L21.76 82.8597L23.0376 83.6772L25.2263 87.512L23.7859 94.7875L15.1597 94.673L12.9138 87.6527L15.8943 83.5819Z" fill="#38B8C7"/>
<path fill-rule="evenodd" clip-rule="evenodd" d="M22.3945 83.1871L21.5925 82.1634L19.7099 84.3748L21.2771 86.162L22.3945 83.1871Z" fill="#38B6D0"/>
<path fill-rule="evenodd" clip-rule="evenodd" d="M16.5504 83.0917L17.3841 82.1098L19.2036 84.3685L17.5306 86.0921L16.5504 83.0917Z" fill="#38B6D0"/>
<path fill-rule="evenodd" clip-rule="evenodd" d="M16.55 83.0907L11.0933 84.7857C10.9873 84.8209 10.8929 84.8845 10.8204 84.9694C10.7479 85.0544 10.7 85.1576 10.6819 85.2678L8.97562 93.3402C9.44316 93.7952 9.93964 94.2194 10.462 94.6103L12.9989 94.6441L13.4127 93.3553C13.4176 93.3414 13.4271 93.3297 13.4396 93.3221C13.4521 93.3144 13.4669 93.3113 13.4815 93.3132C13.496 93.3151 13.5094 93.322 13.5195 93.3327C13.5296 93.3433 13.5357 93.3571 13.5368 93.3717L13.5681 94.6511L18.9139 94.7223L16.55 83.0907Z" fill="white"/>
<path fill-rule="evenodd" clip-rule="evenodd" d="M16.5503 83.0917L15.9223 83.2762L14.2395 86.0669L16.3197 86.1595L15.0319 86.8695L18.474 94.7162L18.9126 94.7249L16.5503 83.0917Z" fill="#ECF0F3"/>
<path fill-rule="evenodd" clip-rule="evenodd" d="M22.3928 83.1864L27.8048 85.0072C27.9107 85.0453 28.0039 85.1119 28.0744 85.1995C28.1449 85.2872 28.1899 85.3926 28.2044 85.5041L29.6924 93.6187C29.2134 94.06 28.7064 94.4699 28.1744 94.8457L25.6375 94.8119L25.2586 93.5148C25.2552 93.4997 25.2464 93.4864 25.2338 93.4774C25.2212 93.4684 25.2058 93.4643 25.1904 93.4659C25.1751 93.4676 25.1608 93.4748 25.1504 93.4862C25.1401 93.4977 25.1342 93.5125 25.1341 93.528L25.0689 94.8067L19.7234 94.7333L22.3928 83.1864Z" fill="#ECF0F3"/>
<path fill-rule="evenodd" clip-rule="evenodd" d="M22.3941 83.1871L22.7385 83.2969L24.6267 86.2252L22.5436 86.2594L23.8119 87.0039L20.1678 94.74L19.7247 94.7339L22.3941 83.1871Z" fill="white"/>
<path fill-rule="evenodd" clip-rule="evenodd" d="M22.6147 76.7091L22.9309 76.7059L23.0383 76.3422L23.3434 76.0458C23.5623 74.5502 23.6516 72.2205 22.1643 72.2683C22.1643 72.2683 22.0523 70.5673 19.3672 70.8648C16.6821 71.1623 15.45 72.8724 15.5756 74.3181C15.6581 74.8543 15.6797 75.3982 15.6399 75.9393L15.9373 76.244L15.975 76.6604L16.2379 76.6471C16.2797 76.3769 16.3381 76.1096 16.4128 75.8466C16.4674 75.6051 16.4888 75.3572 16.4763 75.1099C16.4763 75.1099 19.6408 75.3537 20.5114 74.2767C21.049 73.6115 22.2778 72.4629 22.3187 74.0774C22.3301 74.5557 22.1427 75.2706 22.4764 75.7976C22.5743 75.9257 22.6378 76.0766 22.6609 76.2362C22.684 76.3957 22.6659 76.5585 22.6084 76.7091L22.6147 76.7091Z" fill="#454192"/>
<path fill-rule="evenodd" clip-rule="evenodd" d="M19.7235 94.7333L20.203 92.6647L19.7234 84.8871L20.0421 84.7562L19.7089 84.375L19.2032 84.3683L18.8501 84.731L19.1741 84.8795L18.5041 92.703L18.9149 94.7252L19.7235 94.7333Z" fill="#1E8394"/>
</g>
<g style="mix-blend-mode:multiply">
<path d="M105.247 49.748C111.858 48.915 116.533 42.8157 115.69 36.125C114.847 29.4342 108.805 24.6855 102.194 25.5186C95.5831 26.3516 90.9075 32.4508 91.7506 39.1416C92.5936 45.8324 98.6362 50.581 105.247 49.748Z" fill="#C2D4EA"/>
</g>
<path d="M108.422 46.7678C114.232 43.0302 116.032 35.4753 112.441 29.8935C108.85 24.3118 101.229 22.8168 95.4191 26.5544C89.6088 30.2921 87.8095 37.8469 91.4001 43.4287C94.9908 49.0105 102.612 50.5054 108.422 46.7678Z" fill="#DDE6F5"/>
<mask id="mask1_2_946" style="mask-type:luminance" maskUnits="userSpaceOnUse" x="89" y="24" width="26" height="25">
<path d="M108.422 46.7678C114.232 43.0302 116.032 35.4753 112.441 29.8935C108.85 24.3118 101.229 22.8168 95.4191 26.5544C89.6088 30.2921 87.8095 37.8469 91.4001 43.4287C94.9908 49.0105 102.612 50.5054 108.422 46.7678Z" fill="white"/>
</mask>
<g mask="url(#mask1_2_946)">
<path d="M103.404 43.0325C102.966 43.3155 101.717 43.1405 101.304 43.3735C100.595 43.6049 99.8424 43.6713 99.1038 43.5675C99.1778 41.5585 100.189 39.5255 100.275 37.6775C101.036 39.3775 101.934 38.4435 102.815 37.2775C102.724 39.0875 103.451 41.2145 103.404 43.0325Z" fill="#FFC2B0"/>
<path d="M100.179 39.1145C100.245 39.3138 100.337 39.5037 100.452 39.6795C100.665 40.0112 100.995 40.2506 101.377 40.3505C101.608 40.3913 101.845 40.3769 102.07 40.3084C102.294 40.2399 102.5 40.1193 102.669 39.9565C102.786 39.8565 102.899 39.7565 103.009 39.6565C102.863 38.8735 102.796 38.0779 102.809 37.2815C101.928 38.4445 101.03 39.3815 100.269 37.6815C100.285 37.8494 100.271 38.0189 100.226 38.1815C100.203 38.3645 100.164 38.5455 100.138 38.7275C100.124 38.8579 100.138 38.9898 100.179 39.1145Z" fill="#F4B7A8"/>
<path d="M107.892 51.3307C107.825 50.6378 107.757 49.9449 107.682 49.253C107.62 48.6924 107.554 48.1331 107.482 47.5751C107.409 47.0022 107.341 46.4163 107.264 45.8254C107.136 44.0498 106.78 42.298 106.206 40.6131C106.186 40.5684 106.172 40.5218 106.162 40.4741C105.128 40.089 104.067 39.7783 102.988 39.5442C102.988 40.0921 102.506 41.382 101.416 41.371C100.735 41.365 99.9497 40.3811 99.9497 39.5442C98.8408 39.7603 97.7539 40.0766 96.7021 40.4891C96.1622 40.6011 95.7023 43.7037 95.6193 44.1056C95.2783 45.8494 94.9054 47.5572 94.6114 49.305L94.6024 49.3559C94.4917 50.0152 94.3841 50.6744 94.2794 51.3337L107.892 51.3307Z" fill="#504C99"/>
<path d="M96.7042 40.4891L96.7332 40.4831C95.9381 40.8181 95.1693 41.2125 94.4335 41.6629C93.4299 42.2425 92.5874 43.064 91.9827 44.0526C91.3937 44.9907 90.9235 45.9983 90.5829 47.0523C90.8655 47.578 91.268 48.0298 91.7578 48.3711C92.4809 48.7987 93.242 49.1586 94.0315 49.4459C94.3754 48.846 94.6864 48.476 94.8264 48.1521C95.0673 46.8803 95.3733 45.3835 95.6263 44.1026C95.7003 43.7017 96.1642 40.6001 96.7042 40.4891Z" fill="#504C99"/>
<path d="M110.698 43.9167C110.172 42.9195 109.387 42.0825 108.426 41.494C107.805 41.137 106.126 40.4651 106.164 40.4731C106.174 40.5201 107.051 44.1726 107.264 45.8254C107.341 46.4154 107.336 46.4254 107.409 47.0023C107.638 47.9122 108.034 48.7721 108.575 49.5389C109.33 49.2749 110.053 48.9257 110.729 48.4981C111.182 48.2321 111.565 47.8636 111.849 47.4222C111.599 46.214 111.213 45.0379 110.698 43.9167Z" fill="#504C99"/>
<path d="M98.4879 35.5278C98.5508 36.4032 98.8146 37.2524 99.2588 38.0094C99.488 38.3862 99.8036 38.703 100.18 38.9335C100.555 39.1641 100.981 39.3018 101.421 39.3353C101.994 39.3081 102.549 39.1273 103.029 38.8117C103.508 38.4961 103.894 38.0574 104.145 37.5415C104.625 36.5196 104.892 35.4111 104.931 34.2829C105.103 33.3475 105.008 32.3828 104.659 31.4983C104.509 31.1895 104.281 30.9249 103.998 30.7303C103.79 30.5999 103.563 30.5022 103.325 30.4404C102.288 30.1436 101.175 30.2652 100.226 30.7794C98.385 31.8132 98.2799 33.72 98.4879 35.5278Z" fill="#FFC2B0"/>
<path d="M105.641 31.7392C105.578 31.4311 105.494 31.1278 105.389 30.8313C105.029 29.8871 104.378 29.0818 103.53 28.5316C102.531 28.0874 101.404 28.0251 100.363 28.3567C100.121 28.4486 99.8767 28.5316 99.6387 28.6376C99.5654 28.6722 99.4943 28.7113 99.4258 28.7546C99.2838 28.9062 99.1725 29.0837 99.0978 29.2775C99.0759 29.3381 99.0586 29.4003 99.0458 29.4635C98.5397 29.7786 98.1192 30.2138 97.8216 30.7304C97.524 31.2471 97.3586 31.8292 97.34 32.4251C97.532 32.983 97.64 33.587 97.776 34.1369C97.894 34.6019 98.007 35.0628 98.101 35.5257C98.1521 35.5289 98.2034 35.5217 98.2517 35.5045C98.2999 35.4874 98.3442 35.4606 98.3819 35.4258C98.5163 35.2679 98.5834 35.0636 98.5689 34.8568L98.6629 33.057C98.6602 32.9443 98.6846 32.8325 98.7339 32.7311C98.7452 32.7162 98.7576 32.7022 98.7709 32.6891C98.8142 32.5345 98.8785 32.3864 98.9618 32.2492C99.1703 31.8467 99.4877 31.511 99.8777 31.2803C99.9225 31.1769 99.9858 31.0827 100.065 31.0023C100.947 30.1024 102.364 30.4724 103.347 30.9873C103.888 31.2414 104.318 31.6845 104.555 32.2332C104.727 32.7854 104.71 33.3794 104.507 33.9209C104.514 34.2276 104.522 34.5339 104.529 34.8398C104.536 35.1468 104.595 35.5247 104.892 35.6127C104.971 35.6301 105.054 35.6281 105.132 35.6066C105.21 35.5852 105.282 35.5451 105.341 35.4897C105.326 34.8898 105.311 34.2979 105.347 33.705C105.403 33.0441 105.501 32.3875 105.641 31.7392Z" fill="#915151"/>
<path d="M98.703 35.9009C98.684 35.4369 98.591 34.9459 98.603 34.4799C98.5428 34.4428 98.4737 34.4228 98.403 34.4219C98.3245 34.4099 98.2442 34.4236 98.174 34.4609C98.0586 34.5526 97.9827 34.685 97.962 34.8309C97.8309 35.2914 97.8192 35.7776 97.928 36.2439C97.9779 36.4644 98.0787 36.6702 98.2223 36.8449C98.3659 37.0195 98.5483 37.1582 98.755 37.2499C98.7993 37.2721 98.8503 37.2771 98.898 37.2639C98.7845 36.8178 98.7191 36.3609 98.703 35.9009Z" fill="#F4B7A8"/>
<path d="M105.447 34.8339C105.443 34.763 105.424 34.6937 105.393 34.6301C105.361 34.5666 105.317 34.51 105.263 34.4639C105.194 34.4262 105.114 34.4124 105.036 34.4249C104.852 34.4504 104.684 34.5421 104.563 34.6829C104.544 34.6894 104.527 34.6985 104.51 34.7098C104.51 34.9818 104.498 35.2548 104.488 35.5328C104.49 36.0018 104.453 36.4702 104.376 36.9329C104.347 37.0626 104.311 37.1907 104.269 37.3168C104.339 37.3098 104.407 37.2902 104.469 37.2589C104.683 37.1664 104.874 37.0286 105.03 36.8549C105.185 36.6812 105.301 36.4758 105.369 36.2529C105.516 35.7942 105.542 35.3058 105.447 34.8339Z" fill="#F4B7A8"/>
</g>
</g>
<defs>
<clipPath id="clip0_2_946">
<rect width="119.141" height="117.851" fill="white" transform="translate(0.5625 0.00427246)"/>
</clipPath>
</defs>
</svg>
