<svg width="145" height="93" viewBox="0 0 145 93" fill="none" xmlns="http://www.w3.org/2000/svg">
<g clip-path="url(#clip0_3_1433)">
<path d="M103.575 88.6224C103.575 90.7382 89.6587 92.4531 72.4912 92.4531C55.3237 92.4531 41.4069 90.7382 41.4069 88.6224C41.4069 86.5066 55.3237 84.7927 72.4912 84.7927C89.6587 84.7927 103.575 86.5046 103.575 88.6224Z" fill="#EAEAEA"/>
<path d="M82.6973 36.5159C81.6274 51.0736 94.5263 63.8845 111.511 65.1304C128.495 66.3763 143.121 55.5823 144.188 41.0235C145.255 26.4648 132.355 13.6549 115.374 12.41C98.3939 11.1651 83.7642 21.9572 82.6973 36.5159Z" fill="#F47D31"/>
<path d="M90.2376 41.7324C91.1985 27.7567 104.786 17.4255 120.587 18.6574C124.754 18.932 128.821 20.06 132.534 21.9715C136.248 23.883 139.528 26.5372 142.173 29.7695C137.962 20.3703 127.753 13.3189 115.375 12.412C98.3949 11.1671 83.7652 21.9611 82.6973 36.5189C81.9114 47.25 88.7138 57.0301 99.1449 61.9297C93.2044 56.7962 89.7017 49.5188 90.2376 41.7324Z" fill="#FFA368"/>
<path d="M114.878 63.3156C114.878 63.3156 106.425 77.2884 93.6343 70.061C101.099 71.1329 101.949 61.8767 100.269 56.3002L114.878 63.3156Z" fill="#F47D31"/>
<path d="M112.275 64.6855L112.032 64.4806C112.26 64.2116 112.427 64.0005 112.532 63.8695L112.582 63.8046H112.664C112.93 63.8159 113.194 63.8242 113.455 63.8296L113.449 64.1476C113.211 64.1429 112.972 64.1355 112.733 64.1255C112.625 64.2615 112.472 64.4525 112.275 64.6855Z" fill="#F7F7F7"/>
<path d="M100.787 71.1524C100.592 71.1524 100.396 71.1464 100.199 71.1344L100.218 70.8164C100.792 70.8511 101.369 70.8337 101.94 70.7644L101.978 71.0804C101.583 71.128 101.185 71.1521 100.787 71.1524ZM103.718 70.7224L103.629 70.4174C104.183 70.2552 104.725 70.0547 105.252 69.8174L105.382 70.1074C104.842 70.3505 104.287 70.556 103.719 70.7224H103.718ZM106.951 69.2884L106.788 69.0154C107.27 68.7274 107.757 68.4034 108.234 68.0514L108.423 68.3074C107.942 68.6644 107.442 68.9944 106.952 69.2884H106.951ZM109.8 67.2004L109.591 66.9604C110.021 66.5854 110.447 66.1824 110.858 65.7604L111.084 65.9834C110.668 66.4114 110.236 66.8194 109.8 67.2004Z" fill="#F7F7F7"/>
<path d="M98.4361 70.865C98.1761 70.8 97.9161 70.723 97.6611 70.637L97.1061 70.449L97.6801 70.331C97.9279 70.2792 98.1691 70.1997 98.3991 70.094L98.5311 70.384C98.4441 70.423 98.3561 70.46 98.2681 70.492C98.3501 70.515 98.4311 70.537 98.5121 70.557L98.4361 70.865Z" fill="#F7F7F7"/>
<path d="M99.9949 69.2965L99.7629 69.0785C100.154 68.6545 100.492 68.1844 100.77 67.6785L101.048 67.8335C100.758 68.3624 100.404 68.8537 99.9949 69.2965ZM101.778 66.1905L101.478 66.0905C101.669 65.5401 101.821 64.9767 101.931 64.4045L102.244 64.4645C102.13 65.0503 101.974 65.6271 101.777 66.1905H101.778Z" fill="#F7F7F7"/>
<path d="M102.458 62.6778L102.14 62.6638C102.15 62.4338 102.153 62.2068 102.149 61.9868C101.933 61.9048 101.718 61.8207 101.505 61.7347L101.624 61.4348C101.868 61.5334 102.113 61.6294 102.361 61.7227L102.461 61.7607V61.8678C102.472 62.1308 102.47 62.4018 102.458 62.6778Z" fill="#F7F7F7"/>
<path d="M115.101 64.1427L115.092 63.8247C115.621 63.8097 116.153 63.7817 116.674 63.7427L116.698 64.0597C116.172 64.0997 115.635 64.1277 115.101 64.1427ZM118.288 63.8997L118.249 63.5847C118.77 63.5197 119.297 63.4407 119.816 63.3507L119.871 63.6637C119.347 63.7557 118.815 63.8347 118.288 63.9007V63.8997ZM121.439 63.3497L121.369 63.0398C121.886 62.9228 122.402 62.7928 122.905 62.6528L122.99 62.9588C122.483 63.1018 121.961 63.2338 121.439 63.3507V63.3497ZM124.52 62.4918L124.42 62.1918C124.92 62.0259 125.42 61.8449 125.909 61.6519L126.025 61.9519C125.53 62.1418 125.024 62.3248 124.52 62.4928V62.4918ZM127.498 61.3239L127.366 61.0349C127.846 60.817 128.325 60.584 128.789 60.343L128.936 60.625C128.465 60.87 127.984 61.1059 127.499 61.3259L127.498 61.3239ZM100.035 61.0959C99.554 60.873 99.071 60.634 98.6011 60.386L98.7491 60.105C99.214 60.35 99.691 60.587 100.168 60.805L100.035 61.0959ZM130.332 59.848L130.17 59.5741C130.624 59.3061 131.07 59.0221 131.51 58.7311L131.687 58.9961C131.251 59.2921 130.795 59.5821 130.337 59.85L130.332 59.848ZM97.2022 59.6041C96.7442 59.3311 96.2883 59.0431 95.8493 58.7501L96.0263 58.4852C96.4613 58.7761 96.9112 59.0601 97.3652 59.3301L97.2022 59.6041ZM132.991 58.0672L132.799 57.8132C133.22 57.4952 133.635 57.1623 134.033 56.8233L134.239 57.0653C133.841 57.4102 133.421 57.7472 132.996 58.0692L132.991 58.0672ZM94.5434 57.8242C94.1175 57.5052 93.6955 57.1703 93.2895 56.8243L93.4895 56.5813C93.8895 56.9183 94.3084 57.2493 94.7294 57.5652L94.5434 57.8242ZM135.426 55.9904L135.206 55.7614C135.587 55.3944 135.958 55.0135 136.306 54.6295L136.54 54.8445C136.193 55.2344 135.817 55.6204 135.431 55.9924L135.426 55.9904ZM92.0937 55.7664C91.7067 55.4024 91.3257 55.0225 90.9597 54.6365L91.1907 54.4175C91.5517 54.7985 91.9287 55.1744 92.3116 55.5344L92.0937 55.7664ZM137.59 53.6316L137.342 53.4316C137.672 53.0226 137.991 52.5977 138.291 52.1697L138.551 52.3517C138.25 52.7887 137.926 53.2186 137.592 53.6336L137.59 53.6316ZM89.8938 53.4416C89.5509 53.0326 89.2169 52.6097 88.9009 52.1847L89.1559 51.9957C89.4679 52.4167 89.7979 52.8337 90.1368 53.2376L89.8938 53.4416ZM139.424 51.0128L139.152 50.8478C139.425 50.3949 139.684 49.9309 139.921 49.4689L140.203 49.6139C139.965 50.0829 139.705 50.5548 139.428 51.0148L139.424 51.0128ZM87.988 50.8678C87.698 50.4198 87.42 49.9579 87.1611 49.4949L87.4391 49.3399C87.694 49.7969 87.969 50.2519 88.256 50.6948L87.988 50.8678ZM140.883 48.168L140.59 48.0431C140.796 47.5591 140.99 47.0632 141.157 46.5682L141.457 46.6682C141.29 47.1711 141.097 47.6751 140.887 48.166L140.883 48.168ZM86.4251 48.0751C86.1962 47.5921 85.9822 47.0971 85.7882 46.6042L86.0882 46.4882C86.2791 46.9742 86.4881 47.4621 86.7171 47.9391L86.4251 48.0751ZM141.92 45.1353L141.613 45.0543C141.746 44.5474 141.862 44.0294 141.957 43.5134L142.27 43.5714C142.178 44.0924 142.064 44.6183 141.926 45.1333L141.92 45.1353ZM85.2532 45.0933C85.0943 44.5854 84.9533 44.0654 84.8293 43.5484L85.1382 43.4755C85.2592 43.9854 85.4002 44.4984 85.5572 44.9993L85.2532 45.0933ZM142.502 41.9866L142.186 41.9526C142.214 41.6959 142.238 41.438 142.257 41.1787C142.277 40.9193 142.291 40.6527 142.301 40.3787L142.619 40.3897C142.609 40.6597 142.595 40.9307 142.575 41.2026C142.556 41.4746 142.534 41.7349 142.508 41.9836L142.502 41.9866ZM84.5173 41.9766C84.4333 41.4516 84.3673 40.9167 84.3173 40.3867L84.6343 40.3597C84.6793 40.8827 84.7443 41.4096 84.8273 41.9266L84.5173 41.9766ZM142.3 38.7969C142.28 38.2739 142.241 37.744 142.182 37.222L142.498 37.187C142.557 37.716 142.598 38.2539 142.618 38.7868L142.3 38.7969ZM84.2493 38.7839V38.5259C84.2493 38.0799 84.2633 37.626 84.2913 37.181L84.6083 37.201C84.5813 37.6409 84.5673 38.0869 84.5673 38.5259V38.7799L84.2493 38.7839ZM141.956 35.6621C141.856 35.1502 141.744 34.6322 141.61 34.1233L141.917 34.0423C142.053 34.5592 142.171 35.0842 142.268 35.6041L141.956 35.6621ZM84.7613 35.6301L84.4463 35.5871C84.5183 35.0582 84.6103 34.5272 84.7203 34.0083L85.0312 34.0743C84.9223 34.5842 84.8313 35.1072 84.7603 35.6281L84.7613 35.6301ZM141.156 32.6114C140.987 32.1114 140.798 31.6185 140.594 31.1345L140.887 31.0115C141.093 31.5025 141.287 32.0114 141.457 32.5114L141.156 32.6114ZM85.4172 32.5434L85.1113 32.4554C85.2592 31.9454 85.4282 31.4335 85.6112 30.9325L85.9112 31.0435C85.7262 31.5345 85.5592 32.0394 85.4142 32.5414L85.4172 32.5434ZM139.933 29.6986C139.698 29.2327 139.443 28.7647 139.175 28.3098L139.449 28.1478C139.721 28.6087 139.979 29.0827 140.216 29.5557L139.933 29.6986ZM86.5161 29.5827L86.2272 29.4507C86.4471 28.9687 86.6871 28.4867 86.9431 28.0178L87.2221 28.1698C86.9691 28.6297 86.7291 29.1057 86.5131 29.5847L86.5161 29.5827ZM138.327 26.9719C138.035 26.5419 137.727 26.1109 137.398 25.692L137.649 25.497C137.977 25.921 138.294 26.3569 138.59 26.7969L138.327 26.9719ZM88.025 26.8099L87.757 26.6389C88.042 26.1919 88.346 25.749 88.6619 25.32L88.9179 25.509C88.6029 25.929 88.302 26.3669 88.021 26.8079L88.025 26.8099ZM136.392 24.4721C136.046 24.0781 135.684 23.6882 135.314 23.3132L135.541 23.0902C135.915 23.4692 136.281 23.8641 136.631 24.2621L136.392 24.4721ZM89.8958 24.2721L89.6529 24.0671C89.9928 23.6672 90.3528 23.2672 90.7228 22.8762L90.9527 23.0962C90.5838 23.4712 90.2288 23.8671 89.8918 24.2661L89.8958 24.2721ZM134.171 22.2223C133.783 21.8723 133.378 21.5223 132.971 21.1944L133.171 20.9474C133.586 21.2824 133.996 21.6323 134.388 21.9873L134.171 22.2223ZM92.0816 21.9883L91.8667 21.7543C92.2546 21.3954 92.6666 21.0424 93.0756 20.7044L93.2755 20.9504C92.8686 21.2794 92.4616 21.6283 92.0776 21.9853L92.0816 21.9883ZM131.709 20.2344C131.284 19.9275 130.843 19.6275 130.4 19.3435L130.572 19.0766C131.02 19.3645 131.465 19.6675 131.895 19.9765L131.709 20.2344ZM94.5294 19.9865L94.3435 19.7285C94.7704 19.4195 95.2154 19.1156 95.6663 18.8286L95.8373 19.0956C95.3884 19.3745 94.9484 19.6745 94.5264 19.9805L94.5294 19.9865ZM129.046 18.5226C128.592 18.2626 128.123 18.0106 127.647 17.7727L127.79 17.4887C128.266 17.7287 128.739 17.9836 129.198 18.2456L129.046 18.5226ZM97.1932 18.2776L97.0372 18.0006C97.4992 17.7397 97.9751 17.4877 98.4511 17.2507L98.5921 17.5357C98.1171 17.7637 97.6472 18.0126 97.1892 18.2716L97.1932 18.2776ZM126.22 17.0947C125.743 16.8827 125.25 16.6798 124.757 16.4898L124.871 16.1898C125.371 16.3818 125.871 16.5898 126.349 16.8008L126.22 17.0947ZM100.028 16.8707L99.902 16.5788C100.387 16.3688 100.886 16.1688 101.387 15.9788L101.497 16.2788C100.999 16.4588 100.504 16.6568 100.024 16.8647L100.028 16.8707ZM123.266 15.9518C122.766 15.7878 122.257 15.6328 121.75 15.4939L121.834 15.1879C122.346 15.3289 122.861 15.4879 123.365 15.6508L123.266 15.9518ZM102.997 15.7618L102.902 15.4619C103.409 15.3029 103.926 15.1549 104.439 15.0209L104.519 15.3279C104.007 15.4579 103.494 15.6039 102.992 15.7618H102.997ZM120.213 15.1089C119.7 14.9939 119.178 14.8889 118.659 14.7979L118.714 14.4849C119.237 14.5769 119.764 14.6849 120.282 14.7989L120.213 15.1089ZM106.061 14.9659L105.996 14.6549C106.514 14.548 107.043 14.4549 107.57 14.369L107.619 14.6829C107.094 14.7639 106.567 14.8599 106.057 14.9659H106.061ZM117.093 14.5609C116.574 14.4949 116.044 14.439 115.518 14.397L115.543 14.08C116.073 14.123 116.609 14.18 117.133 14.246L117.093 14.5609ZM109.194 14.476L109.16 14.16C109.688 14.103 110.224 14.06 110.754 14.027L110.773 14.345C110.24 14.375 109.708 14.419 109.186 14.4749L109.194 14.476ZM113.94 14.306C113.406 14.288 112.879 14.282 112.356 14.288V13.97C112.889 13.9627 113.422 13.9687 113.956 13.988L113.94 14.306Z" fill="#F7F7F7"/>
<g style="mix-blend-mode:multiply">
<path d="M108.517 42.5754C107.838 33.3082 102.854 25.2359 95.3402 19.6664C88.1728 24.002 83.2972 30.9894 82.6973 39.1647C82.6883 39.2927 82.6853 39.4207 82.6783 39.5486C83.2782 49.6568 90.5356 58.541 100.945 62.7097C100.882 63.5458 100.742 64.3743 100.526 65.1844L100.626 65.2274C103.381 62.1659 105.498 58.5857 106.853 54.6962C108.208 50.8067 108.774 46.6861 108.517 42.5754Z" fill="#504C99"/>
</g>
<path d="M69.1781 74.8777C90.8626 73.2887 107.337 56.9292 105.975 38.3377C104.612 19.7463 85.9291 5.96305 64.2446 7.55204C42.5601 9.14102 26.0857 25.5005 27.448 44.092C28.8103 62.6835 47.4935 76.4667 69.1781 74.8777Z" fill="#504C99"/>
<path d="M39.5962 49.561C38.4463 33.8624 52.5421 20.0406 71.0815 18.6807C87.918 17.4468 102.629 26.92 106.049 40.4268C106.049 39.7339 106.024 39.0369 105.973 38.336C104.611 19.7446 85.9272 5.96177 64.2441 7.55064C42.5609 9.1395 26.0853 25.5001 27.4472 44.0915C28.7291 61.567 45.3077 74.7918 65.306 74.9978C51.3132 72.441 40.5341 62.3549 39.5962 49.561Z" fill="#463989"/>
<path d="M64.8788 72.5618C64.8788 72.5618 75.6729 90.4063 92.0065 81.1751C82.4733 82.5449 81.3884 70.724 83.5332 63.6026L64.8788 72.5618Z" fill="#504C99"/>
<path d="M68.0956 74.1118C67.9046 73.8808 67.7536 73.6917 67.6456 73.5537C67.4069 73.5637 67.1686 73.5718 66.9306 73.5778L66.9226 73.2597C67.1859 73.2531 67.4499 73.2441 67.7146 73.2328H67.7966L67.8466 73.2977C67.9536 73.4367 68.1196 73.6468 68.3396 73.9128L68.0956 74.1118Z" fill="#F7F7F7"/>
<path d="M82.9053 82.5239V82.206C83.4263 82.2045 83.9467 82.1691 84.4631 82.1L84.5051 82.415C83.9748 82.4861 83.4404 82.5225 82.9053 82.5239ZM81.3054 82.424C80.7752 82.3575 80.2493 82.2599 79.7305 82.132L79.8065 81.823C80.3131 81.948 80.8266 82.0431 81.3444 82.108L81.3054 82.424ZM78.2007 81.668C77.7117 81.492 77.2147 81.285 76.7258 81.0551L76.8608 80.7681C77.3417 80.9941 77.8287 81.1971 78.3087 81.368L78.2007 81.668ZM75.3099 80.3151C74.861 80.0572 74.41 79.7722 73.957 79.4692L74.135 79.2062C74.578 79.5062 75.0259 79.7852 75.4679 80.0402L75.3099 80.3151ZM72.6651 78.5343C72.2522 78.2143 71.8372 77.8733 71.4343 77.5214L71.6432 77.2814C72.0432 77.6294 72.4522 77.9663 72.8601 78.2813L72.6651 78.5343ZM70.2653 76.4424C69.8844 76.0735 69.5104 75.6895 69.1505 75.3045L69.3834 75.0876C69.7394 75.4696 70.1104 75.8495 70.4833 76.2145L70.2653 76.4424Z" fill="#F7F7F7"/>
<path d="M86.081 82.097L85.998 81.79L86.235 81.724C86.15 81.695 86.065 81.664 85.982 81.631L86.101 81.331C86.3379 81.4266 86.5829 81.5009 86.833 81.553L87.407 81.6711L86.852 81.859C86.6 81.948 86.341 82.027 86.081 82.097Z" fill="#F7F7F7"/>
<path d="M84.5124 80.7337C84.0773 80.3628 83.6852 79.9442 83.3434 79.4858L83.5974 79.2937C83.924 79.7346 84.2994 80.1372 84.7164 80.4938L84.5124 80.7337ZM82.4374 78.0448C82.1751 77.5429 81.9449 77.0248 81.7484 76.4938L82.0484 76.3827C82.2401 76.9011 82.4646 77.4068 82.7204 77.8967L82.4374 78.0448ZM81.2474 74.8747C81.1098 74.3265 81.0009 73.7714 80.9214 73.2117L81.2364 73.1668C81.3143 73.7154 81.4211 74.2594 81.5564 74.7967L81.2474 74.8747Z" fill="#F7F7F7"/>
<path d="M80.7764 71.521C80.7684 71.248 80.7684 70.977 80.7764 70.721V70.614L80.8765 70.576C81.1245 70.4827 81.3708 70.3873 81.6154 70.29L81.7324 70.59C81.5191 70.6753 81.3044 70.7587 81.0884 70.84C81.0884 71.061 81.0884 71.289 81.0884 71.519L80.7764 71.521Z" fill="#F7F7F7"/>
<path d="M65.2788 73.5877C64.7448 73.5807 64.2089 73.5637 63.6859 73.5377L63.7019 73.2207C64.2209 73.2457 64.7528 73.2627 65.2838 73.2697L65.2788 73.5877ZM62.095 73.4287C61.5681 73.3837 61.0351 73.3287 60.5102 73.2607L60.5492 72.9458C61.0701 73.0108 61.5991 73.0668 62.122 73.1127L62.095 73.4287ZM58.9323 73.0288C58.4103 72.9438 57.8824 72.8468 57.3644 72.7418L57.4274 72.4298C57.9414 72.5298 58.4654 72.6298 58.9833 72.7158L58.9323 73.0288ZM55.8086 72.3938C55.2896 72.2668 54.7707 72.1298 54.2677 71.9858L54.3547 71.6799C54.8547 71.8219 55.3686 71.9588 55.8846 72.0798L55.8086 72.3938ZM52.7429 71.5179C52.2379 71.3519 51.7309 71.1739 51.243 70.9899L51.355 70.69C51.8439 70.8729 52.3459 71.0489 52.8468 71.2149L52.7429 71.5179ZM49.7571 70.401C49.2691 70.195 48.7782 69.977 48.3002 69.752L48.4352 69.4651C48.9092 69.688 49.3951 69.904 49.8801 70.108L49.7571 70.401ZM83.2052 69.96L83.0762 69.669C83.5572 69.4561 84.0391 69.2301 84.5091 68.9981L84.6491 69.2831C84.1751 69.5221 83.6892 69.749 83.2052 69.964V69.96ZM46.8724 69.0431C46.4044 68.7991 45.9344 68.5431 45.4725 68.2752L45.6314 68.0002C46.0874 68.2632 46.5534 68.5201 47.0173 68.7611L46.8724 69.0431ZM86.069 68.5511L85.918 68.2722C86.3789 68.0212 86.8419 67.7582 87.2929 67.4892L87.4558 67.7622C86.9949 68.0382 86.5299 68.3042 86.065 68.5561L86.069 68.5511ZM44.1146 67.4512C43.6676 67.1663 43.2217 66.8683 42.7887 66.5643L42.9707 66.3043C43.3996 66.6043 43.8416 66.9043 44.2846 67.1833L44.1146 67.4512ZM88.8107 66.9223L88.6367 66.6563C89.0757 66.3703 89.5147 66.0694 89.9416 65.7644L90.1266 66.0224C89.6897 66.3303 89.2457 66.6333 88.8037 66.9223H88.8107ZM41.5068 65.6224C41.0858 65.2984 40.6689 64.9605 40.2659 64.6225L40.4719 64.3795C40.8719 64.7175 41.2848 65.0514 41.7008 65.3734L41.5068 65.6224ZM91.4025 65.0704L91.2025 64.8195C91.6145 64.4985 92.0265 64.1615 92.4274 63.8195L92.6334 64.0615C92.2294 64.4045 91.8135 64.7435 91.3945 65.0674L91.4025 65.0704ZM39.071 63.5606C38.6811 63.1976 38.2971 62.8216 37.9301 62.4457L38.1581 62.2237C38.5221 62.5967 38.902 62.9686 39.288 63.3236L39.071 63.5606ZM93.8283 63.0006L93.6113 62.7676C93.9943 62.4107 94.3753 62.0397 94.7432 61.6677L94.9702 61.8907C94.5942 62.2627 94.2103 62.6377 93.8243 62.9976L93.8283 63.0006ZM36.8442 61.2768C36.4932 60.8768 36.1443 60.4688 35.8203 60.0569L36.0693 59.8569C36.3943 60.2639 36.7352 60.6708 37.0832 61.0638L36.8442 61.2768ZM96.0631 60.7208L95.8261 60.5088C96.1751 60.1179 96.5261 59.7089 96.853 59.3089L97.1 59.5089C96.76 59.9149 96.4111 60.3239 96.0591 60.7178L96.0631 60.7208ZM34.8554 58.779C34.5454 58.346 34.2444 57.9021 33.9615 57.4601L34.2294 57.2881C34.5094 57.7251 34.8064 58.165 35.1134 58.594L34.8554 58.779ZM98.0729 58.234L97.817 58.045C98.1289 57.6211 98.4339 57.1851 98.7229 56.7452L98.9879 56.9212C98.6939 57.3701 98.3889 57.8101 98.0729 58.239V58.234ZM33.1395 56.0932C32.8786 55.6313 32.6266 55.1573 32.3926 54.6843L32.6776 54.5434C32.9096 55.0113 33.1585 55.4803 33.4175 55.9362L33.1395 56.0932ZM99.8338 55.5713L99.5608 55.4093C99.8278 54.9583 100.088 54.4933 100.332 54.0294L100.613 54.1774C100.37 54.6513 100.108 55.1203 99.8378 55.5793L99.8338 55.5713ZM31.7197 53.2355C31.5107 52.7465 31.3127 52.2465 31.1327 51.7506L31.4327 51.6426C31.6107 52.1336 31.8056 52.6275 32.0126 53.1115L31.7197 53.2355ZM101.314 52.7445L101.025 52.6115C101.244 52.1346 101.453 51.6456 101.646 51.1586L101.946 51.2756C101.755 51.7726 101.544 52.2665 101.322 52.7485L101.314 52.7445ZM30.6268 50.2327C30.4748 49.7228 30.3348 49.2028 30.2128 48.6879L30.5218 48.6149C30.6427 49.1238 30.7797 49.6378 30.9307 50.1417L30.6268 50.2327ZM102.494 49.7798L102.194 49.6798C102.36 49.1798 102.514 48.6799 102.652 48.1689L102.959 48.2529C102.821 48.7648 102.665 49.2798 102.494 49.7798ZM29.8998 47.129C29.8078 46.608 29.7288 46.0771 29.6668 45.5501L29.9828 45.5131C30.0448 46.0341 30.1218 46.559 30.2128 47.074L29.8998 47.129ZM103.34 46.702L103.029 46.636C103.138 46.1251 103.234 45.6031 103.314 45.0842L103.628 45.1332C103.545 45.6571 103.448 46.1851 103.337 46.702H103.34ZM29.5258 43.9593C29.4938 43.4293 29.4769 42.8924 29.4749 42.3594H29.7928C29.7928 42.8824 29.8108 43.4133 29.8428 43.9373L29.5258 43.9593ZM103.827 43.5503L103.51 43.5193C103.561 43.0004 103.596 42.4704 103.616 41.9444L103.934 41.9564C103.91 42.4894 103.875 43.0253 103.824 43.5503H103.827ZM29.8338 40.7835L29.5168 40.7665C29.5458 40.2366 29.5898 39.7016 29.6498 39.1757L29.9658 39.2117C29.8998 39.7306 29.8588 40.2606 29.8298 40.7805L29.8338 40.7835ZM103.627 40.3666C103.617 39.8776 103.595 39.3797 103.559 38.8877L103.551 38.7877L103.868 38.7637L103.876 38.8637C103.912 39.3637 103.935 39.8636 103.945 40.3636L103.627 40.3666ZM30.1828 37.6488L29.8698 37.5948C29.9588 37.0739 30.0648 36.5489 30.1828 36.0319L30.4928 36.1039C30.3758 36.6149 30.2708 37.1339 30.1828 37.6488ZM103.386 37.2198C103.316 36.7039 103.23 36.1799 103.131 35.663L103.442 35.603C103.542 36.1259 103.63 36.6559 103.7 37.1778L103.386 37.2198ZM30.8927 34.5781L30.5878 34.4891C30.7357 33.9801 30.8997 33.4692 31.0747 32.9702L31.3747 33.0752C31.1997 33.5692 31.0357 34.0751 30.8897 34.5811L30.8927 34.5781ZM102.787 34.1231C102.658 33.6142 102.512 33.1032 102.353 32.6032L102.653 32.5032C102.814 33.0092 102.961 33.5262 103.092 34.0411L102.787 34.1231ZM31.9366 31.6003L31.6427 31.4783C31.8426 30.9904 32.0636 30.4994 32.2926 30.0195L32.5796 30.1564C32.3526 30.6314 32.1366 31.1174 31.9366 31.6003ZM101.831 31.1114C101.645 30.6224 101.442 30.1314 101.231 29.6525L101.521 29.5225C101.738 30.0075 101.943 30.5034 102.132 30.9984L101.831 31.1114ZM33.2995 28.7476L33.0205 28.5956C33.2715 28.1326 33.5415 27.6667 33.8205 27.2107L34.0915 27.3767C33.8145 27.8296 33.5475 28.2906 33.2995 28.7476ZM100.546 28.2296C100.307 27.7657 100.051 27.3007 99.7848 26.8477L100.059 26.6867C100.328 27.1447 100.586 27.6147 100.828 28.0866L100.546 28.2296ZM34.9514 26.0478L34.6884 25.8688C34.9884 25.4339 35.2993 24.9989 35.6203 24.5739L35.8733 24.7659C35.5553 25.1819 35.2454 25.6178 34.9514 26.0488V26.0478ZM98.9459 25.5089C98.6569 25.0719 98.3529 24.6379 98.0459 24.217L98.3019 24.028C98.6159 24.4529 98.9239 24.8919 99.2148 25.3339L98.9459 25.5089ZM36.8512 23.529L36.6072 23.329C36.9462 22.9231 37.3002 22.5191 37.6581 22.1291L37.8921 22.3441C37.5442 22.7271 37.1942 23.1281 36.8582 23.53L36.8512 23.529ZM97.071 22.9731C96.739 22.5731 96.3911 22.1661 96.0381 21.7732L96.2731 21.5592C96.6301 21.9522 96.981 22.3591 97.316 22.7661L97.071 22.9731ZM38.999 21.2012L38.775 20.9762C39.149 20.6043 39.537 20.2353 39.931 19.8763L40.1449 20.1113C39.75 20.4663 39.365 20.8333 38.999 21.2012ZM94.9582 20.6353C94.5902 20.2673 94.2043 19.9013 93.8133 19.5464L94.0273 19.3104C94.4223 19.6683 94.8112 20.0383 95.1832 20.4103L94.9582 20.6353ZM41.3368 19.0744L41.1368 18.8304C41.5418 18.4935 41.9618 18.1585 42.3847 17.8365L42.5777 18.0895C42.1518 18.4085 41.7348 18.7394 41.3328 19.0744H41.3368ZM92.6174 18.5135C92.2174 18.1805 91.7955 17.8515 91.3755 17.5355L91.5655 17.2816C91.9895 17.6005 92.4114 17.9315 92.8194 18.2685L92.6174 18.5135ZM43.8516 17.1586L43.6696 16.8976C44.1016 16.5976 44.5475 16.2977 44.9965 16.0127L45.1675 16.2806C44.7185 16.5636 44.2766 16.8586 43.8476 17.1576L43.8516 17.1586ZM90.0896 16.6166C89.6557 16.3166 89.2097 16.0297 88.7647 15.7537L88.9327 15.4837C89.3817 15.7617 89.8327 16.0547 90.2696 16.3536L90.0896 16.6166ZM46.5184 15.4587L46.3584 15.1837C46.8154 14.9188 47.2843 14.6578 47.7533 14.4108L47.9013 14.6918C47.4333 14.9368 46.9683 15.1947 46.5144 15.4577L46.5184 15.4587ZM87.4038 14.9498C86.9449 14.6918 86.4759 14.4418 86.004 14.2038L86.148 13.9208C86.6189 14.1598 87.0919 14.4128 87.5548 14.6728L87.4038 14.9498ZM49.3151 13.9809L49.1782 13.6939C49.6561 13.4649 50.1451 13.2429 50.63 13.0339L50.756 13.3259C50.269 13.5329 49.7851 13.7529 49.3101 13.9829L49.3151 13.9809ZM84.5841 13.5179C84.1061 13.2999 83.6172 13.0889 83.1322 12.8909L83.2522 12.597C83.7422 12.797 84.2341 13.0089 84.7161 13.2289L84.5841 13.5179ZM52.2199 12.728L52.1059 12.428C52.5999 12.238 53.1058 12.054 53.6058 11.883L53.7058 12.183C53.2058 12.357 52.7049 12.539 52.2149 12.728H52.2199ZM81.6563 12.328C81.1634 12.15 80.6564 11.98 80.1565 11.821L80.2565 11.5211C80.7614 11.681 81.2694 11.853 81.7663 12.033L81.6563 12.328ZM55.2136 11.708L55.1226 11.4081C55.6306 11.2561 56.1466 11.1081 56.6575 10.9791L56.7375 11.2871C56.2245 11.4101 55.7116 11.5531 55.2086 11.704L55.2136 11.708ZM78.6406 11.3731C78.1407 11.2351 77.6207 11.1051 77.1067 10.9851L77.1787 10.6761C77.6957 10.7961 78.2156 10.9271 78.7236 11.0671L78.6406 11.3731ZM58.2754 10.9131L58.2074 10.6031C58.7253 10.4891 59.2513 10.3842 59.7702 10.2902L59.8272 10.6031C59.3063 10.6921 58.7843 10.7971 58.2704 10.9091L58.2754 10.9131ZM75.5599 10.6571C75.0459 10.5571 74.521 10.4682 74.001 10.3882L74.049 10.0742C74.574 10.1542 75.1019 10.2452 75.6199 10.3452L75.5599 10.6571ZM61.3881 10.3492L61.3431 10.0342C61.8641 9.95919 62.396 9.89319 62.925 9.8342L62.959 10.1502C62.429 10.2052 61.8971 10.2712 61.3831 10.3452L61.3881 10.3492ZM72.4321 10.1802C71.9102 10.1212 71.3802 10.0702 70.8573 10.0302L70.8813 9.71322C71.4082 9.75321 71.9422 9.80421 72.4681 9.8642L72.4321 10.1802ZM64.5328 10.0132L64.5098 9.69622C65.0378 9.65922 65.5727 9.63122 66.1017 9.61323L66.1127 9.9312C65.5847 9.9452 65.0528 9.9732 64.5298 10.0092L64.5328 10.0132ZM69.2764 9.93819C68.7525 9.91819 68.2205 9.9072 67.6945 9.9052V9.58322C68.2245 9.58322 68.7605 9.59523 69.2884 9.61622L69.2764 9.93819Z" fill="#F7F7F7"/>
<path d="M66.5077 20.7143C68.1335 20.654 69.7542 20.93 71.2683 21.5252C72.7825 22.1203 74.1574 23.0218 75.307 24.173C76.3885 25.2129 77.2481 26.4613 77.8338 27.8427C78.4195 29.2241 78.7191 30.7099 78.7147 32.2103C78.7285 33.5976 78.4605 34.9733 77.9267 36.2539C77.4955 37.348 76.8464 38.3431 76.0189 39.1787C75.3232 39.851 74.5652 40.4556 73.7551 40.9845C73.1523 41.3894 72.5137 41.7382 71.8473 42.0264L71.0333 42.2804C71.0333 42.8574 71.0073 49.5938 70.9563 49.8988C70.8807 50.2598 70.7241 50.5989 70.4984 50.8907C70.1783 51.2877 69.7275 51.5581 69.2265 51.6536C68.4504 51.8252 67.6563 51.9021 66.8617 51.8826C66.0652 51.9047 65.2694 51.8189 64.4959 51.6276C63.9826 51.5158 63.5346 51.2052 63.25 50.7637C63.0401 50.4286 62.8937 50.0578 62.818 49.6698C62.767 49.3478 62.742 42.5524 62.742 41.8705C62.7451 41.8105 62.7535 41.7509 62.767 41.6925C62.7828 41.6171 62.7912 41.5404 62.792 41.4635C62.7582 40.833 62.851 40.2021 63.065 39.6081C63.279 39.014 63.6098 38.4689 64.0379 38.0048C64.7789 37.212 65.7187 36.6323 66.7597 36.3259C67.7484 36.052 68.6731 35.585 69.4805 34.952C69.8777 34.6599 70.1985 34.2762 70.4156 33.8335C70.6327 33.3908 70.7396 32.9022 70.7273 32.4093C70.76 31.9275 70.6933 31.4441 70.5315 30.9892C70.3696 30.5342 70.116 30.1174 69.7864 29.7645C68.8477 29.056 67.6757 28.7288 66.5057 28.8486C65.6935 28.8124 64.8885 29.0159 64.1909 29.4335C63.704 29.7019 63.3194 30.1238 63.097 30.6334L62.944 31.2434C62.7204 31.9754 62.3578 32.6574 61.8761 33.2522C61.6558 33.4865 61.3866 33.6695 61.0876 33.7882C60.7887 33.9069 60.4673 33.9584 60.1463 33.9391C59.4466 33.9059 58.7581 33.7513 58.1114 33.4822C57.1408 33.154 56.2374 32.6534 55.4447 32.0043C55.2187 31.8073 55.0363 31.5653 54.9092 31.2938C54.7821 31.0223 54.7132 30.7272 54.7067 30.4274C54.7708 29.82 54.9074 29.2225 55.1137 28.6476L55.2137 28.3936C55.2803 28.1896 55.382 27.9096 55.5187 27.5537C55.824 26.9017 56.1903 26.28 56.6126 25.6968C57.1874 24.8392 57.8737 24.0618 58.6534 23.385C59.6237 22.6039 60.7145 21.9855 61.8831 21.5542C63.3562 20.9792 64.9265 20.694 66.5077 20.7143ZM66.7617 53.7444C68.5922 53.7444 69.8638 54.1004 70.5764 54.8123C71.1863 55.4229 71.4913 56.6775 71.4913 58.576C71.5025 59.1796 71.4691 59.7832 71.3913 60.3819C71.2969 60.8801 71.1252 61.3605 70.8823 61.8057C70.7293 62.0809 70.5218 62.322 70.2725 62.5144C70.0233 62.7067 69.7374 62.8463 69.4325 62.9246C68.5468 63.1702 67.6294 63.2817 66.7107 63.2556C65.3349 63.3829 63.96 63.0028 62.845 62.1867C62.1841 61.3534 61.8742 60.2952 61.9811 59.237V58.423C61.9722 57.8284 61.9976 57.2338 62.0571 56.6422C62.1359 56.1511 62.2993 55.6775 62.5401 55.2423C62.8524 54.6835 63.3739 54.2717 63.9899 54.0974C64.8893 53.8334 65.8249 53.7143 66.7617 53.7444Z" fill="white"/>
<path d="M114.727 22.8571C115.943 22.812 117.155 23.0186 118.288 23.4639C119.421 23.9092 120.449 24.5836 121.309 25.4448C122.118 26.2227 122.761 27.1564 123.199 28.1897C123.637 29.2229 123.861 30.3341 123.858 31.4563C123.868 32.4941 123.668 33.5231 123.269 34.4811C122.946 35.2996 122.46 36.044 121.841 36.6689C121.321 37.1718 120.754 37.6241 120.148 38.0198C119.697 38.3229 119.22 38.5839 118.721 38.7997L118.112 38.9897C118.112 39.4216 118.093 44.4602 118.054 44.6892C117.998 44.9592 117.881 45.2129 117.712 45.4311C117.473 45.728 117.136 45.9303 116.761 46.0021C116.18 46.1302 115.586 46.1876 114.991 46.1731C114.396 46.1899 113.801 46.126 113.223 45.9831C112.839 45.8993 112.504 45.6671 112.291 45.3371C112.134 45.0865 112.025 44.8093 111.968 44.5192C111.93 44.2782 111.911 39.1947 111.911 38.6867C111.913 38.6419 111.92 38.5974 111.93 38.5537C111.942 38.4975 111.948 38.4402 111.949 38.3827C111.924 37.911 111.993 37.439 112.153 36.9946C112.313 36.5502 112.56 36.1423 112.881 35.795C113.435 35.2019 114.138 34.7682 114.916 34.5391C115.656 34.334 116.348 33.9847 116.951 33.5112C117.248 33.293 117.488 33.0063 117.651 32.6755C117.813 32.3448 117.893 31.9797 117.884 31.6113C117.909 31.2511 117.86 30.8897 117.74 30.5493C117.619 30.2089 117.43 29.8969 117.184 29.6325C116.482 29.1026 115.606 28.8579 114.731 28.9476C114.123 28.9201 113.521 29.0721 112.999 29.3845C112.635 29.5845 112.348 29.8987 112.181 30.2784L112.067 30.7354C111.899 31.282 111.627 31.7912 111.267 32.2353C111.102 32.4105 110.901 32.5474 110.677 32.6362C110.453 32.725 110.213 32.7636 109.973 32.7492C109.45 32.7243 108.935 32.6086 108.451 32.4073C107.724 32.1639 107.046 31.7913 106.451 31.3073C106.282 31.1599 106.146 30.9789 106.051 30.7757C105.956 30.5725 105.904 30.3517 105.899 30.1274C105.946 29.6731 106.046 29.2259 106.199 28.7956L106.275 28.6056C106.326 28.4529 106.402 28.2436 106.503 27.9776C106.731 27.4899 107.005 27.0249 107.321 26.5888C107.75 25.9469 108.261 25.3649 108.843 24.8579C109.569 24.2733 110.385 23.8106 111.26 23.488C112.364 23.056 113.541 22.8418 114.727 22.8571ZM114.916 47.5649C115.935 47.4563 116.957 47.7426 117.77 48.3649C118.332 49.1894 118.576 50.19 118.455 51.1806C118.463 51.6322 118.438 52.0837 118.379 52.5315C118.309 52.9045 118.18 53.2641 117.998 53.5974C117.884 53.8033 117.728 53.9837 117.542 54.1276C117.355 54.2715 117.142 54.3759 116.913 54.4344C116.251 54.6186 115.565 54.7022 114.877 54.6823C113.848 54.7776 112.82 54.4931 111.986 53.8824C111.491 53.2591 111.259 52.4674 111.339 51.6756V51.0666C111.332 50.622 111.351 50.1773 111.396 49.7348C111.455 49.3675 111.577 49.0132 111.758 48.6879C111.873 48.4808 112.028 48.2987 112.214 48.1518C112.4 48.0049 112.614 47.8962 112.842 47.8319C113.514 47.6334 114.214 47.5433 114.915 47.5649H114.916Z" fill="white"/>
<g style="mix-blend-mode:multiply">
<path d="M27.3971 43.2173C27.4098 43.5086 27.4268 43.8006 27.4481 44.0932C27.6181 46.417 28.0652 48.7121 28.78 50.9297C31.5457 53.6154 36.4313 56.5922 42.6478 53.0795C38.8481 53.6254 37.2682 50.6967 37.0083 47.406C45.8345 43.8713 51.728 35.9439 51.0871 27.1977C50.7309 22.7903 48.8029 18.6575 45.6545 15.5527C34.9684 21.5802 27.8631 31.8183 27.3971 43.2173Z" fill="#77DBDB"/>
</g>
<path d="M48.2263 22.8231C49.0492 34.0561 39.0961 43.9403 25.9952 44.9002C12.8943 45.8601 1.6053 37.5328 0.782369 26.3018C-0.0405602 15.0708 9.91258 5.18561 23.0135 4.22469C36.1143 3.26377 47.4034 11.5901 48.2263 22.8231Z" fill="#F47D31"/>
<path d="M7.94974 29.5115C7.17081 18.8824 15.8311 9.58422 27.2941 8.74429C36.3503 8.08135 44.4406 12.8969 47.8253 20.1903C45.5785 10.3212 35.0664 3.34076 23.0134 4.22368C9.91457 5.1836 -0.0405689 15.0677 0.78236 26.3008C1.40831 34.845 8.09073 41.6995 17.019 44.0763C14.46 42.5424 12.3028 40.4215 10.7258 37.8889C9.14875 35.3563 8.19719 32.4847 7.94974 29.5115Z" fill="#FFA368"/>
<path d="M23.3964 43.5013C23.3964 43.5013 29.9189 54.2824 39.787 48.7009C34.0275 49.5278 33.3716 42.3864 34.6674 38.0838L23.3964 43.5013Z" fill="#F47D31"/>
<path d="M25.4963 44.7203C25.2963 44.4873 25.1423 44.2973 25.0383 44.1653C24.7983 44.1746 24.559 44.1809 24.3203 44.1843V43.8663C24.5823 43.8629 24.8456 43.8556 25.1103 43.8443H25.1933L25.2433 43.9103C25.3433 44.0383 25.5093 44.2483 25.7433 44.5173L25.4963 44.7203Z" fill="#F7F7F7"/>
<path d="M34.1972 49.5841C33.6228 49.5769 33.0509 49.5082 32.4912 49.3791L32.5622 49.0691C33.0994 49.1943 33.6486 49.2613 34.2002 49.2691L34.1972 49.5841ZM30.8642 48.8431C30.3405 48.6162 29.8338 48.3519 29.3482 48.0521L29.5152 47.7811C29.9873 48.0726 30.4799 48.3296 30.9892 48.5501L30.8642 48.8431ZM27.9512 47.0741C27.5172 46.7321 27.0852 46.3551 26.6682 45.9541L26.8882 45.7251C27.2982 46.1191 27.7222 46.4891 28.1482 46.8251L27.9512 47.0741Z" fill="#F7F7F7"/>
<path d="M35.9113 49.4008L35.8413 49.0909C35.9263 49.0719 36.0113 49.0508 36.0963 49.0278C36.0029 48.9895 35.9114 48.9464 35.8223 48.8988L35.9723 48.6189C36.1922 48.7375 36.4279 48.8241 36.6723 48.8759L37.2463 48.9939L36.6913 49.1819C36.4353 49.2684 36.175 49.3415 35.9113 49.4008Z" fill="#F7F7F7"/>
<path d="M34.7776 48.0582C34.4844 47.7257 34.2298 47.361 34.0186 46.9712L34.2966 46.8172C34.4963 47.1859 34.7372 47.5308 35.0146 47.8452L34.7776 48.0582ZM33.4826 45.7672C33.3368 45.3537 33.2196 44.9307 33.1316 44.5012L33.4436 44.4372C33.5287 44.8524 33.6419 45.2614 33.7826 45.6612L33.4826 45.7672Z" fill="#F7F7F7"/>
<path d="M32.9536 43.1954C32.9356 42.9214 32.9306 42.6494 32.9386 42.3864V42.2794L33.0386 42.2414C33.2859 42.1488 33.5309 42.0521 33.7736 41.9514L33.8946 42.2454C33.6812 42.3334 33.4666 42.4184 33.2506 42.5004C33.2506 42.7204 33.2506 42.9464 33.2676 43.1734L32.9536 43.1954Z" fill="#F7F7F7"/>
<path d="M22.6846 44.1553C22.1576 44.1293 21.6267 44.0874 21.1057 44.0294L21.1407 43.7134C21.6547 43.7704 22.1796 43.8134 22.6996 43.8384L22.6846 44.1553ZM19.5378 43.8064C19.0189 43.7164 18.4969 43.6064 17.987 43.4854L18.061 43.1764C18.5609 43.2974 19.0799 43.4044 19.5918 43.4934L19.5378 43.8064ZM16.4591 43.0664C15.9592 42.9104 15.4512 42.7365 14.9592 42.5485L15.0732 42.2485C15.5562 42.4335 16.0531 42.6055 16.5511 42.7595L16.4591 43.0664ZM13.5014 41.9335C13.0224 41.7116 12.5454 41.4716 12.0865 41.2196L12.2395 40.9406C12.6924 41.1896 13.1624 41.4256 13.6394 41.6406L13.5014 41.9335ZM35.3435 41.5946L35.2035 41.3086C35.6725 41.0786 36.1364 40.8316 36.5834 40.5747L36.7424 40.8506C36.2884 41.1106 35.8184 41.3616 35.3435 41.5946ZM10.7236 40.4097C10.2786 40.1227 9.84068 39.8177 9.42372 39.5027L9.6147 39.2488C10.0267 39.5587 10.4576 39.8597 10.8966 40.1417L10.7236 40.4097ZM38.0882 40.0097L37.9123 39.7457C38.3442 39.4567 38.7712 39.1458 39.1811 38.8328L39.3751 39.0838C38.9602 39.4098 38.5272 39.7207 38.0882 40.0137V40.0097ZM8.19082 38.4978C7.79086 38.1479 7.40589 37.7799 7.04192 37.4049L7.2699 37.183C7.62887 37.5519 8.00984 37.9149 8.4018 38.2588L8.19082 38.4978ZM40.588 38.0709L40.376 37.8339C40.766 37.4849 41.145 37.121 41.5019 36.75L41.7309 36.971C41.374 37.3509 40.99 37.7209 40.594 38.0749L40.588 38.0709ZM5.98401 36.227C5.64704 35.8181 5.32507 35.3921 5.02709 34.9621L5.28807 34.7811C5.58105 35.2041 5.89702 35.6231 6.22899 36.025L5.98401 36.227ZM42.7938 35.7921L42.5489 35.5921C42.8818 35.1921 43.2008 34.7732 43.4968 34.3502L43.7568 34.5332C43.4568 34.9601 43.1308 35.3871 42.7938 35.7921ZM4.18317 33.6183C3.92119 33.1573 3.67821 32.6823 3.46123 32.2044L3.75021 32.0734C3.96319 32.5424 4.20117 33.0093 4.45914 33.4613L4.18317 33.6183ZM44.6167 33.1963L44.3427 33.0353C44.6057 32.5863 44.8527 32.1224 45.0746 31.6564L45.3616 31.7934C45.1316 32.2674 44.8847 32.7393 44.6167 33.1963ZM2.87228 30.7305C2.6993 30.2305 2.54731 29.7176 2.42232 29.2066L2.73129 29.1316C2.85328 29.6316 3.00227 30.1316 3.17225 30.6265L2.87228 30.7305ZM45.9816 30.3305L45.6816 30.2195C45.8636 29.7336 46.0236 29.2336 46.1595 28.7357L46.4665 28.8187C46.3315 29.3286 46.1665 29.8366 45.9816 30.3325V30.3305ZM2.11835 27.6478C2.06035 27.2478 2.01835 26.8408 1.98636 26.4389C1.97636 26.3149 1.96936 26.1909 1.96336 26.0679L2.28133 26.0519C2.28733 26.1732 2.295 26.2946 2.30433 26.4159C2.33333 26.8158 2.37732 27.2098 2.43432 27.6018L2.11835 27.6478ZM46.8145 27.2718L46.5015 27.2168C46.5905 26.7058 46.6565 26.1859 46.7015 25.6709L47.0185 25.6959C46.9735 26.2209 46.9055 26.7508 46.8145 27.2718ZM2.27433 24.488L1.95636 24.474C1.97936 23.9471 2.02735 23.4151 2.09935 22.8932L2.41432 22.9362C2.34333 23.4541 2.29633 23.9761 2.27433 24.488ZM46.7465 24.1081C46.7415 23.7931 46.7275 23.4731 46.7045 23.1562C46.6898 22.9562 46.6715 22.7562 46.6495 22.5562L46.9655 22.5212C46.9875 22.7252 47.0061 22.9302 47.0215 23.1362C47.0455 23.4591 47.0595 23.7861 47.0645 24.1061L46.7465 24.1081ZM2.7003 21.4083L2.39132 21.3353C2.51131 20.8234 2.6583 20.3094 2.82628 19.8084L3.12626 19.9084C2.96227 20.4034 2.81828 20.9084 2.7003 21.4103V21.4083ZM46.4055 21.0173C46.3055 20.5114 46.1705 20.0034 46.0186 19.5085L46.3185 19.4155C46.4735 19.9154 46.6065 20.4374 46.7135 20.9533L46.4055 21.0173ZM3.68721 18.4546L3.39624 18.3276C3.60622 17.8476 3.8412 17.3677 4.09617 16.9017L4.37515 17.0537C4.12517 17.5136 3.89319 17.9886 3.68721 18.4566V18.4546ZM45.4906 18.0416C45.2906 17.5646 45.0716 17.0897 44.8297 16.6297L45.1116 16.4817C45.3576 16.9507 45.5836 17.4346 45.7846 17.9196L45.4906 18.0416ZM5.17708 15.7148L4.9111 15.5398C5.19908 15.1028 5.51105 14.6689 5.83602 14.2509L6.087 14.4509C5.76603 14.8599 5.46006 15.2888 5.17708 15.7168V15.7148ZM44.0447 15.2838C43.7657 14.8509 43.4628 14.4219 43.1448 14.0109L43.3958 13.817C43.7198 14.2359 44.0277 14.6719 44.3117 15.1168L44.0447 15.2838ZM7.09392 13.253L6.85893 13.039C7.2119 12.6511 7.58587 12.2711 7.96984 11.9081L8.18782 12.1391C7.80986 12.4981 7.44189 12.873 7.09392 13.255V13.253ZM42.1419 12.817C41.7939 12.4361 41.424 12.0631 41.042 11.7081L41.259 11.4752C41.6459 11.8361 42.0219 12.2151 42.3759 12.6021L42.1419 12.817ZM9.36272 11.1072L9.16274 10.8612C9.5677 10.5302 9.99167 10.2073 10.4246 9.9023L10.6076 10.1613C10.1796 10.4643 9.76069 10.7832 9.36172 11.1092L9.36272 11.1072ZM39.8601 10.6872C39.4601 10.3653 39.0342 10.0533 38.6042 9.75831L38.7832 9.49633C39.2201 9.79631 39.6491 10.1123 40.0581 10.4393L39.8601 10.6872ZM11.9115 9.30235L11.7455 9.03137C12.1915 8.75939 12.6554 8.49742 13.1254 8.25244L13.2724 8.53441C12.8104 8.77839 12.3525 9.03737 11.9125 9.30535L11.9115 9.30235ZM37.2833 8.92338C36.8384 8.6634 36.3754 8.41442 35.9064 8.18344L36.0474 7.89847C36.5224 8.13345 36.9923 8.38543 37.4473 8.64941L37.2833 8.92338ZM14.6853 7.85548L14.5563 7.5645C15.0362 7.35252 15.5312 7.15254 16.0251 6.97055L16.1341 7.27052C15.6442 7.4515 15.1562 7.64849 14.6823 7.85847L14.6853 7.85548ZM34.4836 7.5395C34.0056 7.33952 33.5136 7.15853 33.0187 6.99254L33.1187 6.69257C33.6186 6.86156 34.1186 7.04754 34.6025 7.24753L34.4836 7.5395ZM17.617 6.77557L17.526 6.47559C18.026 6.3256 18.5439 6.18962 19.0569 6.07063L19.1289 6.3806C18.6209 6.49659 18.113 6.63158 17.616 6.77957L17.617 6.77557ZM31.5218 6.54159C31.0219 6.4086 30.5099 6.2896 29.9979 6.18761L30.0599 5.87564C30.5779 5.97564 31.0968 6.09963 31.6028 6.23361L31.5218 6.54159ZM20.6637 6.06863L20.6108 5.75565C21.1267 5.66866 21.6547 5.59567 22.1786 5.53868L22.2126 5.85464C21.6937 5.91464 21.1727 5.98963 20.6627 6.07263L20.6637 6.06863ZM28.4561 5.93064C27.9411 5.86165 27.4182 5.80765 26.9002 5.76965L26.9232 5.45268C27.4472 5.49068 27.9781 5.54467 28.4991 5.61566L28.4561 5.93064ZM23.7735 5.73066L23.7585 5.41269C24.1924 5.39169 24.6324 5.38268 25.0654 5.38168H25.3413V5.69966H25.0414C24.6144 5.70666 24.1904 5.71666 23.7715 5.73666L23.7735 5.73066Z" fill="#F7F7F7"/>
<path d="M24.3853 12.206C25.3298 12.171 26.2713 12.3315 27.1509 12.6773C28.0305 13.0231 28.8292 13.5469 29.4969 14.2158C30.1252 14.8197 30.6246 15.5446 30.9648 16.3468C31.3051 17.1491 31.4793 18.012 31.4767 18.8834C31.485 19.6892 31.3296 20.4883 31.0197 21.2322C30.7694 21.868 30.3925 22.4463 29.9118 22.9321C29.5078 23.3226 29.0675 23.6738 28.5969 23.981C28.247 24.2165 27.8761 24.4193 27.489 24.5869L27.0171 24.7349C27.0171 25.0699 27.0021 28.9825 26.9721 29.1605C26.9284 29.3703 26.8374 29.5672 26.7061 29.7365C26.5202 29.9674 26.2583 30.1247 25.9672 30.1804C25.5162 30.28 25.0549 30.3246 24.5933 30.3134C24.1298 30.3242 23.6669 30.272 23.2174 30.1584C22.9195 30.094 22.6592 29.9143 22.4935 29.6585C22.3712 29.4638 22.2861 29.2482 22.2425 29.0226C22.2125 28.8356 22.1975 24.8879 22.1975 24.4939C22.1996 24.4602 22.2046 24.4268 22.2125 24.3939C22.2219 24.3502 22.2269 24.3057 22.2275 24.261C22.2079 23.8946 22.2618 23.528 22.3862 23.1828C22.5105 22.8376 22.7027 22.5208 22.9514 22.2511C23.3819 21.7908 23.9277 21.4542 24.5323 21.2762C25.1066 21.1165 25.6435 20.8446 26.1122 20.4763C26.3428 20.3066 26.529 20.0837 26.6551 19.8265C26.7811 19.5694 26.8432 19.2857 26.8361 18.9994C26.855 18.7194 26.8163 18.4386 26.7222 18.1742C26.6281 17.9098 26.4807 17.6676 26.2891 17.4626C25.7438 17.051 25.063 16.8609 24.3833 16.9306C23.9114 16.9095 23.4437 17.0278 23.0384 17.2706C22.7563 17.4259 22.5332 17.6697 22.4035 17.9645L22.3145 18.3185C22.1847 18.7436 21.9742 19.1398 21.6945 19.4854C21.5671 19.6209 21.4116 19.7269 21.2389 19.796C21.0661 19.8651 20.8804 19.8956 20.6946 19.8853C20.2882 19.8659 19.8883 19.7759 19.5127 19.6194C18.9484 19.4295 18.423 19.1392 17.9619 18.7624C17.8305 18.648 17.7246 18.5075 17.6507 18.3498C17.5768 18.192 17.5367 18.0206 17.5329 17.8465C17.5701 17.4937 17.6493 17.1466 17.7689 16.8126L17.8279 16.6646C17.8669 16.5456 17.9279 16.3836 18.0049 16.1767C18.1819 15.7981 18.3945 15.4371 18.6398 15.0988C18.9716 14.6024 19.3677 14.1522 19.8177 13.7599C20.3816 13.3059 21.0154 12.9466 21.6945 12.696C22.5515 12.3608 23.4652 12.1944 24.3853 12.206ZM24.5333 31.3923C25.3241 31.3071 26.1174 31.529 26.7491 32.0123C27.1857 32.6523 27.3747 33.4291 27.2811 34.1981C27.2873 34.5487 27.2675 34.8993 27.2221 35.247C27.1658 35.5366 27.0646 35.8156 26.9221 36.0739C26.833 36.2338 26.7124 36.3738 26.5674 36.4856C26.4225 36.5973 26.2564 36.6784 26.0792 36.7239C25.5648 36.8667 25.0319 36.9314 24.4983 36.9159C23.699 36.9898 22.9003 36.769 22.2525 36.2949C21.8694 35.8104 21.69 35.1956 21.7525 34.5811V34.1091C21.7473 33.7639 21.762 33.4187 21.7965 33.0752C21.8426 32.7901 21.9377 32.515 22.0775 32.2623C22.1673 32.1017 22.2879 31.9604 22.4324 31.8465C22.5769 31.7326 22.7424 31.6482 22.9194 31.5983C23.443 31.4442 23.9878 31.3747 24.5333 31.3923Z" fill="white"/>
<path d="M63.9909 4.1017C65.2388 4.00971 66.5017 3.96371 67.7456 3.96371C83.9532 3.96371 98.188 11.856 105.307 23.493L105.871 23.0851C103.559 19.3182 100.605 15.9855 97.1431 13.2379C88.7471 6.70412 78.3837 3.21051 67.7456 3.32776C66.4867 3.32776 65.2078 3.37476 63.9459 3.46775C56.7718 3.96766 49.7918 6.01979 43.4887 9.48223L43.9517 9.95219C50.1344 6.587 56.9688 4.59167 63.9909 4.1017Z" fill="#F47D31"/>
<path d="M98.495 9.74621C91.2385 4.06482 82.4539 0.674211 73.2622 0.00704956L73.1962 0.645994C82.6359 1.35079 91.6222 4.97655 98.9079 11.0201L99.3569 10.4672C99.0719 10.2202 98.789 9.9772 98.495 9.74621Z" fill="#F47D31"/>
<path d="M30.3788 62.2017L29.8549 62.6887C31.7329 65.1006 33.8893 67.2822 36.2793 69.1881C41.51 73.3242 47.5928 76.2489 54.0898 77.7514L54.2748 77.1144C44.8562 74.9791 36.4355 69.724 30.3788 62.2017Z" fill="#F47D31"/>
<path d="M23.7224 58.783L23.1055 59.157C24.0822 60.818 25.179 62.4054 26.3872 63.9065C28.7679 66.8573 31.5244 69.4841 34.5865 71.7199L35.0144 71.1699C30.4571 67.8408 26.6168 63.6281 23.7224 58.783Z" fill="#F47D31"/>
</g>
<defs>
<clipPath id="clip0_3_1433">
<rect width="143.516" height="92.449" fill="white" transform="translate(0.734375 0.00204468)"/>
</clipPath>
</defs>
</svg>
