<svg width="130" height="105" viewBox="0 0 130 105" fill="none" xmlns="http://www.w3.org/2000/svg">
<g clip-path="url(#clip0_2_886)">
<path opacity="0.4" d="M113.881 43.1296C116.668 47.0931 118.82 52.4862 117.327 57.4645C115.839 62.4268 111.08 65.4874 109 70.2007C107.824 72.8653 107.794 75.7938 107.749 78.6544C107.691 82.3978 108.421 86.3733 105.892 89.5368C104.285 91.3346 102.185 92.621 99.8537 93.2363C95.2674 94.6951 90.4631 95.3799 86.3897 98.1355C79.6977 102.662 71.4788 104.245 63.503 103.756C59.4545 103.495 55.4506 102.759 51.5737 101.564C47.0744 100.19 43.075 97.7586 38.5397 96.4558C30.6849 94.1981 19.9424 94.1671 15.3431 86.2203C12.2436 80.8701 11.1767 74.2561 13.5834 68.4229C14.7282 65.6513 16.9129 63.5336 18.1577 60.812C19.9245 57.0523 20.2929 52.7857 19.1966 48.7788C19.1486 48.6148 19.0989 48.4512 19.0475 48.2879C17.8477 44.5534 15.4311 41.3429 14.4322 37.5415C12.3695 29.6936 16.9319 21.3948 22.919 16.3506C25.3521 14.2251 28.1688 12.5839 31.2177 11.5153C39.5745 8.77168 48.8592 11.9472 57.2419 9.29362C63.672 7.25791 68.9512 1.96666 75.5033 0.436887C78.0455 -0.110103 80.6747 -0.11195 83.2177 0.431455C85.7606 0.97486 88.1595 2.05119 90.2561 3.58944C94.607 6.84971 97.7117 11.5002 99.0548 16.7685C100.366 21.6768 100.325 27.067 102.654 31.5253C104.643 35.3398 108.329 37.3975 111.323 40.1651C112.277 41.0608 113.134 42.0545 113.881 43.1296Z" fill="#F59253"/>
<path d="M40.8933 80.4802C42.6923 81.1554 44.6193 81.4209 46.5338 81.2575C48.4484 81.094 50.3023 80.5057 51.9608 79.5353C55.1373 77.4976 58.0318 76.0259 61.9403 76.0968C65.4328 76.1608 68.3212 78.0486 71.7037 78.4505C73.054 78.559 74.4118 78.3713 75.6819 77.9003C76.952 77.4293 78.1036 76.6865 79.0566 75.7239C80.9564 73.8921 82.2152 71.1005 81.3893 68.5959C80.9574 67.2841 80.0125 66.2023 79.4736 64.9305C78.2308 61.998 81.5043 60.2311 80.6895 57.1426C79.9976 54.518 77.117 52.6433 77.1599 49.9306C77.1919 47.9439 78.7298 46.4032 79.2717 44.5655C79.5605 43.6388 79.6618 42.6638 79.5693 41.6976C79.4767 40.7314 79.1922 39.7933 78.7327 38.9382C78.0103 37.6793 76.8998 36.6881 75.5672 36.1127C74.3833 35.6128 73.0597 35.5987 72.1438 34.5639C70.5121 32.7202 69.9132 30.7206 67.6745 29.3728C65.7748 28.2309 63.275 28.1589 61.1003 28.3579C58.667 28.5658 56.3093 29.3056 54.1934 30.5251C52.0774 31.7445 50.2551 33.4137 48.8553 35.4148C47.8471 36.7549 47.2602 38.3646 47.1695 40.0392C47.1435 41.9099 47.1434 43.7916 45.9975 45.3824C44.9372 46.654 43.5365 47.597 41.9593 48.101C40.3895 48.5996 38.8848 49.2844 37.4778 50.1407C36.7779 50.578 36.2028 51.1884 35.8076 51.913C35.4125 52.6376 35.2109 53.4518 35.2223 54.2771C35.3533 55.6489 36.3021 56.8396 36.4291 58.2114C36.6581 60.706 34.2554 62.5178 32.7746 64.5375C31.7524 65.97 31.1334 67.6507 30.9827 69.4041C30.8319 71.1575 31.1548 72.9191 31.9176 74.505C33.7173 78.1205 36.9799 78.9364 40.4024 80.2972C40.5654 80.3601 40.7293 80.4222 40.8933 80.4802Z" fill="#0B2D4E"/>
<path d="M49.6201 63.9086C49.4941 66.9742 50.2042 69.2759 53.0078 70.7917C55.3024 71.9096 57.8251 72.4795 60.3775 72.4565C64.5099 72.5564 69.1143 71.4924 72.2059 68.5898C72.8183 68.111 73.2256 67.4173 73.3456 66.6492C73.3826 65.9493 72.9978 65.2925 72.9648 64.5936C72.9078 63.4158 73.8237 62.4389 74.2336 61.3331C74.6427 59.8164 74.5325 58.2066 73.9207 56.7598C73.3092 55.3235 72.9633 53.788 72.8999 52.2282C72.9948 50.2095 74.2074 48.4469 75.1793 46.6741C76.1512 44.9014 76.9151 42.7457 76.0852 40.903C75.7874 40.2852 75.3404 39.7513 74.7843 39.3497C74.2283 38.9482 73.581 38.6917 72.9008 38.6033C71.493 38.4473 70.2271 40.0562 69.3252 40.943C68.1102 42.1371 66.7611 43.1865 65.3048 44.0705C63.2931 45.2913 61.0834 46.1922 59.1907 47.591C57.9394 48.4345 56.9323 49.5926 56.2702 50.9486C55.6543 52.4684 56.7331 53.9391 55.4283 55.3369C54.5864 56.2368 53.2945 56.5457 52.2767 57.2426C50.097 58.7374 49.7201 61.489 49.6201 63.9086Z" fill="#061F33"/>
<path d="M72.4447 81.0588C69.5451 76.5885 67.7374 71.1005 70.259 66.0523C70.4508 65.5076 70.8476 65.0592 71.3649 64.8024C72.6535 64.5118 74.0047 64.736 75.1303 65.4274C78.6508 67.493 80.8055 71.3793 82.7822 74.8378C84.8369 78.4303 86.6216 82.1709 88.6863 85.7583C89.5837 87.1766 90.2992 88.702 90.816 90.2987C91.2482 91.7457 91.2132 93.292 90.7161 94.718C88.3984 100.704 82.0243 93.3712 80.0846 91.1565C77.3003 87.9772 74.7472 84.6026 72.4447 81.0588Z" fill="#F59253"/>
<path d="M46.1875 76.0587C45.3536 72.5273 44.9207 68.9138 46.8115 66.5091C47.8163 65.4452 49.0551 64.63 50.4298 64.1284C52.8565 63.0795 55.3382 61.6687 57.9368 61.2118C60.7393 60.5963 63.6387 60.5658 66.4536 61.122C68.1761 61.6091 69.8263 62.323 71.3608 63.2447C72.7066 64.0036 74.3603 64.6565 75.0102 66.0683C76.6021 69.508 77.989 73.039 79.1636 76.6426C80.1385 79.6422 81.2084 82.7858 79.6726 85.8244C79.1727 86.8092 78.4518 87.6519 77.8818 88.5938C77.2938 89.5758 76.9657 90.6915 76.9281 91.8355C76.7381 94.5941 76.812 97.3615 76.82 100.123C76.8802 100.92 76.7582 101.72 76.4631 102.463C75.7762 103.875 73.9086 103.894 72.5638 103.892L59.2657 103.869C57.5873 103.877 55.915 104.072 54.2794 104.448C53.5919 104.585 52.8782 104.482 52.2577 104.156C51.6372 103.829 51.1476 103.3 50.8709 102.656C50.3129 101.319 50.0461 99.8779 50.0881 98.4295C49.8114 92.812 49.0159 87.2319 47.7122 81.7608C47.3373 80.211 46.6905 78.1864 46.1875 76.0587Z" fill="#F47D31"/>
<mask id="mask0_2_886" style="mask-type:luminance" maskUnits="userSpaceOnUse" x="45" y="60" width="36" height="45">
<path d="M46.1875 76.0587C45.3536 72.5273 44.9207 68.9138 46.8115 66.5091C47.8163 65.4452 49.0551 64.63 50.4298 64.1284C52.8565 63.0795 55.3382 61.6687 57.9368 61.2118C60.7393 60.5963 63.6387 60.5658 66.4536 61.122C68.1761 61.6091 69.8263 62.323 71.3608 63.2447C72.7066 64.0036 74.3603 64.6565 75.0102 66.0683C76.6021 69.508 77.989 73.039 79.1636 76.6426C80.1385 79.6422 81.2084 82.7858 79.6726 85.8244C79.1727 86.8092 78.4518 87.6519 77.8818 88.5938C77.2938 89.5758 76.9657 90.6915 76.9281 91.8355C76.7381 94.5941 76.812 97.3615 76.82 100.123C76.8802 100.92 76.7582 101.72 76.4631 102.463C75.7762 103.875 73.9086 103.894 72.5638 103.892L59.2657 103.869C57.5873 103.877 55.915 104.072 54.2794 104.448C53.5919 104.585 52.8782 104.482 52.2577 104.156C51.6372 103.829 51.1476 103.3 50.8709 102.656C50.3129 101.319 50.0461 99.8779 50.0881 98.4295C49.8114 92.812 49.0159 87.2319 47.7122 81.7608C47.3373 80.211 46.6905 78.1864 46.1875 76.0587Z" fill="white"/>
</mask>
<g mask="url(#mask0_2_886)">
<path d="M56.4581 65.7852C55.8824 64.9531 55.5813 63.9621 55.5967 62.9504C55.6121 61.9387 55.9433 60.9573 56.544 60.1432C56.9011 59.8135 57.325 59.5643 57.7868 59.4128C58.2486 59.2614 58.7377 59.2109 59.2207 59.2651C61.0842 59.2306 62.9449 59.4279 64.7599 59.8522C66.4876 60.2522 68.2494 60.9401 68.9973 62.6848C69.2571 63.3298 69.3591 64.0275 69.2946 64.7199C69.2301 65.4123 69.0008 66.0793 68.6263 66.6652C67.9476 67.7513 66.8711 68.5289 65.6267 68.8318C63.5648 69.341 61.3965 69.206 59.4137 68.4449C58.1746 67.8893 57.1409 66.959 56.4581 65.7852Z" fill="#F59253"/>
<path d="M44.6169 92.2485C44.6309 89.5409 44.6446 86.8329 44.6579 84.1247C44.6579 83.1818 44.0509 77.4437 45.5167 77.5097C45.6751 77.5273 45.8251 77.5903 45.9488 77.6908C46.6283 78.2838 47.1291 79.0544 47.3946 79.9163C48.4634 82.5159 49.3612 86.6814 51.5849 88.5022C53.8466 90.3529 57.3241 91.1337 60.1347 91.5777C63.4162 92.0966 66.7527 92.1346 70.0692 92.3366C72.2149 92.4676 74.5815 92.7755 75.9902 94.3983C76.9117 95.7104 77.6067 97.1677 78.0461 98.7097C78.516 99.9475 78.8898 101.416 77.937 102.537C77.5049 102.995 76.9803 103.357 76.3981 103.597C74.2966 104.511 72.0797 105.131 69.8093 105.442C63.4786 106.446 57.0588 106.772 50.659 106.413C49.281 106.493 47.9175 106.095 46.7995 105.286C46.0982 104.538 45.6275 103.604 45.4437 102.596C44.7305 99.1959 44.4528 95.7187 44.6169 92.2485Z" fill="#F47D31"/>
</g>
<path d="M74.8593 46.0031C77.279 48.4928 75.0843 54.576 71.2258 53.6951C67.0794 52.7492 67.7034 46.2872 71.4529 45.2264C72.0361 45.0214 72.6655 44.9854 73.2683 45.1229C73.871 45.2603 74.4226 45.5655 74.8593 46.0031Z" fill="#9B87FF"/>
<path d="M41.8313 80.0713C39.3993 80.4585 36.907 80.0969 34.6854 79.0344C33.391 78.3537 32.3122 77.3254 31.5703 76.0651C30.8285 74.8048 30.453 73.3625 30.486 71.9005C30.347 69.6801 30.951 67.4765 32.2028 65.6373C33.6506 63.7256 36.0762 62.5498 36.976 60.3261C37.2972 59.5838 37.4011 58.7657 37.2756 57.9667C37.1501 57.1678 36.8004 56.4209 36.2672 55.8129C35.8782 55.5087 35.5657 55.1176 35.3549 54.6711C35.1442 54.2245 35.0408 53.7349 35.0532 53.2412C35.177 52.4447 35.4694 51.6838 35.911 51.0094C36.3526 50.335 36.9332 49.7627 37.6139 49.3308C39.5707 48.1991 41.7584 47.5257 44.0129 47.3611C45.4976 47.1721 46.9775 46.7551 47.4364 45.1554C47.6189 44.281 47.7012 43.3887 47.6815 42.4957C47.7815 40.605 47.9185 38.7133 48.2014 36.8405C48.66 34.6263 49.8135 32.6164 51.4939 31.1035C51.7186 30.8895 51.9518 30.6849 52.1938 30.4896C56.2262 27.223 63.6921 26.0652 68.1385 29.0897C68.8919 29.5975 69.5375 30.2494 70.0381 31.0077C70.5386 31.766 70.8842 32.6158 71.055 33.5082C71.281 34.715 71.6079 34.9748 72.7867 35.3408C74.9294 36.0057 77.3602 36.4776 79.0609 38.0484C79.7086 38.672 80.2043 39.436 80.5104 40.2813C80.8165 41.1267 80.9247 42.031 80.8265 42.9247C80.6006 45.2044 79.0069 46.2952 77.865 48.102C76.7002 49.9457 77.6159 52.2673 78.9647 53.7891C80.0066 54.9609 81.4855 55.8178 82.0744 57.2716C82.2937 57.9606 82.365 58.6881 82.2838 59.4066C82.2027 60.125 81.9709 60.8182 81.6035 61.4409C81.3385 61.9619 81.0266 62.4598 80.7926 62.9958C80.4409 63.8159 80.276 64.704 80.3095 65.5957C80.3431 66.4875 80.5741 67.3606 80.9864 68.152" stroke="#0B2D4E" stroke-width="14.9978" stroke-miterlimit="10"/>
<path d="M34.9533 83.6037C34.2114 84.9415 33.4783 86.2837 32.7537 87.6302C31.2849 90.3668 28.5542 96.4489 32.9236 97.9517C35.1233 98.7086 36.3821 97.9685 37.8369 96.3657C43.3468 90.2908 48.0256 83.5114 51.7509 76.2049C53.1347 73.4903 56.809 66.4163 52.3507 64.8005C51.6426 64.5488 50.89 64.447 50.1405 64.5018C49.3911 64.5565 48.6612 64.7664 47.9973 65.1184C47.4016 65.4583 46.848 65.8671 46.3476 66.3362C43.2528 69.3206 40.6973 72.8177 38.7938 76.6728C37.525 78.9985 36.2331 81.295 34.9533 83.6037Z" fill="#F59253"/>
<path d="M60.2395 66.6801C59.5929 66.5179 58.9961 66.199 58.5019 65.7516C58.0077 65.3041 57.6314 64.742 57.4059 64.1146C57.0339 62.9228 57.621 61.5829 57.7249 60.38C57.8256 59.2275 57.8384 58.0692 57.763 56.9147C57.6432 55.8377 57.6405 54.7506 57.755 53.673C57.8479 53.0651 58.1819 53.1732 58.7968 52.9283C59.4336 52.7255 60.1025 52.6435 60.7694 52.6863C62.1372 52.6863 65.7027 52.5862 66.5486 53.786C66.878 54.3625 67.03 55.0235 66.9855 55.6859C67.0075 56.4778 67.1485 57.5035 67.2775 58.6083C67.3355 59.1003 67.2996 59.5904 67.3776 60.0793C67.487 60.6257 67.6455 61.161 67.8514 61.6789C68.0449 62.1283 68.144 62.6127 68.1421 63.1021C68.1402 63.5914 68.0374 64.0751 67.8404 64.523C67.6434 64.9709 67.3564 65.3733 66.997 65.7054C66.6376 66.0375 66.2139 66.2923 65.7518 66.4534C63.9913 67.1423 62.0507 67.222 60.2395 66.6801Z" fill="#FFBA99"/>
<path d="M57.761 53.6742C57.854 53.0663 58.188 53.1742 58.8029 52.9292C59.4396 52.7265 60.1086 52.6445 60.7755 52.6873C62.1433 52.6873 65.7088 52.5872 66.5547 53.787C66.884 54.3635 67.0359 55.0245 66.9916 55.6869C67.0136 56.4788 67.1546 57.5045 67.2836 58.6093C67.3415 59.1012 67.3056 59.5914 67.3836 60.0803C67.4595 60.4966 67.574 60.905 67.7256 61.3001C66.3804 61.8021 64.9163 61.8932 63.5192 61.562C61.1473 60.9501 59.099 59.4544 57.794 57.3815C57.787 57.2245 57.783 57.0685 57.773 56.9116C57.652 55.836 57.648 54.7507 57.761 53.6742Z" fill="#FCAA83"/>
<path d="M55.776 45.8653C55.7657 44.1714 56.013 42.4857 56.5091 40.866C58.5368 34.6589 66.2794 33.125 70.9427 37.5804C76.142 42.5496 74.1524 54.431 68.6752 58.6044C67.9365 59.1584 67.0821 59.5388 66.1761 59.7172C65.2701 59.8957 64.3356 59.8676 63.4419 59.6352C58.0617 58.1904 55.742 51.5714 55.776 45.8653Z" fill="#FFBA99"/>
<path d="M55.763 41.124C57.8977 34.5879 66.0507 32.9742 70.961 37.6655C72.0502 38.7413 72.8685 40.0601 73.3486 41.5138C73.2343 41.6921 73.1075 41.8622 72.9695 42.0228C72.2549 42.7704 71.3897 43.3575 70.431 43.7454C67.6686 44.9521 64.7671 45.8119 61.7932 46.3051C61.5752 46.3461 61.3562 46.3861 61.1372 46.4291C60.3205 46.5558 59.5312 46.8198 58.8026 47.21C56.7919 48.3958 57.6569 51.0035 56.1831 52.1463C56.0625 52.2402 55.9273 52.3138 55.7831 52.3643C55.2473 50.4175 54.9824 48.4062 54.9953 46.3871C54.9831 44.6039 55.2419 42.8294 55.763 41.124Z" fill="#FCAA83"/>
<path d="M60.9256 45.6781C60.1395 45.9334 59.4021 46.3199 58.7448 46.821C56.9451 48.3128 58.2178 50.7485 56.945 52.1113C55.8172 53.3191 54.1056 51.7233 53.6577 50.6115C52.9742 48.4979 52.7302 46.2669 52.9407 44.0556C52.9196 42.8192 53.0651 41.5854 53.3735 40.3879C53.8012 39.1046 54.512 37.9341 55.4533 36.9626C56.7985 35.5556 58.4356 34.46 60.2492 33.7529C62.0629 33.0458 64.0092 32.7442 65.9518 32.8692C68.9723 33.0592 74.2727 35.5978 71.904 39.4442C71.3176 40.2959 70.5567 41.0133 69.6722 41.5489C67.1369 43.1789 64.4097 44.4886 61.5525 45.4482C61.3455 45.5302 61.1346 45.6042 60.9256 45.6781Z" fill="#0B2D4E"/>
<path d="M129.62 98.5845H0.645294V104.516H129.62V98.5845Z" fill="white"/>
<path d="M89.5152 95.008H71.1589V98.6015H89.5152V95.008Z" fill="#9B87FF"/>
<path d="M86.3647 95.3569L90.997 71.7725C91.0562 71.4709 91.2181 71.1992 91.4551 71.0036C91.6921 70.8079 91.9895 70.7006 92.2968 70.6996H123.092C123.301 70.6998 123.507 70.7496 123.692 70.8449C123.878 70.9402 124.038 71.078 124.16 71.2474L125.582 72.9293L124.32 72.6522L119.759 95.8729C119.7 96.1745 119.538 96.446 119.301 96.6416C119.064 96.8372 118.766 96.9448 118.459 96.9458H87.6635C87.4673 96.9453 87.2736 96.9014 87.0963 96.8171C86.9191 96.7329 86.7628 96.6102 86.6386 96.4583C86.5144 96.3064 86.4254 96.1288 86.378 95.9384C86.3307 95.7479 86.3261 95.5493 86.3647 95.3569Z" fill="#9B87FF"/>
<path d="M119.873 98.6015H89.0773C88.8814 98.6009 88.6882 98.5569 88.5112 98.4729C88.3343 98.3889 88.1782 98.2667 88.054 98.1153C87.9298 97.9639 87.8406 97.787 87.7928 97.5971C87.745 97.4071 87.7398 97.2088 87.7775 97.0166L92.4098 73.4322C92.4688 73.1305 92.6306 72.8586 92.8677 72.663C93.1047 72.4673 93.4023 72.3601 93.7096 72.3593H124.505C124.701 72.3599 124.894 72.4039 125.071 72.488C125.248 72.572 125.404 72.6939 125.528 72.8453C125.653 72.9968 125.742 73.1739 125.79 73.3638C125.837 73.5537 125.843 73.7519 125.805 73.944L121.173 97.5287C121.113 97.8302 120.951 98.1018 120.714 98.2974C120.477 98.493 120.18 98.6006 119.873 98.6015Z" fill="#201C66"/>
<path d="M110.187 84.897C110.026 85.6893 109.603 86.4042 108.986 86.9268C108.37 87.4494 107.595 87.7492 106.787 87.7779C106.428 87.7915 106.07 87.721 105.743 87.5721C105.416 87.4232 105.128 87.2 104.902 86.9202C104.677 86.6405 104.519 86.312 104.443 85.9608C104.366 85.6095 104.373 85.2453 104.462 84.897C104.629 84.1077 105.054 83.3964 105.669 82.8748C106.285 82.3533 107.056 82.0511 107.862 82.0159C108.22 82.0065 108.575 82.0799 108.9 82.2301C109.226 82.3802 109.512 82.6032 109.737 82.8819C109.961 83.1606 110.119 83.4873 110.197 83.8367C110.275 84.1862 110.272 84.5491 110.187 84.897Z" fill="#9B87FF"/>
<path d="M32.5406 14.8078H17.8128C11.5254 14.8078 6.42844 19.9047 6.42844 26.1921C6.42844 32.4795 11.5254 37.5765 17.8128 37.5765H32.5406C38.828 37.5765 43.9249 32.4795 43.9249 26.1921C43.9249 19.9047 38.828 14.8078 32.5406 14.8078Z" fill="#F47D31"/>
<path d="M38.9896 43.5705V33.1072L30.7908 37.5765L38.9896 43.5705Z" fill="#F47D31"/>
<path d="M37.2209 25.2313H20.6443C20.096 25.2313 19.6515 25.6758 19.6515 26.2241V26.2251C19.6515 26.7735 20.096 27.218 20.6443 27.218H37.2209C37.7692 27.218 38.2138 26.7735 38.2138 26.2251V26.2241C38.2138 25.6758 37.7692 25.2313 37.2209 25.2313Z" fill="white"/>
<path d="M17.2316 25.2313H13.1326C12.5842 25.2313 12.1396 25.6758 12.1396 26.2243V26.2253C12.1396 26.7737 12.5842 27.2183 13.1326 27.2183H17.2316C17.78 27.2183 18.2246 26.7737 18.2246 26.2253V26.2243C18.2246 25.6758 17.78 25.2313 17.2316 25.2313Z" fill="white"/>
<path d="M29.7088 20.7199H13.1326C12.8697 20.7215 12.6176 20.8266 12.4315 21.0125C12.2455 21.1983 12.1404 21.4499 12.1386 21.7128C12.1402 21.9759 12.2455 22.2278 12.4315 22.4139C12.6176 22.5999 12.8695 22.7051 13.1326 22.7067H29.7088C29.9717 22.7048 30.2235 22.5995 30.4094 22.4135C30.5952 22.2275 30.7002 21.9757 30.7018 21.7128C30.7 21.4501 30.5947 21.1986 30.4089 21.0128C30.2231 20.827 29.9715 20.7217 29.7088 20.7199Z" fill="white"/>
<path d="M37.2206 20.7199H33.1208C32.858 20.7217 32.6064 20.8271 32.4206 21.0129C32.2348 21.1987 32.1294 21.4502 32.1276 21.713C32.1292 21.9759 32.2342 22.2277 32.4201 22.4138C32.6059 22.5998 32.8578 22.7051 33.1208 22.707H37.2206C37.4836 22.7051 37.7352 22.5998 37.9211 22.4138C38.1069 22.2277 38.212 21.9759 38.2135 21.713C38.2117 21.4502 38.1066 21.1987 37.9208 21.0129C37.735 20.8271 37.4834 20.7217 37.2206 20.7199Z" fill="white"/>
<path d="M26.1696 31.3424H37.22C37.4827 31.3405 37.734 31.2354 37.9198 31.0496C38.1056 30.8638 38.2109 30.6123 38.2128 30.3496C38.2109 30.0868 38.1056 29.8353 37.9198 29.6495C37.734 29.4637 37.4827 29.3585 37.22 29.3567H26.1696C25.9069 29.3585 25.6553 29.4637 25.4695 29.6495C25.2837 29.8353 25.1784 30.0868 25.1766 30.3496C25.1784 30.6123 25.2837 30.8638 25.4695 31.0496C25.6553 31.2354 25.9069 31.3405 26.1696 31.3424Z" fill="white"/>
<path d="M56.4341 93.1563C56.0588 93.0896 55.6826 93.0276 55.3053 92.9702C53.4736 92.683 51.6497 92.3421 49.834 91.9474C46.2514 91.1309 42.6232 90.5301 38.9686 90.1479C38.5807 90.1106 38.1927 90.0771 37.8047 90.0478C36.1589 89.7952 34.4753 90.0097 32.9456 90.6674C32.1472 91.0739 31.4945 91.7184 31.0775 92.5113C30.6604 93.3042 30.4994 94.2067 30.6168 95.0949C30.7609 95.6896 31.0429 96.242 31.44 96.7075C31.837 97.173 32.3381 97.5387 32.9026 97.7747C33.9893 98.1861 35.1401 98.4015 36.302 98.4113L47.5064 99.1651C49.3555 99.2884 51.2044 99.4155 53.0535 99.5454C54.8192 99.6684 56.612 99.917 58.3828 99.915C59.1717 99.9535 59.9511 99.7284 60.5975 99.2745C61.4913 98.3891 62.0214 97.2014 62.0841 95.9449C62.1305 95.6397 62.1067 95.328 62.0143 95.0334C61.922 94.7389 61.7635 94.4691 61.5513 94.245C61.2952 94.0696 60.9993 93.9614 60.6905 93.9301C59.2668 93.6711 57.8549 93.3982 56.4341 93.1563Z" fill="#F59253"/>
<path d="M60.6245 98.8462C61.5243 99.0322 62.2333 99.8252 63.1322 100.091C63.7788 100.255 64.4612 100.205 65.0769 99.9481C65.6439 99.7361 66.2196 99.6224 66.8015 99.4355C67.2849 99.1997 67.8165 99.0798 68.3543 99.0854C69.6591 99.5162 70.9047 100.109 72.0617 100.85C72.3082 101.011 72.6004 101.086 72.8937 101.065C73.1806 101.01 73.4196 100.665 73.2566 100.42C73.5896 100.731 74.0306 101.353 74.5675 101.112C74.6224 101.088 74.672 101.054 74.7135 101.011C74.7549 100.968 74.7875 100.916 74.8089 100.861C74.8303 100.805 74.8401 100.745 74.8382 100.685C74.8362 100.625 74.8225 100.566 74.7974 100.512C74.9672 100.728 75.184 100.904 75.4314 101.024C75.5564 101.081 75.6966 101.095 75.8305 101.064C75.9643 101.033 76.0843 100.959 76.1713 100.852C76.2366 100.74 76.271 100.612 76.2711 100.482C76.2753 100.036 76.1726 99.5953 75.9713 99.1972C75.0605 97.2085 72.9987 95.7328 71.245 94.548C70.945 94.3227 70.6129 94.1432 70.26 94.0159C69.9339 93.9304 69.597 93.8935 69.2602 93.906C67.0804 93.8967 64.9142 94.2468 62.8483 94.942C62.3899 95.0385 61.9145 95.0175 61.4664 94.881C61.1416 94.7935 60.8007 94.7837 60.4714 94.8522C60.1167 94.9825 59.8152 95.2263 59.6136 95.5459C59.1747 96.1193 58.9412 96.8236 58.9506 97.5456C58.9876 98.0785 59.0278 98.6546 59.6507 98.7666C59.9047 98.8116 60.1666 98.7836 60.4236 98.8106C60.4912 98.8189 60.5582 98.8306 60.6245 98.8462Z" fill="#FFBA99"/>
</g>
<defs>
<clipPath id="clip0_2_886">
<rect width="128.975" height="104.516" fill="white" transform="translate(0.645294)"/>
</clipPath>
</defs>
</svg>
