<svg width="242" height="21" viewBox="0 0 242 21" fill="none" xmlns="http://www.w3.org/2000/svg">
<g clip-path="url(#clip0_2_401)">
<path d="M9.30204 0.700058L6.86104 5.86706L1.39904 6.70006C1.17383 6.74329 0.964598 6.84688 0.793677 6.99976C0.622757 7.15265 0.496572 7.34908 0.428598 7.5681C0.360625 7.78711 0.353416 8.02048 0.407741 8.24327C0.462066 8.46606 0.575885 8.66991 0.737043 8.83306L4.68804 12.8561L3.75404 18.5391C3.7082 18.7621 3.72639 18.9936 3.80653 19.2068C3.88666 19.4199 4.02547 19.6061 4.20691 19.7437C4.38835 19.8813 4.60502 19.9648 4.8319 19.9845C5.05877 20.0042 5.28659 19.9593 5.48904 19.8551L10.375 17.1711L15.261 19.8551C15.4635 19.9589 15.6912 20.0035 15.9179 19.9836C16.1446 19.9637 16.3611 19.8802 16.5424 19.7427C16.7237 19.6051 16.8625 19.4192 16.9427 19.2063C17.023 18.9933 17.0415 18.762 16.996 18.5391L16.061 12.8551L20.012 8.83206C20.1729 8.66915 20.2866 8.46568 20.341 8.2433C20.3953 8.02092 20.3884 7.78795 20.3209 7.5692C20.2534 7.35044 20.1278 7.15409 19.9576 7.00104C19.7873 6.84799 19.5787 6.74397 19.354 6.70006L13.892 5.86806L11.448 0.700058C11.3555 0.49278 11.205 0.316731 11.0146 0.19319C10.8241 0.0696497 10.602 0.00390625 10.375 0.00390625C10.1481 0.00390625 9.92594 0.0696497 9.73552 0.19319C9.5451 0.316731 9.39454 0.49278 9.30204 0.700058Z" fill="#FF764C"/>
<path d="M39.302 0.700058L36.861 5.86706L31.399 6.70006C31.1738 6.74329 30.9646 6.84688 30.7937 6.99976C30.6228 7.15265 30.4966 7.34908 30.4286 7.5681C30.3606 7.78711 30.3534 8.02048 30.4077 8.24327C30.4621 8.46606 30.5759 8.66991 30.737 8.83306L34.688 12.8561L33.754 18.5391C33.7082 18.7621 33.7264 18.9936 33.8065 19.2068C33.8867 19.4199 34.0255 19.6061 34.2069 19.7437C34.3883 19.8813 34.605 19.9648 34.8319 19.9845C35.0588 20.0042 35.2866 19.9593 35.489 19.8551L40.375 17.1711L45.261 19.8551C45.4635 19.9589 45.6912 20.0035 45.9179 19.9836C46.1446 19.9637 46.3611 19.8802 46.5424 19.7427C46.7237 19.6051 46.8625 19.4192 46.9427 19.2063C47.023 18.9933 47.0415 18.762 46.996 18.5391L46.061 12.8551L50.012 8.83206C50.1729 8.66915 50.2866 8.46568 50.341 8.2433C50.3953 8.02092 50.3884 7.78795 50.3209 7.5692C50.2534 7.35044 50.1278 7.15409 49.9576 7.00104C49.7873 6.84799 49.5787 6.74397 49.354 6.70006L43.892 5.86806L41.448 0.700058C41.3555 0.49278 41.205 0.316731 41.0146 0.19319C40.8241 0.0696497 40.602 0.00390625 40.375 0.00390625C40.1481 0.00390625 39.9259 0.0696497 39.7355 0.19319C39.5451 0.316731 39.3945 0.49278 39.302 0.700058Z" fill="#FF764C"/>
<path d="M69.302 0.700058L66.861 5.86706L61.399 6.70006C61.1738 6.74329 60.9646 6.84688 60.7937 6.99976C60.6228 7.15265 60.4966 7.34908 60.4286 7.5681C60.3606 7.78711 60.3534 8.02048 60.4077 8.24327C60.4621 8.46606 60.5759 8.66991 60.737 8.83306L64.688 12.8561L63.754 18.5391C63.7082 18.7621 63.7264 18.9936 63.8065 19.2068C63.8867 19.4199 64.0255 19.6061 64.2069 19.7437C64.3883 19.8813 64.605 19.9648 64.8319 19.9845C65.0588 20.0042 65.2866 19.9593 65.489 19.8551L70.375 17.1711L75.261 19.8551C75.4635 19.9589 75.6912 20.0035 75.9179 19.9836C76.1446 19.9637 76.3611 19.8802 76.5424 19.7427C76.7237 19.6051 76.8625 19.4192 76.9427 19.2063C77.023 18.9933 77.0415 18.762 76.996 18.5391L76.061 12.8551L80.012 8.83206C80.1729 8.66915 80.2866 8.46568 80.341 8.2433C80.3953 8.02092 80.3884 7.78795 80.3209 7.5692C80.2534 7.35044 80.1278 7.15409 79.9576 7.00104C79.7873 6.84799 79.5787 6.74397 79.354 6.70006L73.892 5.86806L71.448 0.700058C71.3555 0.49278 71.205 0.316731 71.0146 0.19319C70.8241 0.0696497 70.602 0.00390625 70.375 0.00390625C70.1481 0.00390625 69.9259 0.0696497 69.7355 0.19319C69.5451 0.316731 69.3945 0.49278 69.302 0.700058Z" fill="#FF764C"/>
<path d="M99.302 0.700058L96.861 5.86706L91.399 6.70006C91.1738 6.74329 90.9646 6.84688 90.7937 6.99976C90.6228 7.15265 90.4966 7.34908 90.4286 7.5681C90.3606 7.78711 90.3534 8.02048 90.4077 8.24327C90.4621 8.46606 90.5759 8.66991 90.737 8.83306L94.688 12.8561L93.754 18.5391C93.7082 18.7621 93.7264 18.9936 93.8065 19.2068C93.8867 19.4199 94.0255 19.6061 94.2069 19.7437C94.3883 19.8813 94.605 19.9648 94.8319 19.9845C95.0588 20.0042 95.2866 19.9593 95.489 19.8551L100.375 17.1711L105.261 19.8551C105.464 19.9589 105.691 20.0035 105.918 19.9836C106.145 19.9637 106.361 19.8802 106.542 19.7427C106.724 19.6051 106.862 19.4192 106.943 19.2063C107.023 18.9933 107.041 18.762 106.996 18.5391L106.061 12.8551L110.012 8.83206C110.173 8.66915 110.287 8.46568 110.341 8.2433C110.395 8.02092 110.388 7.78795 110.321 7.5692C110.253 7.35044 110.128 7.15409 109.958 7.00104C109.787 6.84799 109.579 6.74397 109.354 6.70006L103.892 5.86806L101.448 0.700058C101.356 0.49278 101.205 0.316731 101.015 0.19319C100.824 0.0696497 100.602 0.00390625 100.375 0.00390625C100.148 0.00390625 99.9259 0.0696497 99.7355 0.19319C99.5451 0.316731 99.3945 0.49278 99.302 0.700058Z" fill="#FF764C"/>
<path d="M129.302 0.700058L126.861 5.86706L121.399 6.70006C121.174 6.74329 120.965 6.84688 120.794 6.99976C120.623 7.15265 120.497 7.34908 120.429 7.5681C120.361 7.78711 120.353 8.02048 120.408 8.24327C120.462 8.46606 120.576 8.66991 120.737 8.83306L124.688 12.8561L123.754 18.5391C123.708 18.7621 123.726 18.9936 123.807 19.2068C123.887 19.4199 124.025 19.6061 124.207 19.7437C124.388 19.8813 124.605 19.9648 124.832 19.9845C125.059 20.0042 125.287 19.9593 125.489 19.8551L130.375 17.1711L135.261 19.8551C135.464 19.9589 135.691 20.0035 135.918 19.9836C136.145 19.9637 136.361 19.8802 136.542 19.7427C136.724 19.6051 136.862 19.4192 136.943 19.2063C137.023 18.9933 137.041 18.762 136.996 18.5391L136.061 12.8551L140.012 8.83206C140.173 8.66915 140.287 8.46568 140.341 8.2433C140.395 8.02092 140.388 7.78795 140.321 7.5692C140.253 7.35044 140.128 7.15409 139.958 7.00104C139.787 6.84799 139.579 6.74397 139.354 6.70006L133.892 5.86806L131.448 0.700058C131.356 0.49278 131.205 0.316731 131.015 0.19319C130.824 0.0696497 130.602 0.00390625 130.375 0.00390625C130.148 0.00390625 129.926 0.0696497 129.736 0.19319C129.545 0.316731 129.395 0.49278 129.302 0.700058Z" fill="#FF764C"/>
</g>
<defs>
<clipPath id="clip0_2_401">
<rect width="140" height="20.002" fill="white" transform="translate(0.375)"/>
</clipPath>
</defs>
</svg>
