<svg width="242" height="21" viewBox="0 0 242 21" fill="none" xmlns="http://www.w3.org/2000/svg">
<g clip-path="url(#clip0_2_414)">
<path d="M9.30192 0.700058L6.86092 5.86706L1.39892 6.70006C1.17371 6.74329 0.964476 6.84688 0.793555 6.99976C0.622635 7.15265 0.49645 7.34908 0.428476 7.5681C0.360503 7.78711 0.353294 8.02048 0.407619 8.24327C0.461944 8.46606 0.575763 8.66991 0.736921 8.83306L4.68792 12.8561L3.75392 18.5391C3.70808 18.7621 3.72627 18.9936 3.80641 19.2068C3.88654 19.4199 4.02535 19.6061 4.20679 19.7437C4.38823 19.8813 4.6049 19.9648 4.83178 19.9845C5.05865 20.0042 5.28647 19.9593 5.48892 19.8551L10.3749 17.1711L15.2609 19.8551C15.4634 19.9589 15.6911 20.0035 15.9178 19.9836C16.1445 19.9637 16.361 19.8802 16.5423 19.7427C16.7236 19.6051 16.8623 19.4192 16.9426 19.2063C17.0229 18.9933 17.0413 18.762 16.9959 18.5391L16.0609 12.8551L20.0119 8.83206C20.1728 8.66915 20.2864 8.46568 20.3408 8.2433C20.3952 8.02092 20.3883 7.78795 20.3208 7.5692C20.2533 7.35044 20.1277 7.15409 19.9574 7.00104C19.7872 6.84799 19.5786 6.74397 19.3539 6.70006L13.8919 5.86806L11.4479 0.700058C11.3554 0.49278 11.2049 0.316731 11.0144 0.19319C10.824 0.0696497 10.6019 0.00390625 10.3749 0.00390625C10.1479 0.00390625 9.92581 0.0696497 9.7354 0.19319C9.54498 0.316731 9.39442 0.49278 9.30192 0.700058Z" fill="#FF764C"/>
<path d="M39.3019 0.700058L36.8609 5.86706L31.3989 6.70006C31.1737 6.74329 30.9645 6.84688 30.7936 6.99976C30.6226 7.15265 30.4964 7.34908 30.4285 7.5681C30.3605 7.78711 30.3533 8.02048 30.4076 8.24327C30.4619 8.46606 30.5758 8.66991 30.7369 8.83306L34.6879 12.8561L33.7539 18.5391C33.7081 18.7621 33.7263 18.9936 33.8064 19.2068C33.8865 19.4199 34.0253 19.6061 34.2068 19.7437C34.3882 19.8813 34.6049 19.9648 34.8318 19.9845C35.0587 20.0042 35.2865 19.9593 35.4889 19.8551L40.3749 17.1711L45.2609 19.8551C45.4634 19.9589 45.6911 20.0035 45.9178 19.9836C46.1445 19.9637 46.361 19.8802 46.5423 19.7427C46.7236 19.6051 46.8623 19.4192 46.9426 19.2063C47.0229 18.9933 47.0413 18.762 46.9959 18.5391L46.0609 12.8551L50.0119 8.83206C50.1728 8.66915 50.2864 8.46568 50.3408 8.2433C50.3952 8.02092 50.3883 7.78795 50.3208 7.5692C50.2533 7.35044 50.1277 7.15409 49.9574 7.00104C49.7872 6.84799 49.5786 6.74397 49.3539 6.70006L43.8919 5.86806L41.4479 0.700058C41.3554 0.49278 41.2049 0.316731 41.0144 0.19319C40.824 0.0696497 40.6019 0.00390625 40.3749 0.00390625C40.1479 0.00390625 39.9258 0.0696497 39.7354 0.19319C39.545 0.316731 39.3944 0.49278 39.3019 0.700058Z" fill="#FF764C"/>
<path d="M69.3019 0.700058L66.8609 5.86706L61.3989 6.70006C61.1737 6.74329 60.9645 6.84688 60.7936 6.99976C60.6226 7.15265 60.4964 7.34908 60.4285 7.5681C60.3605 7.78711 60.3533 8.02048 60.4076 8.24327C60.4619 8.46606 60.5758 8.66991 60.7369 8.83306L64.6879 12.8561L63.7539 18.5391C63.7081 18.7621 63.7263 18.9936 63.8064 19.2068C63.8865 19.4199 64.0253 19.6061 64.2068 19.7437C64.3882 19.8813 64.6049 19.9648 64.8318 19.9845C65.0587 20.0042 65.2865 19.9593 65.4889 19.8551L70.3749 17.1711L75.2609 19.8551C75.4634 19.9589 75.6911 20.0035 75.9178 19.9836C76.1445 19.9637 76.361 19.8802 76.5423 19.7427C76.7236 19.6051 76.8623 19.4192 76.9426 19.2063C77.0229 18.9933 77.0413 18.762 76.9959 18.5391L76.0609 12.8551L80.0119 8.83206C80.1728 8.66915 80.2864 8.46568 80.3408 8.2433C80.3952 8.02092 80.3883 7.78795 80.3208 7.5692C80.2533 7.35044 80.1277 7.15409 79.9574 7.00104C79.7872 6.84799 79.5786 6.74397 79.3539 6.70006L73.8919 5.86806L71.4479 0.700058C71.3554 0.49278 71.2049 0.316731 71.0144 0.19319C70.824 0.0696497 70.6019 0.00390625 70.3749 0.00390625C70.1479 0.00390625 69.9258 0.0696497 69.7354 0.19319C69.545 0.316731 69.3944 0.49278 69.3019 0.700058Z" fill="#FF764C"/>
<path d="M99.3019 0.700058L96.8609 5.86706L91.3989 6.70006C91.1737 6.74329 90.9645 6.84688 90.7936 6.99976C90.6226 7.15265 90.4964 7.34908 90.4285 7.5681C90.3605 7.78711 90.3533 8.02048 90.4076 8.24327C90.4619 8.46606 90.5758 8.66991 90.7369 8.83306L94.6879 12.8561L93.7539 18.5391C93.7081 18.7621 93.7263 18.9936 93.8064 19.2068C93.8865 19.4199 94.0253 19.6061 94.2068 19.7437C94.3882 19.8813 94.6049 19.9648 94.8318 19.9845C95.0587 20.0042 95.2865 19.9593 95.4889 19.8551L100.375 17.1711L105.261 19.8551C105.463 19.9589 105.691 20.0035 105.918 19.9836C106.144 19.9637 106.361 19.8802 106.542 19.7427C106.724 19.6051 106.862 19.4192 106.943 19.2063C107.023 18.9933 107.041 18.762 106.996 18.5391L106.061 12.8551L110.012 8.83206C110.173 8.66915 110.286 8.46568 110.341 8.2433C110.395 8.02092 110.388 7.78795 110.321 7.5692C110.253 7.35044 110.128 7.15409 109.957 7.00104C109.787 6.84799 109.579 6.74397 109.354 6.70006L103.892 5.86806L101.448 0.700058C101.355 0.49278 101.205 0.316731 101.014 0.19319C100.824 0.0696497 100.602 0.00390625 100.375 0.00390625C100.148 0.00390625 99.9258 0.0696497 99.7354 0.19319C99.545 0.316731 99.3944 0.49278 99.3019 0.700058Z" fill="#FF764C"/>
<path d="M129.302 0.700058L126.861 5.86706L121.399 6.70006C121.174 6.74329 120.964 6.84688 120.794 6.99976C120.623 7.15265 120.496 7.34908 120.428 7.5681C120.361 7.78711 120.353 8.02048 120.408 8.24327C120.462 8.46606 120.576 8.66991 120.737 8.83306L124.688 12.8561L123.754 18.5391C123.708 18.7621 123.726 18.9936 123.806 19.2068C123.887 19.4199 124.025 19.6061 124.207 19.7437C124.388 19.8813 124.605 19.9648 124.832 19.9845C125.059 20.0042 125.286 19.9593 125.489 19.8551L130.375 17.1711L135.261 19.8551C135.463 19.9589 135.691 20.0035 135.918 19.9836C136.144 19.9637 136.361 19.8802 136.542 19.7427C136.724 19.6051 136.862 19.4192 136.943 19.2063C137.023 18.9933 137.041 18.762 136.996 18.5391L136.061 12.8551L140.012 8.83206C140.173 8.66915 140.286 8.46568 140.341 8.2433C140.395 8.02092 140.388 7.78795 140.321 7.5692C140.253 7.35044 140.128 7.15409 139.957 7.00104C139.787 6.84799 139.579 6.74397 139.354 6.70006L133.892 5.86806L131.448 0.700058C131.355 0.49278 131.205 0.316731 131.014 0.19319C130.824 0.0696497 130.602 0.00390625 130.375 0.00390625C130.148 0.00390625 129.926 0.0696497 129.735 0.19319C129.545 0.316731 129.394 0.49278 129.302 0.700058Z" fill="#FF764C"/>
</g>
<defs>
<clipPath id="clip0_2_414">
<rect width="140" height="20.002" fill="white" transform="translate(0.375)"/>
</clipPath>
</defs>
</svg>
