<svg width="154" height="95" viewBox="0 0 154 95" fill="none" xmlns="http://www.w3.org/2000/svg">
<g clip-path="url(#clip0_2_1026)">
<path d="M60.8931 31.8714C58.1831 34.6594 60.6411 41.4714 64.9631 40.4874C69.6071 39.4284 68.9092 32.1874 64.7092 31.0024C64.0559 30.7726 63.3509 30.7322 62.6757 30.8859C62.0005 31.0397 61.3825 31.3814 60.8931 31.8714Z" fill="#2F275C"/>
<path d="M82.4273 40.8597C81.4283 41.8837 80.1649 42.6106 78.7775 42.9596C76.0718 43.5785 73.53 42.3876 71.2731 41.0147C68.8613 39.5489 66.4555 38.0629 64.1807 36.3891C62.4619 35.289 60.9947 33.8385 59.875 32.1325C58.8397 29.9971 58.4904 27.5937 58.8751 25.252C59.0391 23.6711 58.3012 22.2522 57.9752 20.7463C57.3433 17.8126 57.9902 14.3469 60.726 12.666C61.3797 12.2839 62.1198 12.0742 62.8768 12.0567C63.6339 12.0392 64.383 12.2145 65.0537 12.566C66.139 13.1349 67.2599 13.6331 68.4093 14.0579C70.9191 14.7708 73.6429 13.7889 76.1017 13.283C77.901 12.8155 79.7911 12.8255 81.5853 13.3119C83.5401 13.9659 84.4701 15.3958 85.537 17.0507C86.5779 18.3785 87.7142 19.6287 88.9368 20.7913C89.6444 21.5986 90.1443 22.5664 90.3933 23.6106C90.6423 24.6549 90.6328 25.7441 90.3656 26.7839C89.6357 29.9726 87.8018 32.7134 86.2089 35.5112C85.2017 37.4603 83.929 39.2603 82.4273 40.8597Z" fill="#0B2D4E"/>
<path d="M62.288 71.1361C65.5377 66.1285 67.5595 59.982 64.7358 54.3284C64.5211 53.7184 64.077 53.2163 63.4978 52.9286C62.0545 52.6031 60.541 52.8542 59.2801 53.6285C55.3375 55.9423 52.9246 60.2949 50.7088 64.1686C48.409 68.1923 46.4092 72.382 44.0964 76.3997C43.0916 77.9882 42.2904 79.6968 41.7116 81.4852C41.2277 83.1059 41.2668 84.8378 41.8235 86.4349C44.4233 93.1343 51.5578 84.927 53.7307 82.4462C56.8494 78.8853 59.7092 75.1056 62.288 71.1361Z" fill="#2F275C"/>
<path d="M78.4825 40.7756C78.1363 41.15 77.7254 41.4588 77.2696 41.6875C76.0484 42.2303 74.6671 42.291 73.403 41.8575C72.1522 41.4219 70.9784 40.7908 69.9252 39.9876C67.0055 37.9248 63.3947 35.195 61.6568 32.0243C60.5859 30.0695 59.7911 27.7616 60.816 25.6248C61.2488 24.7058 61.9094 23.9129 62.7351 23.3213C63.5609 22.7298 64.5243 22.3593 65.5336 22.2451C65.7017 22.2161 65.8745 22.2334 66.0336 22.2951C66.1976 22.3938 66.3298 22.5375 66.4145 22.7091C67.0739 23.9719 67.8192 25.188 68.6453 26.3487C69.6428 27.5128 70.8339 28.4958 72.166 29.2545C74.3068 30.5544 76.6567 31.5113 78.6655 33.0002C80.1194 34.0751 80.1574 36.4939 79.8035 38.1718C79.6058 39.1429 79.1494 40.0425 78.4825 40.7756Z" fill="#061F33"/>
<path d="M94.8153 64.7248C95.8442 60.9681 96.3772 57.1254 94.0463 54.5656C92.7602 53.4071 91.2369 52.5428 89.5827 52.0329C86.588 50.917 83.5272 49.416 80.3215 48.9331C76.8531 48.2769 73.2956 48.2431 69.8154 48.8331C67.7149 49.3422 65.6826 50.1002 63.7618 51.0909C61.194 52.3398 59.3622 53.1788 58.5413 55.7466C57.6509 58.5836 57.055 61.5048 56.7633 64.4639C55.8574 73.0752 57.0553 81.7085 57.0273 90.3238C56.9542 91.1776 57.1059 92.0356 57.4674 92.8126C58.3153 94.3124 60.619 94.3345 62.2789 94.3325L78.6897 94.3075C80.7551 94.3163 82.815 94.5225 84.8411 94.9234C85.6527 95.087 86.4952 94.9909 87.249 94.6486C88.0029 94.3063 88.6298 93.7353 89.0408 93.0166C89.7246 91.6178 90.0562 90.0731 90.0068 88.5169C90.3517 82.5188 91.334 76.5745 92.9374 70.7844C93.3974 69.1435 94.1954 66.9897 94.8153 64.7248Z" fill="#504C99"/>
<mask id="mask0_2_1026" style="mask-type:luminance" maskUnits="userSpaceOnUse" x="56" y="48" width="40" height="48">
<path d="M94.8153 64.7248C95.8442 60.9681 96.3772 57.1254 94.0463 54.5656C92.7602 53.4071 91.2369 52.5428 89.5827 52.0329C86.588 50.917 83.5272 49.416 80.3215 48.9331C76.8531 48.2769 73.2956 48.2431 69.8154 48.8331C67.7149 49.3422 65.6826 50.1002 63.7618 51.0909C61.194 52.3398 59.3622 53.1788 58.5413 55.7466C57.6509 58.5836 57.055 61.5048 56.7633 64.4639C55.8574 73.0752 57.0553 81.7085 57.0273 90.3238C56.9542 91.1776 57.1059 92.0356 57.4674 92.8126C58.3153 94.3124 60.619 94.3345 62.2789 94.3325L78.6897 94.3075C80.7551 94.3163 82.815 94.5225 84.8411 94.9234C85.6527 95.087 86.4952 94.9909 87.249 94.6486C88.0029 94.3063 88.6298 93.7353 89.0408 93.0166C89.7246 91.6178 90.0562 90.0731 90.0068 88.5169C90.3517 82.5188 91.334 76.5745 92.9374 70.7844C93.3974 69.1435 94.1954 66.9897 94.8153 64.7248Z" fill="white"/>
</mask>
<g mask="url(#mask0_2_1026)">
<path d="M81.5804 53.7977C82.2166 52.922 82.5508 51.8633 82.5328 50.7812C82.5147 49.699 82.1454 48.6521 81.4805 47.7981C81.0776 47.4448 80.6056 47.1793 80.0945 47.0185C79.5833 46.8577 79.0443 46.8051 78.5117 46.8642C76.446 46.8274 74.3832 47.0372 72.3672 47.4891C70.4503 47.9191 68.4965 48.647 67.6676 50.5029C67.3795 51.1874 67.2661 51.933 67.3378 52.6722C67.4095 53.4114 67.6641 54.1212 68.0785 54.7376C68.8492 55.9062 70.0413 56.7322 71.4062 57.0434C73.6943 57.5854 76.0913 57.4425 78.2987 56.6324C79.6611 56.0522 80.8084 55.0613 81.5804 53.7977Z" fill="#2F275C"/>
<path d="M60.0962 94.0224C62.3318 94.9946 64.6902 95.6551 67.1055 95.9853C73.8402 97.0537 80.6697 97.4002 87.4779 97.0191C88.9439 97.1045 90.3944 96.6807 91.5837 95.8193C92.3299 95.0241 92.8304 94.0303 93.0254 92.9574C93.7842 89.3399 94.0799 85.6405 93.9054 81.9483L93.8614 73.3061C93.8614 72.3061 94.5073 66.1987 92.9475 66.2687C92.7792 66.2874 92.62 66.3539 92.4885 66.4605C91.7658 67.0911 91.2332 67.9108 90.9507 68.8274C89.8138 71.5942 88.8588 76.0269 86.492 77.9617C84.0062 79.9965 81.1434 80.9435 78.1306 81.9194C72.9071 83.6113 67.0796 84.3461 62.655 87.8288C61.918 88.4088 61.216 89.0518 60.5331 89.6957C59.8061 90.2392 59.1875 90.9141 58.7092 91.6856C58.1353 92.9505 59.0353 93.5225 60.0962 94.0224Z" fill="#2F275C"/>
</g>
<path d="M106.597 73.673C107.428 75.1716 108.25 76.6748 109.064 78.1827C110.71 81.2484 113.764 88.0599 108.874 89.7428C106.41 90.5907 105 89.7618 103.375 87.9669C97.2057 81.1652 91.9668 73.5748 87.7949 65.3947C86.245 62.3549 82.1304 54.4316 87.128 52.6217C87.921 52.3399 88.7638 52.226 89.6031 52.2872C90.4425 52.3485 91.26 52.5837 92.0036 52.9777C92.6708 53.3584 93.291 53.8162 93.8514 54.3416C97.4582 57.5584 100.027 61.709 102.312 65.9186C103.721 68.5244 105.166 71.0972 106.597 73.673Z" fill="#4F4B99"/>
<path d="M81.6804 84.6719C82.1111 84.5992 82.542 84.5293 82.9733 84.4619C85.0731 84.136 87.1633 83.7503 89.2438 83.3051C93.3512 82.3839 97.5089 81.7041 101.696 81.2692C102.14 81.2272 102.584 81.1895 103.029 81.1562C104.912 80.8693 106.838 81.1064 108.595 81.8412C109.502 82.2836 110.247 83.0003 110.725 83.8897C111.202 84.7791 111.387 85.7962 111.254 86.7967C111.083 87.4687 110.757 88.0911 110.301 88.6133C109.845 89.1356 109.272 89.543 108.629 89.8026C107.383 90.2655 106.067 90.509 104.738 90.5225L91.8996 91.3894C89.7804 91.5314 87.6615 91.6767 85.543 91.8254C83.5202 91.9664 81.4664 92.2494 79.4376 92.2504C78.537 92.2958 77.6464 92.0449 76.9018 91.5363C75.8823 90.5551 75.2746 89.2228 75.202 87.8097C75.15 87.4662 75.1783 87.1153 75.2848 86.7846C75.3914 86.4539 75.5731 86.1524 75.8158 85.9038C76.1103 85.7066 76.4491 85.585 76.8018 85.5499C78.4337 85.2539 80.0526 84.9469 81.6804 84.6719Z" fill="#504C99"/>
<path d="M65.1097 86.1902H44.8183V90.1629H65.1097V86.1902Z" fill="#B8D1CE"/>
<path d="M48.302 86.5801L43.1805 60.5082C43.1151 60.1741 42.9355 59.8732 42.6727 59.6568C42.4098 59.4405 42.08 59.3222 41.7395 59.3223H7.69526C7.46465 59.3226 7.23748 59.3778 7.03235 59.4831C6.82721 59.5885 6.65005 59.7411 6.51542 59.9283L4.94353 61.7872L6.33843 61.4812L11.38 87.1501C11.4456 87.4841 11.6251 87.7849 11.8879 88.0012C12.1507 88.2175 12.4804 88.3359 12.8208 88.3361H46.8651C47.0821 88.3357 47.2964 88.2872 47.4924 88.1941C47.6884 88.101 47.8613 87.9657 47.9987 87.7978C48.1361 87.6298 48.2345 87.4335 48.287 87.223C48.3394 87.0124 48.3446 86.7929 48.302 86.5801Z" fill="#B8D1CE"/>
<path d="M11.259 90.163H45.3033C45.5201 90.163 45.7341 90.1151 45.9302 90.0226C46.1263 89.9301 46.2995 89.7952 46.4372 89.6278C46.575 89.4604 46.6739 89.2646 46.727 89.0544C46.7801 88.8442 46.7859 88.6249 46.7441 88.4121L41.6226 62.3402C41.5568 62.0064 41.3771 61.7057 41.1143 61.4896C40.8515 61.2735 40.5219 61.1553 40.1816 61.1553H6.13736C5.92046 61.1552 5.70625 61.2032 5.51009 61.2958C5.31394 61.3883 5.14072 61.5232 5.00293 61.6908C4.86515 61.8583 4.76628 62.0542 4.71328 62.2646C4.66029 62.4749 4.65448 62.6943 4.69644 62.9071L9.81712 88.9791C9.88296 89.313 10.0627 89.6135 10.3257 89.8295C10.5888 90.0454 10.9187 90.1634 11.259 90.163Z" fill="#F47D31"/>
<path d="M21.9671 75.0134C22.144 75.8886 22.6105 76.679 23.2914 77.2568C23.9722 77.8346 24.8278 78.1662 25.7202 78.1984C26.1173 78.2135 26.5125 78.1357 26.8742 77.9711C27.236 77.8066 27.5544 77.5597 27.8039 77.2504C28.0535 76.9411 28.2275 76.5779 28.3119 76.1895C28.3963 75.8011 28.3888 75.3984 28.2901 75.0134C28.106 74.1416 27.6374 73.3559 26.9581 72.7794C26.2788 72.2029 25.4273 71.8684 24.5372 71.8284C24.1414 71.8179 23.7485 71.8988 23.389 72.0648C23.0296 72.2307 22.7133 72.4773 22.4647 72.7855C22.2161 73.0936 22.0418 73.455 21.9555 73.8414C21.8693 74.2278 21.8732 74.6287 21.9671 75.0134Z" fill="white"/>
<path d="M76.8367 91.0578C75.8248 91.2668 75.0368 92.1578 74.0279 92.4528C73.3037 92.6361 72.5397 92.5801 71.8501 92.2929C71.2151 92.0549 70.5692 91.9268 69.9182 91.7188C69.377 91.4547 68.7815 91.3209 68.1794 91.3278C66.7181 91.8099 65.3233 92.4738 64.0277 93.3038C63.7517 93.4837 63.4244 93.5683 63.0958 93.5447C62.7748 93.4837 62.5068 93.0937 62.6898 92.8227C62.3168 93.1717 61.8229 93.8677 61.2219 93.5977C61.1604 93.5715 61.1049 93.5332 61.0585 93.4851C61.012 93.4371 60.9757 93.38 60.9517 93.3177C60.9276 93.2553 60.9162 93.1888 60.9183 93.122C60.9205 93.0552 60.936 92.9895 60.964 92.9288C60.7742 93.1711 60.5318 93.367 60.2551 93.5017C60.115 93.5649 59.9581 93.5802 59.8084 93.5453C59.6588 93.5104 59.5248 93.4273 59.4271 93.3088C59.3546 93.1829 59.3166 93.04 59.317 92.8947C59.3114 92.3958 59.4252 91.9028 59.649 91.4569C60.67 89.229 62.9788 87.5762 64.9427 86.2493C65.2775 85.9958 65.6482 85.7936 66.0426 85.6493C66.4062 85.5542 66.7818 85.5128 67.1575 85.5263C69.5987 85.516 72.025 85.9079 74.3389 86.6862C74.852 86.7944 75.3841 86.771 75.8858 86.6183C76.2495 86.5207 76.631 86.5098 76.9997 86.5863C77.3968 86.7323 77.7346 87.0054 77.9606 87.3632C78.4523 88.0061 78.7137 88.7956 78.7026 89.605C78.6616 90.2049 78.6165 90.8469 77.9136 90.9719C77.6286 91.0229 77.3356 90.9908 77.0477 91.0218C76.9768 91.0301 76.9064 91.0421 76.8367 91.0578Z" fill="#FFBA99"/>
<path d="M77.2677 55.0305C77.9917 54.8488 78.6598 54.4917 79.2131 53.9907C79.7664 53.4896 80.1879 52.8602 80.4404 52.1577C80.8574 50.8228 80.2005 49.3219 80.0835 47.975C79.9709 46.6844 79.9568 45.3871 80.0415 44.0944C80.1755 42.888 80.1784 41.6707 80.0504 40.4637C79.9504 39.7827 79.5725 39.8997 78.8835 39.6287C78.1706 39.4016 77.4214 39.3097 76.6747 39.3577C75.1428 39.3577 71.1491 39.2507 70.2022 40.5946C69.833 41.2406 69.6626 41.9811 69.7123 42.7235C69.6873 43.6104 69.5303 44.7593 69.3853 45.9972C69.3203 46.5482 69.3603 47.0971 69.2763 47.6441C69.1534 48.2544 68.9758 48.8525 68.7454 49.4309C68.5288 49.9342 68.4181 50.4766 68.4203 51.0245C68.4224 51.5724 68.5374 52.114 68.7579 52.6155C68.9784 53.1171 69.2997 53.5679 69.702 53.9398C70.1043 54.3118 70.5789 54.5969 71.0962 54.7775C73.0675 55.5481 75.2399 55.6372 77.2677 55.0305Z" fill="#FFBA99"/>
<path d="M80.0443 40.4637C79.9443 39.7827 79.5663 39.8997 78.8773 39.6287C78.1643 39.4016 77.415 39.3097 76.6682 39.3577C75.1362 39.3577 71.1423 39.2507 70.1953 40.5947C69.8261 41.2407 69.6557 41.9813 69.7054 42.7237C69.6804 43.6107 69.5233 44.7597 69.3783 45.9977C69.3133 46.5487 69.3533 47.0977 69.2693 47.6447C69.1844 48.1113 69.0561 48.5689 68.8863 49.0117C70.3932 49.5739 72.0333 49.6759 73.5983 49.3047C76.2549 48.6192 78.5489 46.9437 80.0103 44.6217C80.0183 44.4457 80.0233 44.2707 80.0343 44.0947C80.1689 42.8883 80.1723 41.6709 80.0443 40.4637Z" fill="#FCAA83"/>
<path d="M82.2673 31.7182C82.279 29.8208 82.0023 27.9328 81.4465 26.1186C79.1757 19.1662 70.5024 17.4483 65.2798 22.4389C59.4553 28.0044 61.68 41.3114 67.8195 45.985C68.6468 46.6055 69.6034 47.0315 70.618 47.2315C71.6326 47.4314 72.6793 47.4001 73.6801 47.1399C79.7076 45.526 82.3053 38.1086 82.2673 31.7182Z" fill="#FFBA99"/>
<path d="M81.4473 26.1205C79.1765 19.1681 70.5032 17.4502 65.2806 22.4408C64.6216 23.0792 64.0591 23.8102 63.6107 24.6106C63.8977 24.8544 64.204 25.0744 64.5266 25.2686C66.7311 26.5929 69.1157 27.5912 71.6061 28.2324C72.6978 28.4142 73.7419 28.8131 74.6768 29.4053C75.168 29.7969 75.5725 30.2862 75.8647 30.8422C76.2184 31.5251 76.5122 32.2373 76.7427 32.971C77.2365 34.5629 77.5714 36.1998 77.7426 37.8576C77.7463 38.0316 77.809 38.1991 77.9206 38.3326C78.0514 38.4345 78.2168 38.4814 78.3816 38.4635C79.3435 38.4385 79.8074 37.5166 80.5564 37.0287C81.0073 36.7347 81.4563 36.4347 81.8852 36.1088C82.149 34.6602 82.2779 33.1904 82.2702 31.7181C82.2809 29.8214 82.0034 27.934 81.4473 26.1205Z" fill="#F7C2A7"/>
<path d="M76.8447 30.5735C77.1071 31.2965 77.3061 32.0409 77.4396 32.7984C77.7226 34.4407 77.8422 36.107 77.7967 37.7729C77.7781 37.9455 77.8186 38.1193 77.9116 38.2659C78.0281 38.3839 78.1859 38.452 78.3517 38.4559C79.3086 38.5559 79.8875 37.7019 80.6934 37.315C81.5441 36.9434 82.3522 36.4807 83.1032 35.9351C85.1821 34.3052 84.7031 31.6174 84.6411 29.2266C84.6635 27.912 84.5088 26.6003 84.1812 25.3269C83.7261 23.9615 82.9698 22.7159 81.9683 21.6823C80.5373 20.1858 78.7961 19.0207 76.8669 18.2686C74.9378 17.5165 72.8675 17.1957 70.8012 17.3286C68.6477 17.4504 66.6038 18.3183 65.0207 19.7834C63.7708 21.0473 65.2936 22.7632 66.3205 23.5831C68.3347 25.1817 70.5697 26.4804 72.956 27.4387C74.0149 27.7605 74.9986 28.2913 75.8488 28.9997C76.2861 29.4497 76.6252 29.9856 76.8447 30.5735Z" fill="#0B2D4E"/>
<path d="M81.1277 31.8882C83.7957 30.4292 84.6177 34.1241 84.1587 35.9621C83.9837 36.7276 83.6569 37.4502 83.1976 38.0871C82.5626 38.9281 80.7476 40.3242 79.6976 39.4042C79.4935 39.1624 79.3406 38.8818 79.2482 38.5793C79.1557 38.2768 79.1256 37.9586 79.1597 37.6441C79.1237 35.9501 79.3197 32.8772 81.1277 31.8882Z" fill="#F8A17A"/>
<path d="M119.687 74.598C120.015 73.8604 120.041 73.0236 119.759 72.2672C119.496 71.5168 119.135 70.8043 118.686 70.1483C118.185 69.4107 117.79 68.607 117.511 67.7605C117.259 66.8213 117.279 65.83 117.569 64.9017C118.215 63.3103 119.052 61.8034 120.062 60.4141C120.473 59.7519 120.759 59.0208 120.908 58.2563C121.074 57.4637 120.975 56.6387 120.627 55.9075C121.267 56.5388 121.631 57.3983 121.637 58.2973C121.657 59.2021 121.475 60.0999 121.103 60.9251C120.418 62.5609 119.392 63.8899 118.992 65.3247C118.76 65.9965 118.718 66.7193 118.87 67.4136C119.073 68.1716 119.354 68.9068 119.708 69.6074C120.107 70.3984 120.366 71.2532 120.472 72.1332C120.537 72.5767 120.499 73.0291 120.363 73.4561C120.227 73.8831 119.996 74.2736 119.687 74.598Z" fill="white"/>
<path d="M114.978 75.5889H125.095V85.0221C125.095 86.3637 124.562 87.6504 123.613 88.5991C122.665 89.5477 121.378 90.0807 120.036 90.0807C118.695 90.0807 117.408 89.5477 116.459 88.5991C115.511 87.6504 114.978 86.3637 114.978 85.0221V75.5889Z" fill="#2F275C"/>
<path d="M125.805 78.8706C124.921 78.8579 124.053 79.1085 123.311 79.5905C122.57 80.0726 121.988 80.7643 121.641 81.5777C121.294 82.3911 121.196 83.2895 121.361 84.1584C121.526 85.0274 121.945 85.8276 122.566 86.4575C123.187 87.0874 123.981 87.5184 124.848 87.6957C125.714 87.8729 126.614 87.7884 127.432 87.453C128.25 87.1175 128.95 86.5463 129.443 85.8119C129.936 85.0774 130.199 84.213 130.199 83.3286C130.203 82.7473 130.093 82.1708 129.875 81.6322C129.656 81.0935 129.334 80.6032 128.926 80.1892C128.518 79.7752 128.032 79.4457 127.497 79.2195C126.961 78.9932 126.386 78.8746 125.805 78.8706ZM125.805 86.1955C125.236 86.2037 124.678 86.0424 124.201 85.7323C123.724 85.4221 123.35 84.9771 123.126 84.4538C122.903 83.9305 122.84 83.3526 122.946 82.7936C123.052 82.2345 123.322 81.7198 123.722 81.3145C124.121 80.9093 124.632 80.6321 125.189 80.518C125.747 80.404 126.325 80.4584 126.852 80.6742C127.378 80.89 127.829 81.2575 128.146 81.73C128.463 82.2024 128.632 82.7586 128.632 83.3276C128.636 84.0821 128.341 84.8074 127.811 85.3443C127.281 85.8813 126.56 86.1859 125.805 86.1915V86.1955Z" fill="#504C99"/>
<path opacity="0.2" d="M116.491 84.5789C116.346 84.5783 116.207 84.5206 116.104 84.4181C116.002 84.3156 115.944 84.1768 115.944 84.0319V76.9789C115.944 76.834 116.002 76.6951 116.104 76.5927C116.207 76.4902 116.346 76.4324 116.491 76.4319C116.636 76.4324 116.774 76.4902 116.877 76.5927C116.979 76.6951 117.037 76.834 117.038 76.9789V84.0319C117.037 84.1768 116.979 84.3156 116.877 84.4181C116.774 84.5206 116.636 84.5783 116.491 84.5789Z" fill="white"/>
<path d="M122.758 75.5889V87.5139C122.758 88.1934 122.488 88.8449 122.008 89.3253C121.527 89.8057 120.876 90.0757 120.196 90.0757H122.533C123.213 90.0757 123.864 89.8058 124.345 89.3254C124.825 88.845 125.096 88.1935 125.096 87.5139V75.5839L122.758 75.5889Z" fill="#504C99"/>
<path d="M59.749 24.4787C58.6031 21.269 56.3054 18.6792 57.6273 15.0795C58.0053 14.0497 58.688 13.1594 59.5845 12.5272C60.481 11.8951 61.5488 11.551 62.6458 11.5408C63.7101 11.5229 64.7597 11.7905 65.6856 12.3157C66.7855 12.9447 67.4964 13.9726 68.7743 14.3156C71.7741 15.1225 74.8738 12.8386 77.7336 12.3067C80.5683 11.7797 83.5831 12.7067 84.97 15.4165C85.3778 16.5432 85.8795 17.6335 86.4699 18.6762C87.6698 20.276 90.0076 20.828 90.9586 22.5909C92.5104 25.4697 89.3217 29.6283 87.6988 31.8402" stroke="#0B2D4E" stroke-width="3.99968" stroke-miterlimit="10"/>
<path d="M72.4362 44.0589C71.7762 44.0585 71.1172 44.0097 70.4643 43.9129L70.5822 43.1129C72.9294 43.4728 75.3306 43.1373 77.4892 42.1479C78.0141 41.9108 78.5148 41.6235 78.9842 41.2899C79.7694 40.7192 80.4284 39.9927 80.9202 39.1559L81.6203 39.5649C81.0719 40.4985 80.3369 41.3091 79.4613 41.9459C78.9498 42.3105 78.4042 42.6246 77.8322 42.8839C76.1405 43.6635 74.299 44.0645 72.4362 44.0589Z" fill="#2F275C"/>
<path d="M68.1255 42.4755C69.1015 41.6385 71.2714 41.7095 71.9864 42.5755C72.1045 42.7213 72.1925 42.8889 72.2456 43.0688C72.2986 43.2487 72.3156 43.4374 72.2955 43.6239C72.2754 43.8104 72.2187 43.991 72.1286 44.1556C72.0385 44.3201 71.9168 44.4652 71.7705 44.5825C71.439 44.8528 71.0432 45.0328 70.6217 45.1052C70.2001 45.1776 69.7671 45.1398 69.3645 44.9955C68.2855 44.7555 66.9515 43.4845 68.1255 42.4755Z" fill="#2F275C"/>
<path d="M67.2804 17.1759C67.749 17.1962 68.2183 17.1912 68.6863 17.161C69.1533 17.126 69.6172 17.077 70.0801 17.007C71.0061 16.874 71.927 16.691 72.864 16.563C73.8062 16.4213 74.7604 16.3764 75.7118 16.4291C76.6871 16.4657 77.6415 16.7224 78.5035 17.18C78.718 17.3054 78.921 17.4492 79.1104 17.6099C79.2982 17.7726 79.4718 17.9509 79.6294 18.1429C79.7847 18.3383 79.9213 18.5479 80.0373 18.7688C80.1528 18.9908 80.2415 19.2258 80.3014 19.4688C80.3619 19.7153 80.3879 19.969 80.3784 20.2227C80.3675 20.4701 80.331 20.7158 80.2694 20.9557C80.2154 21.1876 80.1573 21.4116 80.1213 21.6306C80.0845 21.8466 80.0771 22.0666 80.0993 22.2845C80.1574 22.7329 80.2907 23.1683 80.4934 23.5725C80.6873 23.9914 80.9223 24.3954 81.1403 24.8174C81.3647 25.2383 81.5363 25.6853 81.6512 26.1482C81.7053 26.381 81.7315 26.6193 81.7292 26.8582C81.7247 27.0968 81.6819 27.3332 81.6023 27.5582C81.7059 27.1022 81.6816 26.6264 81.5322 26.1833C81.3878 25.7424 81.1918 25.3201 80.9483 24.9253C80.7123 24.5254 80.4543 24.1254 80.2313 23.7054C79.9931 23.2778 79.8314 22.8118 79.7534 22.3285C79.7199 22.0797 79.7199 21.8275 79.7534 21.5786C79.7864 21.3336 79.8424 21.0996 79.8894 20.8786C79.9404 20.6622 79.9685 20.441 79.9734 20.2187C79.9769 20.0021 79.95 19.7859 79.8934 19.5767C79.6437 18.7202 79.0643 17.9978 78.2825 17.5679C77.4798 17.139 76.5918 16.8941 75.6827 16.851C74.7576 16.7841 73.8283 16.8039 72.9069 16.91C71.979 17.01 71.047 17.143 70.1071 17.226C69.6371 17.265 69.1643 17.288 68.6923 17.287C68.2197 17.2817 67.748 17.2446 67.2804 17.1759Z" fill="#73B8D4"/>
<path d="M82.2485 30.8376C78.4815 31.8036 77.0265 38.8996 81.2285 40.3116C85.7435 41.8296 88.9225 35.2896 85.9585 32.0856C85.5208 31.5487 84.9403 31.1467 84.2838 30.9258C83.6273 30.705 82.9216 30.6744 82.2485 30.8376Z" fill="#2F275C"/>
<path d="M83.4834 31.7495C80.8834 32.1675 79.2834 37.6916 81.9614 39.2116C84.8414 40.8456 87.5434 35.9255 85.8494 33.0925C85.648 32.647 85.3103 32.277 84.8851 32.0356C84.4599 31.7942 83.9692 31.6941 83.4834 31.7495Z" fill="#2F275C"/>
<path d="M84.0081 31.3354L83.0082 31.2193C83.6901 25.3308 83.3992 17.8064 78.1466 15.4036C75.4497 13.9675 72.324 13.5562 69.3473 14.2457C68.9862 14.1957 68.634 14.0948 68.3013 13.9458C71.9581 12.1589 75.8838 13.2548 78.5686 14.4827C84.3671 17.1395 84.728 25.1129 84.0081 31.3354Z" fill="#2F275C"/>
<path d="M107.016 25.1738L123.297 25.1738C130.248 25.1738 135.882 19.5393 135.882 12.5888C135.882 5.63834 130.248 0.00384521 123.297 0.00384521L107.016 0.00384521C100.066 0.00384521 94.4313 5.63834 94.4313 12.5888C94.4313 19.5393 100.066 25.1738 107.016 25.1738Z" fill="#F47D31"/>
<path d="M99.887 31.8002V20.2322L108.946 25.1742L99.887 31.8002Z" fill="#F47D31"/>
<path d="M120.166 11.5259H101.843C101.236 11.5259 100.745 12.0174 100.745 12.6238C100.745 13.2302 101.236 13.7217 101.843 13.7217H120.166C120.773 13.7217 121.264 13.2302 121.264 12.6238C121.264 12.0174 120.773 11.5259 120.166 11.5259Z" fill="white"/>
<path d="M128.471 11.5259H123.941C123.335 11.5259 122.843 12.0175 122.843 12.6239C122.843 13.2303 123.335 13.7219 123.941 13.7219H128.471C129.077 13.7219 129.569 13.2303 129.569 12.6239C129.569 12.0175 129.077 11.5259 128.471 11.5259Z" fill="white"/>
<path d="M110.147 8.73511L128.471 8.73511C129.077 8.73511 129.569 8.24356 129.569 7.6372C129.569 7.03084 129.077 6.53928 128.471 6.53928L110.147 6.53928C109.541 6.53928 109.049 7.03084 109.049 7.6372C109.049 8.24356 109.541 8.73511 110.147 8.73511Z" fill="white"/>
<path d="M101.842 8.73511H106.372C106.979 8.73511 107.47 8.24352 107.47 7.63711C107.47 7.0307 106.979 6.53911 106.372 6.53911L101.842 6.53911C101.236 6.53911 100.744 7.0307 100.744 7.63711C100.744 8.24352 101.236 8.73511 101.842 8.73511Z" fill="white"/>
<path d="M114.059 16.0854H101.843C101.236 16.0854 100.745 16.577 100.745 17.1834C100.745 17.7897 101.236 18.2813 101.843 18.2813H114.059C114.665 18.2813 115.157 17.7897 115.157 17.1834C115.157 16.577 114.665 16.0854 114.059 16.0854Z" fill="white"/>
<path d="M134.18 32.3057C133.714 32.3629 133.242 32.2975 132.809 32.1158C132.377 31.9341 131.999 31.6424 131.714 31.2697C130.466 29.4819 128.561 27.8771 126.424 29.6949C125.192 30.7428 126.118 32.8996 125.058 33.9375C124.121 34.8545 122.927 34.7035 122.448 36.2264C121.742 38.4662 123.967 40.426 124.68 42.3659C125.28 43.9918 123.932 44.6107 123.326 45.8776C123.13 46.3564 123.054 46.8754 123.103 47.3901C123.152 47.9049 123.325 48.4001 123.608 48.8333C124.508 50.4792 126.494 51.8051 126.033 53.933C125.648 55.7118 125.29 57.2976 126.86 58.6455C127.936 59.5695 129.933 60.4124 129.781 62.1233C129.614 62.7054 129.418 63.2787 129.193 63.8412C129.159 64.3218 129.245 64.8033 129.444 65.242C129.644 65.6807 129.95 66.0626 130.334 66.3529C131.951 67.7339 133.379 69.3214 134.582 71.0746C135.1 71.8675 137.17 73.6583 136.343 74.7423C137.847 72.7714 139.442 70.8606 140.805 68.7888C141.93 67.0889 143.625 64.5891 142.471 62.4893C142.112 61.8363 141.445 61.3504 141.262 60.6274C140.932 59.3275 142.214 58.1146 142.689 57.0047C143.028 56.1437 143.102 55.2015 142.903 54.298C142.704 53.3946 142.24 52.5709 141.571 51.9321C140.874 51.3866 140.384 50.6204 140.18 49.7593C140.253 48.8095 140.514 47.8838 140.949 47.0365C141.195 46.2155 141.362 45.3732 141.449 44.5207C141.534 43.9272 141.517 43.3235 141.398 42.7359C141.132 41.6299 140.135 41.014 139.398 40.229C137.643 38.3602 138.565 36.1623 137.798 33.9905C137.111 32.0527 135.611 32.3147 134.18 32.3057Z" fill="#3DC8E8"/>
<mask id="mask1_2_1026" style="mask-type:luminance" maskUnits="userSpaceOnUse" x="122" y="28" width="22" height="47">
<path d="M134.18 32.3057C133.714 32.3629 133.242 32.2975 132.809 32.1158C132.377 31.9341 131.999 31.6424 131.714 31.2697C130.466 29.4819 128.561 27.8771 126.424 29.6949C125.192 30.7428 126.118 32.8996 125.058 33.9375C124.121 34.8545 122.927 34.7035 122.448 36.2264C121.742 38.4662 123.967 40.426 124.68 42.3659C125.28 43.9918 123.932 44.6107 123.326 45.8776C123.13 46.3564 123.054 46.8754 123.103 47.3901C123.152 47.9049 123.325 48.4001 123.608 48.8333C124.508 50.4792 126.494 51.8051 126.033 53.933C125.648 55.7118 125.29 57.2976 126.86 58.6455C127.936 59.5695 129.933 60.4124 129.781 62.1233C129.614 62.7054 129.418 63.2787 129.193 63.8412C129.159 64.3218 129.245 64.8033 129.444 65.242C129.644 65.6807 129.95 66.0626 130.334 66.3529C131.951 67.7339 133.379 69.3214 134.582 71.0746C135.1 71.8675 137.17 73.6583 136.343 74.7423C137.847 72.7714 139.442 70.8606 140.805 68.7888C141.93 67.0889 143.625 64.5891 142.471 62.4893C142.112 61.8363 141.445 61.3504 141.262 60.6274C140.932 59.3275 142.214 58.1146 142.689 57.0047C143.028 56.1437 143.102 55.2015 142.903 54.298C142.704 53.3946 142.24 52.5709 141.571 51.9321C140.874 51.3866 140.384 50.6204 140.18 49.7593C140.253 48.8095 140.514 47.8838 140.949 47.0365C141.195 46.2155 141.362 45.3732 141.449 44.5207C141.534 43.9272 141.517 43.3235 141.398 42.7359C141.132 41.6299 140.135 41.014 139.398 40.229C137.643 38.3602 138.565 36.1623 137.798 33.9905C137.111 32.0527 135.611 32.3147 134.18 32.3057Z" fill="white"/>
</mask>
<g mask="url(#mask1_2_1026)">
<path d="M136.529 76.9691C137.104 69.4893 136.657 61.9659 135.201 54.6068C133.97 47.5376 132.073 40.6006 129.536 33.8885C128.676 31.6871 127.693 29.5353 126.593 27.443" stroke="#26A8D1" stroke-width="4.9996" stroke-miterlimit="10"/>
<path d="M120.699 37.4622C124.382 38.763 127.881 40.5369 131.107 42.7392C131.818 43.1354 132.474 43.6217 133.06 44.1862" stroke="#26A8D1" stroke-width="4.9996" stroke-miterlimit="10"/>
<path d="M134.8 52.1904C131.256 49.9038 127.28 48.3691 123.119 47.6814" stroke="#26A8D1" stroke-width="4.9996" stroke-miterlimit="10"/>
<path d="M136.196 61.8287C132.89 58.9716 128.926 56.9819 124.66 56.0387" stroke="#26A8D1" stroke-width="4.9996" stroke-miterlimit="10"/>
<path d="M132.873 43.9396C133.133 39.9755 134.111 36.0916 135.761 32.4777" stroke="#26A8D1" stroke-width="4.9996" stroke-miterlimit="10"/>
<path d="M134.754 51.8647C136.432 48.2831 138.827 45.0838 141.791 42.4647" stroke="#26A8D1" stroke-width="4.9996" stroke-miterlimit="10"/>
<path d="M136.414 62.1038C136.646 60.9983 137.049 59.9358 137.609 58.9548C138.29 57.8332 139.083 56.7835 139.976 55.8218C140.6 55.1132 141.233 54.4131 141.876 53.7218" stroke="#26A8D1" stroke-width="4.9996" stroke-miterlimit="10"/>
</g>
<path d="M145.58 45.9246C145.91 46.0305 146.262 46.0483 146.6 45.9764C146.939 45.9045 147.254 45.7453 147.512 45.5146C148.665 44.3907 150.269 43.4897 151.568 45.1046C152.317 46.0355 151.346 47.4714 151.968 48.3714C152.521 49.1713 153.407 49.2213 153.544 50.3922C153.744 52.1151 151.861 53.2309 151.076 54.5368C150.417 55.6367 151.308 56.2687 151.576 57.2717C151.651 57.646 151.635 58.0331 151.528 58.3997C151.421 58.7663 151.227 59.1015 150.962 59.3765C150.084 60.4464 148.462 61.1323 148.497 62.7422C148.53 64.0861 148.57 65.285 147.245 66.042C146.336 66.5639 144.771 66.8979 144.645 68.1598C144.686 68.6053 144.749 69.0485 144.834 69.4877C144.793 69.841 144.663 70.1783 144.458 70.469C144.253 70.7596 143.978 70.9943 143.659 71.1515C142.296 71.9295 141.04 72.8832 139.924 73.9883C139.439 74.4882 137.689 75.5042 138.14 76.4051C137.321 74.7672 136.432 73.1614 135.726 71.4685C135.146 70.0766 134.261 68.0348 135.389 66.6689C135.74 66.2449 136.289 65.9849 136.524 65.486C136.944 64.586 136.182 63.5311 135.99 62.6612C135.864 61.9899 135.94 61.2962 136.209 60.6684C136.479 60.0407 136.929 59.5074 137.503 59.1365C138.084 58.8375 138.546 58.3499 138.813 57.7536C138.892 57.0549 138.83 56.3474 138.632 55.6728C138.568 55.0433 138.564 54.4092 138.62 53.7789C138.64 53.3365 138.736 52.9009 138.904 52.491C139.25 51.7251 140.057 51.4171 140.703 50.9501C142.235 49.8372 141.87 48.1154 142.727 46.6505C143.492 45.3356 144.541 45.7326 145.58 45.9246Z" fill="#26A8D1"/>
<mask id="mask2_2_1026" style="mask-type:luminance" maskUnits="userSpaceOnUse" x="134" y="44" width="20" height="33">
<path d="M145.58 45.9246C145.91 46.0305 146.262 46.0483 146.6 45.9764C146.939 45.9045 147.254 45.7453 147.512 45.5146C148.665 44.3907 150.269 43.4897 151.568 45.1046C152.317 46.0355 151.346 47.4714 151.968 48.3714C152.521 49.1713 153.407 49.2213 153.544 50.3922C153.744 52.1151 151.861 53.2309 151.076 54.5368C150.417 55.6367 151.308 56.2687 151.576 57.2717C151.651 57.646 151.635 58.0331 151.528 58.3997C151.421 58.7663 151.227 59.1015 150.962 59.3765C150.084 60.4464 148.462 61.1323 148.497 62.7422C148.53 64.0861 148.57 65.285 147.245 66.042C146.336 66.5639 144.771 66.8979 144.645 68.1598C144.686 68.6053 144.749 69.0485 144.834 69.4877C144.793 69.841 144.663 70.1783 144.458 70.469C144.253 70.7596 143.978 70.9943 143.659 71.1515C142.296 71.9295 141.04 72.8832 139.924 73.9883C139.439 74.4882 137.689 75.5042 138.14 76.4051C137.321 74.7672 136.432 73.1614 135.726 71.4685C135.146 70.0766 134.261 68.0348 135.389 66.6689C135.74 66.2449 136.289 65.9849 136.524 65.486C136.944 64.586 136.182 63.5311 135.99 62.6612C135.864 61.9899 135.94 61.2962 136.209 60.6684C136.479 60.0407 136.929 59.5074 137.503 59.1365C138.084 58.8375 138.546 58.3499 138.813 57.7536C138.892 57.0549 138.83 56.3474 138.632 55.6728C138.568 55.0433 138.564 54.4092 138.62 53.7789C138.64 53.3365 138.736 52.9009 138.904 52.491C139.25 51.7251 140.057 51.4171 140.703 50.9501C142.235 49.8372 141.87 48.1154 142.727 46.6505C143.492 45.3356 144.541 45.7326 145.58 45.9246Z" fill="white"/>
</mask>
<g mask="url(#mask2_2_1026)">
<path d="M137.694 77.9959C138.311 72.4908 139.677 67.0955 141.752 61.9591C143.623 57.0019 145.959 52.2327 148.729 47.7153C149.658 46.2374 150.668 44.8123 151.756 43.4467" stroke="#3DC8E8" stroke-width="4.9996" stroke-miterlimit="10"/>
<path d="M154.648 51.531C151.796 51.9647 149.013 52.7671 146.368 53.918C145.798 54.107 145.254 54.3688 144.751 54.697" stroke="#3DC8E8" stroke-width="4.9996" stroke-miterlimit="10"/>
<path d="M142.378 60.2625C145.266 59.094 148.364 58.531 151.478 58.6085" stroke="#3DC8E8" stroke-width="4.9996" stroke-miterlimit="10"/>
<path d="M140.031 67.0599C142.825 65.4463 145.976 64.5528 149.2 64.46" stroke="#3DC8E8" stroke-width="4.9996" stroke-miterlimit="10"/>
<path d="M144.918 54.5446C145.279 51.6331 145.107 48.6804 144.41 45.8306" stroke="#3DC8E8" stroke-width="4.9996" stroke-miterlimit="10"/>
<path d="M142.453 60.032C141.733 57.2015 140.44 54.5488 138.654 52.238" stroke="#3DC8E8" stroke-width="4.9996" stroke-miterlimit="10"/>
<path d="M139.835 67.2294C139.82 66.3953 139.675 65.5685 139.405 64.7793C139.066 63.8715 138.636 63.0004 138.121 62.1793C137.767 61.5793 137.403 60.9844 137.031 60.3944" stroke="#3DC8E8" stroke-width="4.9996" stroke-miterlimit="10"/>
</g>
<path d="M131.139 76.0881H144.915L142.498 89.874H133.556L131.139 76.0881Z" fill="#EFB126"/>
<path d="M129.453 76.0881H146.602V72.2184H129.453V76.0881Z" fill="#FFC73C"/>
<path opacity="0.1" d="M144.591 77.917H131.456L131.135 76.0891H144.911L144.591 77.917Z" fill="#231F20"/>
<path d="M149.376 94.9824H3.41165C2.71428 94.9987 2.03891 94.7377 1.53399 94.2564C1.02907 93.7751 0.735785 93.113 0.71875 92.4157C0.735785 91.7183 1.02907 91.0562 1.53399 90.5749C2.03891 90.0936 2.71428 89.8325 3.41165 89.8489H149.376C150.073 89.8325 150.749 90.0936 151.254 90.5749C151.758 91.0562 152.052 91.7183 152.069 92.4157C152.052 93.113 151.758 93.7751 151.254 94.2564C150.749 94.7377 150.073 94.9987 149.376 94.9824Z" fill="#DBCDFE"/>
<path d="M35.468 3.41467H30.0155C28.8987 3.4181 27.8287 3.86326 27.039 4.65292C26.2494 5.44258 25.8043 6.51262 25.8008 7.62936C25.8021 8.31214 25.9691 8.98442 26.2875 9.58843C26.6059 10.1924 27.0661 10.7102 27.6287 11.0971V14.0638L30.6624 11.845H35.469C36.5858 11.8416 37.6558 11.3964 38.4455 10.6068C39.2351 9.81712 39.6802 8.74708 39.6836 7.63034C39.6805 6.51325 39.2354 5.44282 38.4455 4.65292C37.6556 3.86301 36.5851 3.41784 35.468 3.41467Z" fill="#F47D31"/>
<path d="M29.6875 8.26645C30.041 8.26645 30.3275 7.97991 30.3275 7.62645C30.3275 7.27299 30.041 6.98645 29.6875 6.98645C29.3341 6.98645 29.0475 7.27299 29.0475 7.62645C29.0475 7.97991 29.3341 8.26645 29.6875 8.26645Z" fill="white"/>
<path d="M32.7413 8.26645C33.0948 8.26645 33.3813 7.97991 33.3813 7.62645C33.3813 7.27299 33.0948 6.98645 32.7413 6.98645C32.3878 6.98645 32.1013 7.27299 32.1013 7.62645C32.1013 7.97991 32.3878 8.26645 32.7413 8.26645Z" fill="white"/>
<path d="M35.7961 8.26645C36.1495 8.26645 36.4361 7.97991 36.4361 7.62645C36.4361 7.27299 36.1495 6.98645 35.7961 6.98645C35.4426 6.98645 35.1561 7.27299 35.1561 7.62645C35.1561 7.97991 35.4426 8.26645 35.7961 8.26645Z" fill="white"/>
<path d="M104.902 42.1395C104.061 40.7005 101.939 39.9785 99.8873 42.3765C97.8363 39.9765 95.7132 40.7015 94.8732 42.1395C92.8012 45.6845 99.8873 49.8565 99.8873 49.8565C99.8873 49.8565 106.974 45.6845 104.902 42.1395Z" fill="#F47D31"/>
<path d="M44.6253 26.8346H40.1907C37.4063 26.8346 35.1491 29.0918 35.1491 31.8762C35.1491 34.6606 37.4063 36.9178 40.1907 36.9178H44.6253C47.4097 36.9178 49.6669 34.6606 49.6669 31.8762C49.6669 29.0918 47.4097 26.8346 44.6253 26.8346Z" fill="#F47D31"/>
<path d="M42.4087 40.1038L44.9547 36.6708H39.8637L42.4087 40.1038Z" fill="#F47D31"/>
<path d="M46.2273 33.1733H45.5993V31.4534L45.6054 31.1703L45.6153 30.8613C45.5113 30.966 45.439 31.0343 45.3983 31.0663L45.0573 31.3403L44.7574 30.9623L45.7154 30.2003H46.2314L46.2273 33.1733Z" fill="white"/>
<path d="M41.5719 30.1013H39.5109C39.089 30.1032 38.6849 30.2716 38.3865 30.5699C38.0882 30.8683 37.9197 31.2724 37.9179 31.6943C37.9185 31.9523 37.9816 32.2063 38.102 32.4344C38.2223 32.6626 38.3963 32.8582 38.6089 33.0043V34.1234L39.7549 33.2853H41.5708C41.9928 33.2835 42.3969 33.1151 42.6952 32.8167C42.9936 32.5184 43.162 32.1142 43.1638 31.6923C43.1615 31.2709 42.9929 30.8675 42.6949 30.5696C42.3968 30.2717 41.9933 30.1034 41.5719 30.1013Z" fill="white"/>
</g>
<defs>
<clipPath id="clip0_2_1026">
<rect width="152.844" height="94.9924" fill="white" transform="translate(0.71875 0.00378418)"/>
</clipPath>
</defs>
</svg>
