<svg width="145" height="88" viewBox="0 0 145 88" fill="none" xmlns="http://www.w3.org/2000/svg">
<g clip-path="url(#clip0_3_1412)">
<path d="M47.1406 18H7.14062C3.27463 18 0.140625 21.134 0.140625 25V81C0.140625 84.866 3.27463 88 7.14062 88H47.1406C51.0066 88 54.1406 84.866 54.1406 81V25C54.1406 21.134 51.0066 18 47.1406 18Z" fill="#F6F6F6"/>
<path d="M41.6406 28H12.6406C11.2599 28 10.1406 29.1193 10.1406 30.5C10.1406 31.8807 11.2599 33 12.6406 33H41.6406C43.0213 33 44.1406 31.8807 44.1406 30.5C44.1406 29.1193 43.0213 28 41.6406 28Z" fill="#F47D31"/>
<path d="M41.6406 39H12.6406C11.2599 39 10.1406 40.1193 10.1406 41.5C10.1406 42.8807 11.2599 44 12.6406 44H41.6406C43.0213 44 44.1406 42.8807 44.1406 41.5C44.1406 40.1193 43.0213 39 41.6406 39Z" fill="#F47D31"/>
<path d="M41.6406 50H12.6406C11.2599 50 10.1406 51.1193 10.1406 52.5C10.1406 53.8807 11.2599 55 12.6406 55H41.6406C43.0213 55 44.1406 53.8807 44.1406 52.5C44.1406 51.1193 43.0213 50 41.6406 50Z" fill="#F47D31"/>
<path d="M33.1406 69H20.1406C18.4838 69 17.1406 70.3431 17.1406 72C17.1406 73.6569 18.4838 75 20.1406 75H33.1406C34.7975 75 36.1406 73.6569 36.1406 72C36.1406 70.3431 34.7975 69 33.1406 69Z" fill="#F47D31"/>
<path d="M137.141 18H97.1406C93.2746 18 90.1406 21.134 90.1406 25V81C90.1406 84.866 93.2746 88 97.1406 88H137.141C141.007 88 144.141 84.866 144.141 81V25C144.141 21.134 141.007 18 137.141 18Z" fill="#F6F6F6"/>
<path d="M131.641 28H102.641C101.26 28 100.141 29.1193 100.141 30.5C100.141 31.8807 101.26 33 102.641 33H131.641C133.021 33 134.141 31.8807 134.141 30.5C134.141 29.1193 133.021 28 131.641 28Z" fill="#F47D31"/>
<path d="M131.641 39H102.641C101.26 39 100.141 40.1193 100.141 41.5C100.141 42.8807 101.26 44 102.641 44H131.641C133.021 44 134.141 42.8807 134.141 41.5C134.141 40.1193 133.021 39 131.641 39Z" fill="#F47D31"/>
<path d="M131.641 50H102.641C101.26 50 100.141 51.1193 100.141 52.5C100.141 53.8807 101.26 55 102.641 55H131.641C133.021 55 134.141 53.8807 134.141 52.5C134.141 51.1193 133.021 50 131.641 50Z" fill="#F47D31"/>
<path d="M125.141 69H110.141C108.484 69 107.141 70.3431 107.141 72C107.141 73.6569 108.484 75 110.141 75H125.141C126.797 75 128.141 73.6569 128.141 72C128.141 70.3431 126.797 69 125.141 69Z" fill="#F47D31"/>
<path d="M91.1406 0H53.1406C49.2746 0 46.1406 3.13401 46.1406 7V63C46.1406 66.866 49.2746 70 53.1406 70H91.1406C95.0066 70 98.1406 66.866 98.1406 63V7C98.1406 3.13401 95.0066 0 91.1406 0Z" fill="#504C99"/>
<path d="M90.1406 10H54.1406C52.4838 10 51.1406 11.3431 51.1406 13C51.1406 14.6569 52.4838 16 54.1406 16H90.1406C91.7975 16 93.1406 14.6569 93.1406 13C93.1406 11.3431 91.7975 10 90.1406 10Z" fill="white"/>
<path d="M91.1406 22H53.1406C52.0361 22 51.1406 22.8954 51.1406 24C51.1406 25.1046 52.0361 26 53.1406 26H91.1406C92.2452 26 93.1406 25.1046 93.1406 24C93.1406 22.8954 92.2452 22 91.1406 22Z" fill="white"/>
<path d="M90.6406 32H53.6406C52.2599 32 51.1406 33.1193 51.1406 34.5C51.1406 35.8807 52.2599 37 53.6406 37H90.6406C92.0213 37 93.1406 35.8807 93.1406 34.5C93.1406 33.1193 92.0213 32 90.6406 32Z" fill="white"/>
<path d="M79.1406 51H65.1406C63.4838 51 62.1406 52.3431 62.1406 54C62.1406 55.6569 63.4838 57 65.1406 57H79.1406C80.7975 57 82.1406 55.6569 82.1406 54C82.1406 52.3431 80.7975 51 79.1406 51Z" fill="white"/>
</g>
<defs>
<clipPath id="clip0_3_1412">
<rect width="144" height="88" fill="white" transform="translate(0.140625)"/>
</clipPath>
</defs>
</svg>
