<svg width="120" height="88" viewBox="0 0 120 88" fill="none" xmlns="http://www.w3.org/2000/svg">
<g clip-path="url(#clip0_2_834)">
<path d="M119.933 16.5017V87.5322H30.3661V16.5017H119.933ZM115.234 61.9776V58.0442C115.234 56.9861 114.813 55.9713 114.065 55.2232C113.317 54.475 112.302 54.0547 111.244 54.0547H105.899C104.841 54.055 103.826 54.4754 103.078 55.2235C102.33 55.9716 101.91 56.9862 101.91 58.0442V61.9776C101.91 63.0357 102.33 64.0504 103.078 64.7986C103.826 65.5468 104.841 65.9671 105.899 65.9671H111.244C111.768 65.9674 112.287 65.8644 112.771 65.664C113.255 65.4636 113.695 65.1697 114.066 64.7992C114.436 64.4287 114.73 63.9888 114.931 63.5046C115.131 63.0205 115.234 62.5016 115.234 61.9776ZM114.912 28.6501V24.7166C114.911 23.6587 114.491 22.6443 113.743 21.8962C112.995 21.1482 111.98 20.7277 110.922 20.7272H105.575C104.517 20.7277 103.503 21.1482 102.755 21.8962C102.007 22.6443 101.586 23.6587 101.586 24.7166V28.6501C101.586 29.7082 102.006 30.7229 102.754 31.4711C103.502 32.2193 104.517 32.6396 105.575 32.6396H110.92C111.444 32.6396 111.963 32.5364 112.447 32.3359C112.931 32.1354 113.371 31.8415 113.741 31.4711C114.112 31.1006 114.406 30.6608 114.606 30.1768C114.807 29.6928 114.91 29.174 114.91 28.6501H114.912ZM114.736 45.3139V41.3814C114.736 40.3233 114.316 39.3086 113.567 38.5604C112.819 37.8123 111.804 37.3919 110.746 37.3919H105.401C104.343 37.3925 103.329 37.813 102.582 38.5612C101.834 39.3093 101.414 40.3238 101.415 41.3814V45.3149C101.414 45.8386 101.517 46.3573 101.717 46.8413C101.917 47.3253 102.211 47.7652 102.581 48.1357C102.951 48.5062 103.391 48.8001 103.875 49.0006C104.359 49.2011 104.877 49.3043 105.401 49.3043H110.746C111.27 49.3043 111.789 49.2011 112.273 49.0005C112.757 48.7999 113.197 48.506 113.567 48.1354C113.937 47.7648 114.231 47.3249 114.431 46.8407C114.631 46.3566 114.734 45.8378 114.734 45.3139H114.736ZM99.006 61.9776V58.0442C99.0057 56.9862 98.5853 55.9716 97.8372 55.2235C97.0891 54.4754 96.0745 54.055 95.0165 54.0547H89.6712C88.6133 54.0552 87.5989 54.4757 86.8508 55.2238C86.1028 55.9718 85.6823 56.9863 85.6817 58.0442V61.9776C85.6817 63.0357 86.1021 64.0504 86.8502 64.7986C87.5984 65.5468 88.6131 65.9671 89.6712 65.9671H95.0165C96.0742 65.9666 97.0884 65.546 97.8362 64.7979C98.5839 64.0498 99.0039 63.0354 99.0039 61.9776H99.006ZM98.684 28.6501V24.7166C98.6834 23.6587 98.263 22.6443 97.5149 21.8962C96.7669 21.1482 95.7524 20.7277 94.6945 20.7272H89.3492C88.2912 20.7272 87.2764 21.1475 86.5283 21.8957C85.7801 22.6438 85.3598 23.6586 85.3598 24.7166V28.6501C85.3595 29.1741 85.4625 29.693 85.6629 30.1771C85.8633 30.6613 86.1572 31.1012 86.5277 31.4717C86.8982 31.8422 87.3381 32.136 87.8222 32.3364C88.3064 32.5368 88.8253 32.6398 89.3492 32.6396H94.6945C95.7524 32.6393 96.7669 32.2189 97.5149 31.4707C98.2628 30.7226 98.684 29.708 98.684 28.6501ZM98.508 45.3139V41.3814C98.508 40.3233 98.0877 39.3086 97.3395 38.5604C96.5914 37.8123 95.5766 37.3919 94.5185 37.3919H89.1733C88.1153 37.3922 87.1007 37.8126 86.3526 38.5607C85.6045 39.3088 85.1841 40.3234 85.1838 41.3814V45.3149C85.1838 46.3729 85.6041 47.3877 86.3523 48.1358C87.1005 48.884 88.1152 49.3043 89.1733 49.3043H94.5185C95.0425 49.3045 95.5614 49.2013 96.0455 49.0008C96.5296 48.8003 96.9694 48.5063 97.3398 48.1357C97.7102 47.7651 98.004 47.3252 98.2042 46.841C98.4045 46.3568 98.5084 45.8378 98.508 45.3139ZM82.4182 61.9776V58.0442C82.4182 56.9861 81.9979 55.9713 81.2497 55.2232C80.5015 54.475 79.4868 54.0547 78.4287 54.0547H73.0834C72.0258 54.0552 71.0117 54.4758 70.2641 55.224C69.5165 55.9721 69.0967 56.9865 69.097 58.0442V61.9776C69.0967 62.5014 69.1996 63.02 69.3998 63.504C69.6 63.9879 69.8936 64.4277 70.2638 64.7981C70.634 65.1686 71.0735 65.4625 71.5573 65.6631C72.0411 65.8637 72.5597 65.967 73.0834 65.9671H78.4287C78.9525 65.9671 79.4712 65.8639 79.9551 65.6634C80.439 65.4629 80.8787 65.169 81.249 64.7985C81.6193 64.428 81.913 63.9882 82.1132 63.5042C82.3135 63.0202 82.4164 62.5014 82.4162 61.9776H82.4182ZM82.2442 78.6414V74.7079C82.2437 73.65 81.8232 72.6356 81.0751 71.8875C80.3271 71.1395 79.3126 70.719 78.2547 70.7185H72.9094C71.8514 70.7185 70.8366 71.1388 70.0885 71.8869C69.3403 72.6351 68.92 73.6499 68.92 74.7079V78.6414C68.9197 79.1654 69.0227 79.6843 69.2231 80.1684C69.4235 80.6526 69.7174 81.0925 70.0879 81.463C70.4584 81.8335 70.8983 82.1273 71.3824 82.3277C71.8666 82.5281 72.3855 82.6311 72.9094 82.6309H78.2547C79.3118 82.6293 80.325 82.2083 81.0718 81.4603C81.8187 80.7123 82.2382 79.6984 82.2382 78.6414H82.2442ZM82.0962 28.6481V24.7146C82.0962 23.6566 81.6759 22.6418 80.9277 21.8937C80.1796 21.1455 79.1648 20.7252 78.1068 20.7252H72.7595C71.7016 20.7257 70.6871 21.1462 69.9391 21.8942C69.191 22.6423 68.7705 23.6567 68.77 24.7146V28.6481C68.77 29.7062 69.1903 30.7209 69.9385 31.4691C70.6867 32.2173 71.7014 32.6376 72.7595 32.6376H78.1047C78.6285 32.6378 79.1473 32.5349 79.6313 32.3346C80.1153 32.1343 80.5551 31.8407 80.9256 31.4704C81.2961 31.1001 81.59 30.6604 81.7905 30.1765C81.991 29.6926 82.0942 29.1739 82.0942 28.6501L82.0962 28.6481ZM81.9202 45.3119V41.3814C81.9202 40.3233 81.4999 39.3086 80.7518 38.5604C80.0036 37.8123 78.9889 37.3919 77.9308 37.3919H72.5855C71.5279 37.3925 70.5137 37.813 69.7662 38.5612C69.0186 39.3093 68.5988 40.3238 68.599 41.3814V45.3149C68.5986 45.8386 68.7015 46.3573 68.9016 46.8413C69.1018 47.3253 69.3954 47.7652 69.7656 48.1357C70.1358 48.5062 70.5754 48.8001 71.0592 49.0006C71.5431 49.2011 72.0617 49.3043 72.5855 49.3043H77.9308C78.4547 49.3043 78.9734 49.2011 79.4574 49.0005C79.9414 48.7999 80.3811 48.506 80.7514 48.1354C81.1217 47.7648 81.4154 47.3249 81.6156 46.8407C81.8158 46.3566 81.9186 45.8378 81.9183 45.3139L81.9202 45.3119ZM65.1535 61.9756V58.0422C65.1535 56.9841 64.7332 55.9694 63.985 55.2212C63.2368 54.473 62.2221 54.0527 61.164 54.0527H55.8188C54.7611 54.0532 53.747 54.4738 52.9994 55.222C52.2518 55.9701 51.832 56.9845 51.8323 58.0422V61.9756C51.832 62.4994 51.9349 63.018 52.1351 63.502C52.3353 63.9859 52.6289 64.4257 52.9991 64.7961C53.3693 65.1666 53.8089 65.4605 54.2927 65.6611C54.7765 65.8617 55.295 65.965 55.8188 65.9651H61.164C62.2216 65.9651 63.2358 65.545 63.9836 64.7972C64.7314 64.0494 65.1515 63.0352 65.1515 61.9776L65.1535 61.9756ZM64.9795 78.6394V74.7059C64.979 73.648 64.5585 72.6336 63.8105 71.8855C63.0624 71.1375 62.048 70.717 60.9901 70.7165H55.6418C55.1179 70.7165 54.5991 70.8197 54.1151 71.0201C53.631 71.2206 53.1912 71.5145 52.8208 71.8849C52.4503 72.2554 52.1565 72.6952 51.956 73.1792C51.7555 73.6632 51.6523 74.182 51.6523 74.7059V78.6394C51.652 79.1634 51.755 79.6823 51.9554 80.1664C52.1558 80.6506 52.4497 81.0905 52.8202 81.461C53.1907 81.8315 53.6306 82.1253 54.1148 82.3257C54.5989 82.5261 55.1178 82.6291 55.6418 82.6289H60.987C62.0449 82.6291 63.0597 82.2092 63.808 81.4614C64.5563 80.7137 64.977 79.6993 64.9775 78.6414L64.9795 78.6394ZM64.8315 28.6461V24.7126C64.8315 23.6546 64.4112 22.6398 63.663 21.8917C62.9149 21.1435 61.9001 20.7232 60.8421 20.7232H55.4968C54.4389 20.7237 53.4244 21.1442 52.6764 21.8923C51.9283 22.6403 51.5079 23.6547 51.5073 24.7126V28.6461C51.5073 29.7042 51.9276 30.7189 52.6758 31.4671C53.424 32.2153 54.4387 32.6356 55.4968 32.6356H60.8411C61.8984 32.6358 62.9126 32.2161 63.6606 31.4687C64.4085 30.7213 64.829 29.7075 64.8295 28.6501L64.8315 28.6461ZM64.6556 45.3099V41.3814C64.6558 40.3238 64.236 39.3093 63.4884 38.5612C62.7408 37.813 61.7267 37.3925 60.6691 37.3919H55.3238C54.2657 37.3919 53.251 37.8123 52.5028 38.5604C51.7547 39.3086 51.3343 40.3233 51.3343 41.3814V45.3149C51.3341 45.8389 51.4371 46.3577 51.6375 46.8419C51.8379 47.326 52.1317 47.7659 52.5022 48.1364C52.8728 48.5069 53.3127 48.8008 53.7968 49.0012C54.281 49.2016 54.7998 49.3046 55.3238 49.3043H60.6691C61.1928 49.3041 61.7113 49.2006 62.1949 48.9999C62.6786 48.7992 63.1181 48.5052 63.4881 48.1346C63.8581 47.764 64.1515 47.3242 64.3515 46.8402C64.5514 46.3562 64.6541 45.8375 64.6536 45.3139L64.6556 45.3099ZM48.5677 61.9736V58.0402C48.5675 56.9824 48.1472 55.9679 47.3993 55.2198C46.6514 54.4718 45.6371 54.0512 44.5792 54.0507H39.233C38.1749 54.0507 37.1602 54.471 36.412 55.2192C35.6638 55.9674 35.2435 56.9821 35.2435 58.0402V61.9736C35.2433 62.4976 35.3462 63.0165 35.5466 63.5006C35.747 63.9848 36.0409 64.4247 36.4114 64.7952C36.7819 65.1657 37.2218 65.4596 37.706 65.66C38.1901 65.8603 38.709 65.9634 39.233 65.9631H44.5792C45.6361 65.9623 46.6495 65.5422 47.3969 64.795C48.1443 64.0478 48.5646 63.0345 48.5657 61.9776L48.5677 61.9736ZM48.3917 78.6374V74.7039C48.3917 74.18 48.2886 73.6612 48.0881 73.1772C47.8876 72.6932 47.5937 72.2534 47.2233 71.8829C46.8528 71.5125 46.413 71.2186 45.929 71.0181C45.4449 70.8177 44.9262 70.7145 44.4023 70.7145H39.057C37.9991 70.715 36.9847 71.1355 36.2366 71.8835C35.4886 72.6316 35.068 73.646 35.0675 74.7039V78.6374C35.0675 79.6955 35.4879 80.7102 36.236 81.4584C36.9842 82.2066 37.9989 82.6269 39.057 82.6269H44.4023C45.4595 82.6269 46.4734 82.207 47.2211 81.4597C47.9689 80.7123 48.3892 79.6986 48.3897 78.6414L48.3917 78.6374ZM48.2438 28.6441V24.7106C48.244 23.653 47.8242 22.6386 47.0766 21.8904C46.329 21.1423 45.3149 20.7217 44.2573 20.7212H38.912C37.8539 20.7212 36.8392 21.1415 36.091 21.8897C35.3429 22.6378 34.9225 23.6526 34.9225 24.7106V28.6441C34.9223 29.1681 35.0253 29.687 35.2257 30.1711C35.4261 30.6553 35.7199 31.0952 36.0904 31.4657C36.461 31.8362 36.9009 32.13 37.385 32.3304C37.8692 32.5308 38.388 32.6338 38.912 32.6336H44.2573C45.3139 32.6333 46.3271 32.2136 47.0744 31.4667C47.8218 30.7198 48.242 29.7067 48.2427 28.6501L48.2438 28.6441ZM48.0708 45.3079V41.3814C48.0702 40.3235 47.6498 39.3091 46.9017 38.561C46.1537 37.8129 45.1392 37.3925 44.0813 37.3919H38.736C38.2121 37.3919 37.6934 37.4951 37.2093 37.6956C36.7253 37.8961 36.2855 38.19 35.9151 38.5604C35.5446 38.9309 35.2507 39.3707 35.0502 39.8547C34.8498 40.3387 34.7466 40.8575 34.7466 41.3814V45.3149C34.7463 45.8389 34.8493 46.3577 35.0497 46.8419C35.2501 47.326 35.544 47.7659 35.9145 48.1364C36.285 48.5069 36.7249 48.8008 37.209 49.0012C37.6932 49.2016 38.2121 49.3046 38.736 49.3043H44.0813C45.139 49.3035 46.1532 48.8827 46.9007 48.1344C47.6483 47.3861 48.068 46.3716 48.0678 45.3139L48.0708 45.3079Z" fill="#F6F6F6"/>
<path d="M119.933 5.05728V16.5007H30.3661V5.05728H34.8136C35.0485 7.23599 36.4943 8.86477 38.3041 8.86477C38.3861 8.87769 38.47 8.87268 38.55 8.85008C38.6299 8.82748 38.704 8.78783 38.7671 8.73386C38.8302 8.67989 38.8809 8.61287 38.9157 8.53743C38.9505 8.46199 38.9684 8.37991 38.9684 8.29684C38.9684 8.21378 38.9505 8.13171 38.9157 8.05627C38.8809 7.98083 38.8302 7.91381 38.7671 7.85984C38.704 7.80586 38.6299 7.76621 38.55 7.74361C38.47 7.72101 38.3861 7.71601 38.3041 7.72893C37.2552 7.72893 36.3494 6.55708 36.1474 5.05728H46.089C46.324 7.23599 47.7698 8.86477 49.5796 8.86477C49.6616 8.87769 49.7455 8.87268 49.8255 8.85008C49.9054 8.82748 49.9794 8.78783 50.0426 8.73386C50.1057 8.67989 50.1564 8.61287 50.1912 8.53743C50.2259 8.46199 50.2439 8.37991 50.2439 8.29684C50.2439 8.21378 50.2259 8.13171 50.1912 8.05627C50.1564 7.98083 50.1057 7.91381 50.0426 7.85984C49.9794 7.80586 49.9054 7.76621 49.8255 7.74361C49.7455 7.72101 49.6616 7.71601 49.5796 7.72893C48.5307 7.72893 47.6239 6.55708 47.4229 5.05728H57.7115C57.9464 7.23599 59.3953 8.86477 61.205 8.86477C61.2871 8.87769 61.3709 8.87268 61.4509 8.85008C61.5308 8.82748 61.6049 8.78783 61.668 8.73386C61.7312 8.67989 61.7819 8.61287 61.8166 8.53743C61.8514 8.46199 61.8694 8.37991 61.8694 8.29684C61.8694 8.21378 61.8514 8.13171 61.8166 8.05627C61.7819 7.98083 61.7312 7.91381 61.668 7.85984C61.6049 7.80586 61.5308 7.76621 61.4509 7.74361C61.3709 7.72101 61.2871 7.71601 61.205 7.72893C60.1562 7.72893 59.2503 6.55708 59.0483 5.05728H68.987C69.2219 7.23599 70.6707 8.86477 72.4805 8.86477C72.5625 8.87769 72.6464 8.87268 72.7264 8.85008C72.8063 8.82748 72.8804 8.78783 72.9435 8.73386C73.0066 8.67989 73.0573 8.61287 73.0921 8.53743C73.1269 8.46199 73.1449 8.37991 73.1449 8.29684C73.1449 8.21378 73.1269 8.13171 73.0921 8.05627C73.0573 7.98083 73.0066 7.91381 72.9435 7.85984C72.8804 7.80586 72.8063 7.76621 72.7264 7.74361C72.6464 7.72101 72.5625 7.71601 72.4805 7.72893C71.4316 7.72893 70.5248 6.55708 70.3238 5.05728H81.7623C81.9972 7.23599 83.446 8.86477 85.2528 8.86477C85.3348 8.87769 85.4187 8.87268 85.4986 8.85008C85.5786 8.82748 85.6527 8.78783 85.7158 8.73386C85.7789 8.67989 85.8296 8.61287 85.8644 8.53743C85.8992 8.46199 85.9172 8.37991 85.9172 8.29684C85.9172 8.21378 85.8992 8.13171 85.8644 8.05627C85.8296 7.98083 85.7789 7.91381 85.7158 7.85984C85.6527 7.80586 85.5786 7.76621 85.4986 7.74361C85.4187 7.72101 85.3348 7.71601 85.2528 7.72893C84.2069 7.72893 83.3001 6.55708 83.0991 5.05728H93.0378C93.2727 7.23599 94.7215 8.86477 96.5283 8.86477C96.6103 8.87769 96.6942 8.87268 96.7741 8.85008C96.8541 8.82748 96.9282 8.78783 96.9913 8.73386C97.0544 8.67989 97.1051 8.61287 97.1399 8.53743C97.1746 8.46199 97.1926 8.37991 97.1926 8.29684C97.1926 8.21378 97.1746 8.13171 97.1399 8.05627C97.1051 7.98083 97.0544 7.91381 96.9913 7.85984C96.9282 7.80586 96.8541 7.76621 96.7741 7.74361C96.6942 7.72101 96.6103 7.71601 96.5283 7.72893C95.4794 7.72893 94.5725 6.55708 94.3746 5.05728H104.663C104.898 7.23599 106.344 8.86477 108.154 8.86477C108.236 8.87769 108.32 8.87268 108.4 8.85008C108.48 8.82748 108.554 8.78783 108.617 8.73386C108.68 8.67989 108.731 8.61287 108.765 8.53743C108.8 8.46199 108.818 8.37991 108.818 8.29684C108.818 8.21378 108.8 8.13171 108.765 8.05627C108.731 7.98083 108.68 7.91381 108.617 7.85984C108.554 7.80586 108.48 7.76621 108.4 7.74361C108.32 7.72101 108.236 7.71601 108.154 7.72893C107.105 7.72893 106.199 6.55708 105.997 5.05728H119.933Z" fill="#F47D31"/>
<path d="M109.276 54.0557H107.863C104.574 54.0557 101.908 56.7219 101.908 60.0109V60.0119C101.908 63.3008 104.574 65.9671 107.863 65.9671H109.276C112.565 65.9671 115.231 63.3008 115.231 60.0119V60.0109C115.231 56.7219 112.565 54.0557 109.276 54.0557Z" fill="#F47D31"/>
<path d="M108.955 20.7282H107.542C104.253 20.7282 101.587 23.3944 101.587 26.6834V26.6844C101.587 29.9733 104.253 32.6396 107.542 32.6396H108.955C112.244 32.6396 114.91 29.9733 114.91 26.6844V26.6834C114.91 23.3944 112.244 20.7282 108.955 20.7282Z" fill="#F47D31"/>
<path d="M114.734 41.3814V45.3149C114.734 45.8389 114.631 46.3578 114.431 46.8419C114.23 47.3261 113.936 47.766 113.566 48.1365C113.195 48.507 112.756 48.8008 112.271 49.0012C111.787 49.2016 111.268 49.3046 110.744 49.3044H105.399C104.875 49.3044 104.357 49.2011 103.873 49.0006C103.389 48.8001 102.949 48.5062 102.579 48.1357C102.209 47.7652 101.915 47.3254 101.715 46.8414C101.515 46.3574 101.412 45.8387 101.413 45.3149V41.3814C101.412 40.3238 101.832 39.3094 102.58 38.5612C103.327 37.8131 104.341 37.3925 105.399 37.392H110.744C111.802 37.392 112.817 37.8123 113.565 38.5605C114.313 39.3086 114.734 40.3234 114.734 41.3814Z" fill="#F47D31"/>
<path d="M93.0487 54.0557H91.6359C88.347 54.0557 85.6807 56.7219 85.6807 60.0109V60.0119C85.6807 63.3008 88.347 65.9671 91.6359 65.9671H93.0487C96.3377 65.9671 99.0039 63.3008 99.0039 60.0119V60.0109C99.0039 56.7219 96.3377 54.0557 93.0487 54.0557Z" fill="#F47D31"/>
<path d="M92.7268 20.7282H91.314C88.025 20.7282 85.3588 23.3944 85.3588 26.6834V26.6844C85.3588 29.9733 88.025 32.6396 91.314 32.6396H92.7268C96.0157 32.6396 98.682 29.9733 98.682 26.6844V26.6834C98.682 23.3944 96.0157 20.7282 92.7268 20.7282Z" fill="#F47D31"/>
<path d="M92.5508 37.3919H91.138C87.849 37.3919 85.1828 40.0581 85.1828 43.3471V43.3481C85.1828 46.6371 87.849 49.3033 91.138 49.3033H92.5508C95.8398 49.3033 98.506 46.6371 98.506 43.3481V43.3471C98.506 40.0581 95.8398 37.3919 92.5508 37.3919Z" fill="#F47D31"/>
<path d="M82.4162 58.0451V61.9786C82.4164 62.5026 82.3134 63.0215 82.113 63.5056C81.9126 63.9898 81.6188 64.4297 81.2483 64.8002C80.8778 65.1707 80.4379 65.4645 79.9537 65.6649C79.4696 65.8653 78.9507 65.9683 78.4267 65.9681H73.0814C72.5577 65.9679 72.0391 65.8646 71.5553 65.6641C71.0715 65.4635 70.632 65.1696 70.2618 64.7991C69.8916 64.4287 69.598 63.9889 69.3978 63.5049C69.1976 63.021 69.0947 62.5023 69.095 61.9786V58.0451C69.0947 56.9875 69.5145 55.9731 70.2621 55.2249C71.0097 54.4768 72.0238 54.0562 73.0814 54.0557H78.4297C79.4873 54.0565 80.5012 54.4771 81.2487 55.2252C81.9963 55.9733 82.4162 56.9876 82.4162 58.0451Z" fill="#F47D31"/>
<path d="M76.287 70.7195H74.8742C71.5852 70.7195 68.919 73.3857 68.919 76.6747V76.6757C68.919 79.9646 71.5852 82.6309 74.8742 82.6309H76.287C79.576 82.6309 82.2422 79.9646 82.2422 76.6757V76.6747C82.2422 73.3857 79.576 70.7195 76.287 70.7195Z" fill="#F47D31"/>
<path d="M76.139 20.7282H74.7262C71.4372 20.7282 68.771 23.3944 68.771 26.6834V26.6844C68.771 29.9733 71.4372 32.6396 74.7262 32.6396H76.139C79.428 32.6396 82.0942 29.9733 82.0942 26.6844V26.6834C82.0942 23.3944 79.428 20.7282 76.139 20.7282Z" fill="#F47D31"/>
<path d="M81.9183 41.3814V45.3149C81.9185 45.8389 81.8155 46.3578 81.6151 46.8419C81.4147 47.3261 81.1209 47.766 80.7504 48.1365C80.3798 48.507 79.9399 48.8008 79.4558 49.0012C78.9716 49.2016 78.4527 49.3046 77.9288 49.3044H72.5835C72.0597 49.3044 71.5411 49.2011 71.0573 49.0006C70.5734 48.8001 70.1338 48.5062 69.7636 48.1357C69.3934 47.7652 69.0998 47.3254 68.8996 46.8414C68.6995 46.3574 68.5967 45.8387 68.597 45.3149V41.3814C68.5968 40.3238 69.0166 39.3094 69.7642 38.5612C70.5117 37.8131 71.5259 37.3925 72.5835 37.392H77.9288C78.9868 37.392 80.0016 37.8123 80.7498 38.5605C81.4979 39.3086 81.9183 40.3234 81.9183 41.3814Z" fill="#F47D31"/>
<path d="M65.1515 58.0451V61.9786C65.1517 62.5026 65.0487 63.0215 64.8484 63.5056C64.648 63.9898 64.3541 64.4297 63.9836 64.8002C63.6131 65.1707 63.1732 65.4645 62.689 65.6649C62.2049 65.8653 61.686 65.9683 61.162 65.9681H55.8167C55.293 65.9679 54.7745 65.8646 54.2907 65.6641C53.8069 65.4635 53.3673 65.1696 52.9971 64.7991C52.6269 64.4287 52.3333 63.9889 52.1331 63.5049C51.9329 63.021 51.83 62.5023 51.8303 61.9786V58.0451C51.83 56.9875 52.2498 55.9731 52.9974 55.2249C53.745 54.4768 54.7591 54.0562 55.8167 54.0557H61.162C62.2201 54.0557 63.2348 54.476 63.983 55.2241C64.7312 55.9723 65.1515 56.9871 65.1515 58.0451Z" fill="#F47D31"/>
<path d="M59.0223 70.7195H57.6095C54.3205 70.7195 51.6543 73.3857 51.6543 76.6747V76.6757C51.6543 79.9646 54.3205 82.6309 57.6095 82.6309H59.0223C62.3113 82.6309 64.9775 79.9646 64.9775 76.6757V76.6747C64.9775 73.3857 62.3113 70.7195 59.0223 70.7195Z" fill="#F47D31"/>
<path d="M58.8733 20.7282H57.4605C54.1715 20.7282 51.5053 23.3944 51.5053 26.6834V26.6844C51.5053 29.9733 54.1715 32.6396 57.4605 32.6396H58.8733C62.1623 32.6396 64.8285 29.9733 64.8285 26.6844V26.6834C64.8285 23.3944 62.1623 20.7282 58.8733 20.7282Z" fill="#F47D31"/>
<path d="M64.6485 41.3814V45.3149C64.6489 45.8387 64.5461 46.3574 64.346 46.8414C64.1458 47.3254 63.8522 47.7652 63.482 48.1357C63.1118 48.5062 62.6722 48.8001 62.1883 49.0006C61.7045 49.2011 61.1858 49.3044 60.6621 49.3044H55.3168C54.7928 49.3046 54.2739 49.2016 53.7898 49.0012C53.3057 48.8008 52.8657 48.507 52.4952 48.1365C52.1247 47.766 51.8309 47.3261 51.6305 46.8419C51.4301 46.3578 51.3271 45.8389 51.3273 45.3149V41.3814C51.3273 40.3234 51.7476 39.3086 52.4958 38.5605C53.244 37.8123 54.2587 37.392 55.3168 37.392H60.6621C61.7197 37.3925 62.7339 37.8131 63.4814 38.5612C64.229 39.3094 64.6488 40.3238 64.6485 41.3814Z" fill="#F47D31"/>
<path d="M42.6095 54.0557H41.1967C37.9078 54.0557 35.2415 56.7219 35.2415 60.0109V60.0119C35.2415 63.3008 37.9078 65.9671 41.1967 65.9671H42.6095C45.8985 65.9671 48.5647 63.3008 48.5647 60.0119V60.0109C48.5647 56.7219 45.8985 54.0557 42.6095 54.0557Z" fill="#F47D31"/>
<path d="M42.4336 70.7195H41.0208C37.7318 70.7195 35.0656 73.3857 35.0656 76.6747V76.6757C35.0656 79.9646 37.7318 82.6309 41.0208 82.6309H42.4336C45.7225 82.6309 48.3888 79.9646 48.3888 76.6757V76.6747C48.3888 73.3857 45.7225 70.7195 42.4336 70.7195Z" fill="#F47D31"/>
<path d="M48.2418 24.7176V28.6511C48.2422 29.1749 48.1393 29.6936 47.9392 30.1776C47.739 30.6616 47.4454 31.1014 47.0752 31.4719C46.705 31.8424 46.2654 32.1363 45.7815 32.3368C45.2977 32.5374 44.7791 32.6406 44.2553 32.6406H38.91C38.386 32.6408 37.8671 32.5378 37.383 32.3374C36.8989 32.137 36.4589 31.8432 36.0884 31.4727C35.7179 31.1022 35.4241 30.6623 35.2237 30.1781C35.0233 29.694 34.9203 29.1751 34.9205 28.6511V24.7176C34.9205 23.6596 35.3409 22.6448 36.089 21.8967C36.8372 21.1485 37.8519 20.7282 38.91 20.7282H44.2553C45.3129 20.7287 46.3271 21.1493 47.0746 21.8974C47.8222 22.6456 48.242 23.66 48.2418 24.7176Z" fill="#F47D31"/>
<path d="M42.1116 37.3919H40.6988C37.4098 37.3919 34.7436 40.0581 34.7436 43.3471V43.3481C34.7436 46.6371 37.4098 49.3033 40.6988 49.3033H42.1116C45.4006 49.3033 48.0668 46.6371 48.0668 43.3481V43.3471C48.0668 40.0581 45.4006 37.3919 42.1116 37.3919Z" fill="#F47D31"/>
<path d="M41.6226 2.91756C41.6395 2.99486 41.64 3.07483 41.6242 3.15235C41.6083 3.22986 41.5765 3.30321 41.5306 3.3677C41.4848 3.43218 41.426 3.48637 41.3579 3.5268C41.2899 3.56723 41.2142 3.593 41.1357 3.60247C40.9744 3.6432 40.8038 3.62323 40.6563 3.54635C40.5088 3.46947 40.3948 3.34105 40.3358 3.18552C39.9888 1.96069 39.1719 1.1358 38.3081 1.1358C37.1162 1.1358 36.1084 2.6466 36.1084 4.43536C36.1082 4.64404 36.1222 4.8525 36.1504 5.05927C36.3503 6.55907 37.2582 7.73091 38.3071 7.73091C38.3891 7.71799 38.473 7.723 38.5529 7.7456C38.6329 7.7682 38.7069 7.80786 38.7701 7.86183C38.8332 7.9158 38.8839 7.98281 38.9187 8.05825C38.9534 8.13369 38.9714 8.21577 38.9714 8.29884C38.9714 8.3819 38.9534 8.46398 38.9187 8.53942C38.8839 8.61486 38.8332 8.68188 38.7701 8.73585C38.7069 8.78982 38.6329 8.82947 38.5529 8.85207C38.473 8.87467 38.3891 8.87968 38.3071 8.86676C36.4973 8.86676 35.0515 7.23898 34.8165 5.05927C34.7938 4.85208 34.7824 4.64379 34.7825 4.43536C34.7825 1.94869 36.3293 0.00195312 38.3071 0.00195312C39.104 0.0537716 39.8615 0.367875 40.4612 0.895281C41.061 1.42269 41.4693 2.13375 41.6226 2.91756Z" fill="#6354B2"/>
<path d="M64.5246 2.91756C64.5414 2.99509 64.5419 3.07528 64.5258 3.15298C64.5098 3.23068 64.4777 3.30417 64.4315 3.3687C64.3854 3.43322 64.3262 3.48736 64.2578 3.52763C64.1895 3.56789 64.1135 3.59339 64.0346 3.60247C63.8734 3.64365 63.7026 3.62389 63.555 3.54695C63.4074 3.47001 63.2933 3.34132 63.2347 3.18552C62.8848 1.96069 62.0709 1.1358 61.206 1.1358C60.0142 1.1358 59.0063 2.6466 59.0063 4.43536C59.0061 4.64404 59.0201 4.8525 59.0483 5.05927C59.2483 6.55907 60.1561 7.73091 61.205 7.73091C61.2871 7.71799 61.371 7.723 61.4509 7.7456C61.5308 7.7682 61.6049 7.80786 61.668 7.86183C61.7312 7.9158 61.7819 7.98281 61.8166 8.05825C61.8514 8.13369 61.8694 8.21577 61.8694 8.29884C61.8694 8.3819 61.8514 8.46398 61.8166 8.53942C61.7819 8.61486 61.7312 8.68188 61.668 8.73585C61.6049 8.78982 61.5308 8.82947 61.4509 8.85207C61.371 8.87467 61.2871 8.87968 61.205 8.86676C59.3952 8.86676 57.9465 7.23898 57.7115 5.05927C57.6886 4.85209 57.6772 4.6438 57.6775 4.43536C57.6775 1.94869 59.2273 0.00195312 61.205 0.00195312C62.0027 0.0529187 62.7611 0.366637 63.3616 0.894114C63.9622 1.42159 64.3711 2.13312 64.5246 2.91756Z" fill="#6354B2"/>
<path d="M75.8001 2.91756C75.8169 2.99509 75.8174 3.07528 75.8013 3.15298C75.7853 3.23068 75.7532 3.30417 75.707 3.3687C75.6609 3.43322 75.6017 3.48736 75.5334 3.52763C75.465 3.56789 75.3889 3.59339 75.3101 3.60247C75.1488 3.64365 74.9781 3.62389 74.8304 3.54695C74.6828 3.47001 74.5688 3.34132 74.5102 3.18552C74.1613 1.96069 73.3464 1.1358 72.4825 1.1358C71.2907 1.1358 70.2828 2.6466 70.2828 4.43536C70.2826 4.64404 70.2966 4.8525 70.3248 5.05927C70.5248 6.55907 71.4327 7.73091 72.4815 7.73091C72.5636 7.71799 72.6474 7.723 72.7274 7.7456C72.8073 7.7682 72.8814 7.80786 72.9445 7.86183C73.0077 7.9158 73.0583 7.98281 73.0931 8.05825C73.1279 8.13369 73.1459 8.21577 73.1459 8.29884C73.1459 8.3819 73.1279 8.46398 73.0931 8.53942C73.0583 8.61486 73.0077 8.68188 72.9445 8.73585C72.8814 8.78982 72.8073 8.82947 72.7274 8.85207C72.6474 8.87467 72.5636 8.87968 72.4815 8.86676C70.6718 8.86676 69.2229 7.23898 68.988 5.05927C68.9652 4.85208 68.9539 4.64379 68.954 4.43536C68.954 1.94869 70.5038 0.00195312 72.4815 0.00195312C73.2789 0.0536329 74.0367 0.367625 74.637 0.894999C75.2372 1.42237 75.6462 2.1335 75.8001 2.91756Z" fill="#6354B2"/>
<path d="M88.5764 2.91756C88.5929 2.99499 88.5931 3.075 88.577 3.15252C88.5609 3.23004 88.5289 3.30336 88.4829 3.3678C88.4369 3.43223 88.3779 3.48638 88.3098 3.52679C88.2418 3.56719 88.166 3.59297 88.0874 3.60247C87.9261 3.64297 87.7557 3.62289 87.6082 3.54604C87.4608 3.46919 87.3467 3.34091 87.2875 3.18552C86.9406 1.96069 86.1267 1.1358 85.2598 1.1358C84.0709 1.1358 83.0601 2.6466 83.0601 4.43536C83.0599 4.64404 83.0739 4.8525 83.1021 5.05927C83.3021 6.55907 84.2099 7.73091 85.2558 7.73091C85.3378 7.71799 85.4217 7.723 85.5017 7.7456C85.5816 7.7682 85.6557 7.80786 85.7188 7.86183C85.7819 7.9158 85.8326 7.98281 85.8674 8.05825C85.9022 8.13369 85.9202 8.21577 85.9202 8.29884C85.9202 8.3819 85.9022 8.46398 85.8674 8.53942C85.8326 8.61486 85.7819 8.68188 85.7188 8.73585C85.6557 8.78982 85.5816 8.82947 85.5017 8.85207C85.4217 8.87467 85.3378 8.87968 85.2558 8.86676C83.449 8.86676 82.0002 7.23898 81.7653 5.05927C81.7425 4.85208 81.7312 4.64379 81.7313 4.43536C81.7313 1.94869 83.281 0.00195312 85.2558 0.00195312C86.0535 0.0532068 86.8118 0.367003 87.4125 0.894411C88.0131 1.42182 88.4224 2.13319 88.5764 2.91756Z" fill="#6354B2"/>
<path d="M99.8488 2.91756C99.8657 2.99486 99.8662 3.07483 99.8504 3.15235C99.8345 3.22986 99.8027 3.30321 99.7568 3.3677C99.711 3.43218 99.6522 3.48637 99.5841 3.5268C99.5161 3.56723 99.4404 3.593 99.3619 3.60247C99.2006 3.64343 99.0299 3.62355 98.8824 3.54664C98.7348 3.46974 98.6208 3.34118 98.562 3.18552C98.215 1.96069 97.4011 1.1358 96.5343 1.1358C95.3424 1.1358 94.3345 2.6466 94.3345 4.43536C94.3344 4.64404 94.3484 4.8525 94.3766 5.05927C94.5765 6.55907 95.4814 7.73091 96.5303 7.73091C96.6123 7.71799 96.6962 7.723 96.7761 7.7456C96.856 7.7682 96.9301 7.80786 96.9933 7.86183C97.0564 7.9158 97.1071 7.98281 97.1419 8.05825C97.1766 8.13369 97.1946 8.21577 97.1946 8.29884C97.1946 8.3819 97.1766 8.46398 97.1419 8.53942C97.1071 8.61486 97.0564 8.68188 96.9933 8.73585C96.9301 8.78982 96.856 8.82947 96.7761 8.85207C96.6962 8.87467 96.6123 8.87968 96.5303 8.86676C94.7235 8.86676 93.2747 7.23898 93.0397 5.05927C93.0168 4.85209 93.0055 4.6438 93.0057 4.43536C93.0057 1.94869 94.5555 0.00195312 96.5303 0.00195312C97.3279 0.0527974 98.0862 0.366499 98.6866 0.894015C99.287 1.42153 99.6957 2.13313 99.8488 2.91756Z" fill="#6354B2"/>
<path d="M52.8981 2.91756C52.915 2.99501 52.9155 3.07513 52.8995 3.15277C52.8835 3.23041 52.8515 3.30385 52.8054 3.36836C52.7594 3.43287 52.7003 3.48703 52.6321 3.52735C52.5638 3.56767 52.4879 3.59326 52.4092 3.60247C52.2479 3.64365 52.0771 3.62389 51.9295 3.54695C51.7819 3.47001 51.6679 3.34132 51.6093 3.18552C51.2624 1.96069 50.4454 1.1358 49.5816 1.1358C48.3897 1.1358 47.3819 2.6466 47.3819 4.43536C47.3817 4.64404 47.3957 4.8525 47.4239 5.05927C47.6238 6.55907 48.5317 7.73091 49.5806 7.73091C49.6626 7.71799 49.7465 7.723 49.8264 7.7456C49.9064 7.7682 49.9805 7.80786 50.0436 7.86183C50.1067 7.9158 50.1574 7.98281 50.1922 8.05825C50.2269 8.13369 50.2449 8.21577 50.2449 8.29884C50.2449 8.3819 50.2269 8.46398 50.1922 8.53942C50.1574 8.61486 50.1067 8.68188 50.0436 8.73585C49.9805 8.78982 49.9064 8.82947 49.8264 8.85207C49.7465 8.87467 49.6626 8.87968 49.5806 8.86676C47.7708 8.86676 46.325 7.23898 46.09 5.05927C46.0671 4.85209 46.0558 4.6438 46.056 4.43536C46.056 1.94869 47.6029 0.00195312 49.5806 0.00195312C50.3779 0.0533453 51.1358 0.36726 51.7359 0.894701C52.3361 1.42214 52.7448 2.13343 52.8981 2.91756Z" fill="#6354B2"/>
<path d="M110.988 3.60347C110.827 3.64421 110.656 3.62423 110.509 3.54735C110.361 3.47047 110.247 3.34205 110.188 3.18653C109.842 1.9617 109.028 1.1368 108.16 1.1368C106.968 1.1368 105.96 2.6476 105.96 4.43636C105.96 4.64505 105.974 4.8535 106.002 5.06028C106.202 6.56008 107.11 7.73192 108.159 7.73192C108.241 7.719 108.325 7.72401 108.405 7.74661C108.485 7.76921 108.559 7.80886 108.622 7.86284C108.685 7.91681 108.736 7.98382 108.77 8.05926C108.805 8.1347 108.823 8.21678 108.823 8.29984C108.823 8.38291 108.805 8.46499 108.77 8.54043C108.736 8.61587 108.685 8.68288 108.622 8.73686C108.559 8.79083 108.485 8.83048 108.405 8.85308C108.325 8.87567 108.241 8.88069 108.159 8.86777C106.349 8.86777 104.903 7.23999 104.668 5.06028C104.645 4.85309 104.634 4.6448 104.634 4.43636C104.634 1.9497 106.181 0.00296021 108.159 0.00296021C108.957 0.0539559 109.715 0.367979 110.315 0.895899C110.915 1.42382 111.324 2.13585 111.476 2.92057C111.493 2.9978 111.493 3.07764 111.477 3.15498C111.461 3.23232 111.429 3.30546 111.383 3.36973C111.337 3.43399 111.278 3.48798 111.21 3.52823C111.142 3.56848 111.067 3.5941 110.988 3.60347Z" fill="#6354B2"/>
<path d="M92.6458 69.4517C93.949 69.4517 95.223 69.8381 96.3065 70.5621C97.3901 71.2861 98.2347 72.3152 98.7334 73.5192C99.2321 74.7232 99.3626 76.0481 99.1083 77.3262C98.8541 78.6044 98.2265 79.7785 97.305 80.7C96.3835 81.6215 95.2095 82.249 93.9313 82.5033C92.6531 82.7575 91.3283 82.627 90.1243 82.1283C88.9203 81.6296 87.8912 80.7851 87.1672 79.7015C86.4431 78.6179 86.0567 77.344 86.0567 76.0408C86.0567 74.2932 86.7509 72.6173 87.9866 71.3816C89.2223 70.1459 90.8983 69.4517 92.6458 69.4517Z" stroke="#F47D31" stroke-width="4.99933"/>
<g style="mix-blend-mode:soft-light">
<path d="M5.05048 57.2434C5.05067 63.2339 6.82727 69.0899 10.1556 74.0707C13.4839 79.0516 18.2144 82.9336 23.749 85.226C29.2836 87.5183 35.3737 88.118 41.2491 86.9492C47.1245 85.7804 52.5214 82.8955 56.7573 78.6595C60.9932 74.4235 63.8778 69.0265 65.0464 63.1511C66.215 57.2756 65.6152 51.1856 63.3227 45.6511C61.0301 40.1165 57.1479 35.3861 52.1669 32.058C47.186 28.7298 41.33 26.9534 35.3394 26.9534C27.3062 26.9537 19.6021 30.1451 13.9218 35.8255C8.2416 41.5059 5.05048 49.2101 5.05048 57.2434Z" fill="black"/>
</g>
<path d="M0.347107 57.2434C0.347305 63.2336 2.12372 69.0893 5.45172 74.07C8.77972 79.0507 13.5099 82.9328 19.044 85.2253C24.5782 87.5179 30.6679 88.1179 36.5432 86.9497C42.4184 85.7814 47.8153 82.8973 52.0514 78.662C56.2876 74.4267 59.1728 69.0303 60.3422 63.1554C61.5116 57.2804 60.9127 51.1905 58.6213 45.6559C56.3298 40.1213 52.4487 35.3904 47.4687 32.0614C42.4886 28.7324 36.6333 26.9548 30.643 26.9534C26.6648 26.9526 22.7254 27.7355 19.0498 29.2574C15.3741 30.7793 12.0343 33.0103 9.22095 35.823C6.40763 38.6358 4.17596 41.9752 2.65338 45.6505C1.13079 49.3259 0.347107 53.2651 0.347107 57.2434Z" fill="#6354B2"/>
<path d="M3.86066 57.2433C3.86085 62.5396 5.43158 67.7169 8.3742 72.1204C11.3168 76.524 15.4992 79.9561 20.3923 81.9827C25.2855 84.0093 30.6698 84.5394 35.8642 83.506C41.0587 82.4726 45.8301 79.922 49.575 76.1768C53.3199 72.4316 55.8701 67.6601 56.9031 62.4656C57.9362 57.271 57.4057 51.8868 55.3787 46.9938C53.3517 42.1007 49.9193 37.9186 45.5155 34.9763C41.1117 32.0341 35.9343 30.4637 30.6381 30.4639C27.1215 30.4641 23.6394 31.1568 20.3905 32.5027C17.1416 33.8485 14.1897 35.8211 11.7032 38.3078C9.21666 40.7945 7.24429 43.7466 5.89867 46.9956C4.55305 50.2446 3.86053 53.7267 3.86066 57.2433Z" fill="url(#paint0_linear_2_834)"/>
<path d="M31.1472 33.2236H29.7052V39.1576H31.1472V33.2236Z" fill="#1F1C38"/>
<path d="M31.1472 76.2538H29.7052V82.1888H31.1472V76.2538Z" fill="#6354B2"/>
<path d="M12.0903 56.5894H6.15631V57.8944H12.0903V56.5894Z" fill="#1F1C38"/>
<path d="M55.1226 56.5894H49.1876V57.8944H55.1226V56.5894Z" fill="#6354B2"/>
<path d="M30.3411 22.662L34.2236 34.0125H26.6246L30.3411 22.662Z" fill="#6354B2"/>
<path d="M29.0762 58.1223H31.7759L31.7759 31.6278H29.0762L29.0762 58.1223Z" fill="#6354B2"/>
<path d="M3.89264 57.3273L15.2431 53.4448V61.0438L3.89264 57.3273Z" fill="#6354B2"/>
<path d="M31.7759 58.5922V55.8925H12.8584V58.5922H31.7759Z" fill="#6354B2"/>
<path d="M30.8474 57.0265L30.4191 57.4733L43.8111 70.3089L44.2394 69.862L30.8474 57.0265Z" fill="#6354B2"/>
<path d="M26.8166 57.8626C26.8164 58.4446 26.9888 59.0135 27.3119 59.4974C27.6351 59.9813 28.0945 60.3586 28.632 60.5814C29.1696 60.8042 29.7612 60.8626 30.3319 60.7492C30.9027 60.6358 31.427 60.3557 31.8385 59.9443C32.2501 59.5329 32.5304 59.0087 32.644 58.438C32.7576 57.8672 32.6994 57.2756 32.4767 56.738C32.2541 56.2004 31.877 55.7409 31.3932 55.4175C30.9093 55.0942 30.3405 54.9216 29.7586 54.9216C28.9785 54.9216 28.2303 55.2315 27.6786 55.783C27.1269 56.3345 26.8169 57.0825 26.8166 57.8626Z" fill="#6354B2"/>
</g>
<defs>
<linearGradient id="paint0_linear_2_834" x1="3.86066" y1="57.2423" x2="57.4175" y2="57.2423" gradientUnits="userSpaceOnUse">
<stop stop-color="#F9E6D9"/>
<stop offset="0.121" stop-color="#FBF1EA"/>
<stop offset="0.27" stop-color="#FDF9F6"/>
<stop offset="0.475" stop-color="#FEFDFD"/>
<stop offset="1" stop-color="white"/>
</linearGradient>
<clipPath id="clip0_2_834">
<rect width="119.581" height="87.5312" fill="white" transform="translate(0.350159)"/>
</clipPath>
</defs>
</svg>
