<svg width="37" height="36" viewBox="0 0 37 36" fill="none" xmlns="http://www.w3.org/2000/svg">
<g clip-path="url(#clip0_2_496)">
<path d="M17.5156 13C18.6156 13 19.5156 12.1 19.5156 11C19.5156 9.9 18.6156 9 17.5156 9C16.4156 9 15.5156 9.9 15.5156 11C15.5156 12.1 16.4156 13 17.5156 13ZM17.5156 15C16.4156 15 15.5156 15.9 15.5156 17C15.5156 18.1 16.4156 19 17.5156 19C18.6156 19 19.5156 18.1 19.5156 17C19.5156 15.9 18.6156 15 17.5156 15ZM17.5156 21C16.4156 21 15.5156 21.9 15.5156 23C15.5156 24.1 16.4156 25 17.5156 25C18.6156 25 19.5156 24.1 19.5156 23C19.5156 21.9 18.6156 21 17.5156 21Z" fill="white"/>
</g>
<defs>
<clipPath id="clip0_2_496">
<rect width="36" height="36" fill="white" transform="translate(0.515625)"/>
</clipPath>
</defs>
</svg>
