<svg width="1408" height="205" viewBox="0 0 1408 205" fill="none" xmlns="http://www.w3.org/2000/svg">
<g clip-path="url(#clip0_2_378)">
<path d="M0 187.719L46.9297 192.901C93.8594 198.473 187.719 208.25 281.578 203.362C375.438 198.473 469.297 176.964 563.156 151.25C657.016 125.146 750.875 93.8594 844.734 83.398C938.594 73.3276 1032.45 83.1047 1126.31 78.2161C1220.17 73.3276 1314.03 51.8182 1360.96 41.7479L1407.89 31.2865V0H1360.96C1314.03 0 1220.17 0 1126.31 0C1032.45 0 938.594 0 844.734 0C750.875 0 657.016 0 563.156 0C469.297 0 375.438 0 281.578 0C187.719 0 93.8594 0 46.9297 0H0V187.719Z" fill="#54469D" fill-opacity="0.07"/>
</g>
<defs>
<clipPath id="clip0_2_378">
<rect width="1407.89" height="204.692" fill="white"/>
</clipPath>
</defs>
</svg>
